<?xml version="1.0" encoding="UTF-8" standalone="no"?>
<!-- Created with Inkscape (http://www.inkscape.org/) -->

<svg
   xmlns:dc="http://purl.org/dc/elements/1.1/"
   xmlns:cc="http://creativecommons.org/ns#"
   xmlns:rdf="http://www.w3.org/1999/02/22-rdf-syntax-ns#"
   xmlns:svg="http://www.w3.org/2000/svg"
   xmlns="http://www.w3.org/2000/svg"
   xmlns:sodipodi="http://sodipodi.sourceforge.net/DTD/sodipodi-0.dtd"
   xmlns:inkscape="http://www.inkscape.org/namespaces/inkscape"
   sodipodi:docname="icon_conflict_avoiding_maneuver_parameter.svg"
   inkscape:version="0.48.4 r9939"
   version="1.1"
   id="svg2"
   height="587.53192"
   width="2464.5645">
  <sodipodi:namedview
     id="base"
     pagecolor="#ffffff"
     bordercolor="#666666"
     borderopacity="1.0"
     inkscape:pageopacity="0.0"
     inkscape:pageshadow="2"
     inkscape:zoom="0.33897393"
     inkscape:cx="1380.0353"
     inkscape:cy="561.97476"
     inkscape:document-units="px"
     inkscape:current-layer="layer1"
     showgrid="true"
     inkscape:window-width="1600"
     inkscape:window-height="834"
     inkscape:window-x="0"
     inkscape:window-y="27"
     inkscape:window-maximized="1"
     fit-margin-top="0"
     fit-margin-left="0"
     fit-margin-right="0"
     fit-margin-bottom="0"
     objecttolerance="10000">
    <inkscape:grid
       originy="602.71572px"
       originx="845.02088px"
       spacingy="2.5px"
       spacingx="2.5px"
       snapvisiblegridlinesonly="true"
       enabled="false"
       visible="true"
       empspacing="5"
       id="grid4663"
       type="xygrid" />
  </sodipodi:namedview>
  <defs
     id="defs4">
    <marker
       inkscape:stockid="Arrow2Mstart"
       orient="auto"
       refY="0"
       refX="0"
       id="Arrow2Mstart"
       style="overflow:visible">
      <path
         inkscape:connector-curvature="0"
         id="path4699"
         style="fill-rule:evenodd;stroke-width:0.625;stroke-linejoin:round"
         d="M 8.7185878,4.0337352 -2.2072895,0.01601326 8.7185884,-4.0017078 c -1.7454984,2.3720609 -1.7354408,5.6174519 -6e-7,8.035443 z"
         transform="scale(0.6,0.6)" />
    </marker>
    <marker
       inkscape:stockid="Arrow1Sstart"
       orient="auto"
       refY="0"
       refX="0"
       id="Arrow1Sstart"
       style="overflow:visible">
      <path
         inkscape:connector-curvature="0"
         id="path4687"
         d="M 0,0 5,-5 -12.5,0 5,5 0,0 z"
         style="fill-rule:evenodd;stroke:#000000;stroke-width:1pt"
         transform="matrix(0.2,0,0,0.2,1.2,0)" />
    </marker>
    <marker
       style="overflow:visible"
       id="Arrow1Mend"
       refX="0"
       refY="0"
       orient="auto"
       inkscape:stockid="Arrow1Mend">
      <path
         inkscape:connector-curvature="0"
         transform="matrix(-0.4,0,0,-0.4,-4,0)"
         style="fill-rule:evenodd;stroke:#000000;stroke-width:1pt"
         d="M 0,0 5,-5 -12.5,0 5,5 0,0 z"
         id="path4684" />
    </marker>
    <marker
       style="overflow:visible"
       id="Arrow1Lend"
       refX="0"
       refY="0"
       orient="auto"
       inkscape:stockid="Arrow1Lend">
      <path
         inkscape:connector-curvature="0"
         transform="matrix(-0.8,0,0,-0.8,-10,0)"
         style="fill-rule:evenodd;stroke:#000000;stroke-width:1pt"
         d="M 0,0 5,-5 -12.5,0 5,5 0,0 z"
         id="path4678" />
    </marker>
    <marker
       style="overflow:visible"
       id="Arrow1MendH"
       refX="0"
       refY="0"
       orient="auto"
       inkscape:stockid="Arrow1MendH">
      <path
         inkscape:connector-curvature="0"
         transform="matrix(-0.4,0,0,-0.4,-4,0)"
         style="fill:#000080;fill-rule:evenodd;stroke:#000080;stroke-width:1pt"
         d="M 0,0 5,-5 -12.5,0 5,5 0,0 z"
         id="path10593" />
    </marker>
    <marker
       style="overflow:visible"
       id="Arrow1Mend4"
       refX="0"
       refY="0"
       orient="auto"
       inkscape:stockid="Arrow1Mend4">
      <path
         inkscape:connector-curvature="0"
         transform="matrix(-0.4,0,0,-0.4,-4,0)"
         style="fill:#000080;fill-rule:evenodd;stroke:#000080;stroke-width:1pt"
         d="M 0,0 5,-5 -12.5,0 5,5 0,0 z"
         id="path12432" />
    </marker>
    <marker
       style="overflow:visible"
       id="Arrow1MendW"
       refX="0"
       refY="0"
       orient="auto"
       inkscape:stockid="Arrow1MendW">
      <path
         inkscape:connector-curvature="0"
         transform="matrix(-0.4,0,0,-0.4,-4,0)"
         style="fill:#000080;fill-rule:evenodd;stroke:#000080;stroke-width:1pt"
         d="M 0,0 5,-5 -12.5,0 5,5 0,0 z"
         id="path14334" />
    </marker>
    <marker
       style="overflow:visible"
       id="Arrow1Mend3"
       refX="0"
       refY="0"
       orient="auto"
       inkscape:stockid="Arrow1Mend3">
      <path
         inkscape:connector-curvature="0"
         transform="matrix(-0.4,0,0,-0.4,-4,0)"
         style="fill:#000080;fill-rule:evenodd;stroke:#000080;stroke-width:1pt"
         d="M 0,0 5,-5 -12.5,0 5,5 0,0 z"
         id="path14731" />
    </marker>
  </defs>
  <metadata
     id="metadata7">
    <rdf:RDF>
      <cc:Work
         rdf:about="">
        <dc:format>image/svg+xml</dc:format>
        <dc:type
           rdf:resource="http://purl.org/dc/dcmitype/StillImage" />
        <dc:title />
      </cc:Work>
    </rdf:RDF>
  </metadata>
  <g
     transform="translate(79.271742,-855.04072)"
     inkscape:label="Ebene 1"
     inkscape:groupmode="layer"
     id="layer1">
    <g
       id="g3105"
       transform="matrix(0.20539195,-0.20539195,-0.20539195,-0.20539195,1126.7864,1060.8183)"
       style="fill:#000080;stroke:#000080">
      <g
         id="g3065"
         style="fill:#000080;stroke:#000080">
        <path
           id="path3067"
           d="M 396.31,49.545 C 402.398,31.274 401.259,17.191 392.878,7.29 382.981,-1.086 368.895,-2.224 350.62,3.856 332.347,9.947 315.977,20.224 301.509,34.689 L 245.11808,93.604367 65.973,34.978 C 62.927,34.025 60.072,34.786 57.409,37.26 L 20.862,73.805 c -2.091,2.096 -2.95,4.665 -2.568,7.71 0.571,3.049 2.19,5.33 4.854,6.854 L 168.186,168.025 94.238,241.973 38.85,226.845 c -0.38,-0.192 -1.139,-0.288 -2.282,-0.288 -2.666,0 -4.853,0.855 -6.567,2.57 L 2.594,256.819 c -1.903,2.279 -2.758,4.66 -2.568,7.132 0.378,3.045 1.615,5.235 3.711,6.57 L 81.984127,318.80699 129.642,396.422 c 1.714,2.098 3.999,3.329 6.854,3.716 l 0.571,0 c 2.666,0 4.853,-0.855 6.567,-2.566 l 27.406,-27.404 c 2.474,-2.669 3.236,-5.619 2.286,-8.854 l -15.133,-55.388 73.947,-73.953 79.66,145.046 c 1.14,2.475 3.138,3.997 5.995,4.569 0.568,0.191 1.235,0.284 1.999,0.284 2.279,0 4.09,-0.572 5.421,-1.712 l 36.552,-27.407 c 3.23,-2.663 4.373,-5.801 3.426,-9.418 L 308.80108,155.96603 365.48,98.659 c 14.462,-14.471 24.739,-30.843 30.83,-49.114 z"
           inkscape:connector-curvature="0"
           sodipodi:nodetypes="cccccccccccccscccccccscccccccscccccc"
           style="fill:#000080;stroke:#000080" />
      </g>
      <g
         id="g3069"
         style="fill:#000080;stroke:#000080" />
      <g
         id="g3071"
         style="fill:#000080;stroke:#000080" />
      <g
         id="g3073"
         style="fill:#000080;stroke:#000080" />
      <g
         id="g3075"
         style="fill:#000080;stroke:#000080" />
      <g
         id="g3077"
         style="fill:#000080;stroke:#000080" />
      <g
         id="g3079"
         style="fill:#000080;stroke:#000080" />
      <g
         id="g3081"
         style="fill:#000080;stroke:#000080" />
      <g
         id="g3083"
         style="fill:#000080;stroke:#000080" />
      <g
         id="g3085"
         style="fill:#000080;stroke:#000080" />
      <g
         id="g3087"
         style="fill:#000080;stroke:#000080" />
      <g
         id="g3089"
         style="fill:#000080;stroke:#000080" />
      <g
         id="g3091"
         style="fill:#000080;stroke:#000080" />
      <g
         id="g3093"
         style="fill:#000080;stroke:#000080" />
      <g
         id="g3095"
         style="fill:#000080;stroke:#000080" />
      <g
         id="g3097"
         style="fill:#000080;stroke:#000080" />
    </g>
    <path
       sodipodi:nodetypes="ccccccc"
       inkscape:connector-curvature="0"
       id="path4669"
       d="m 792.22531,1044.5136 150,0 128.52379,-64.84923 150,0 121.4762,64.84923 150,0 0,0"
       style="fill:none;stroke:#000080;stroke-width:5;stroke-linecap:butt;stroke-linejoin:miter;stroke-miterlimit:4;stroke-opacity:1;stroke-dasharray:15, 5;stroke-dashoffset:0;marker-end:url(#Arrow1MendW)" />
    <g
       transform="matrix(-0.20539195,-0.20539195,0.20539195,-0.20539195,1149.9611,1236.2993)"
       id="g5487">
      <g
         id="g5489">
        <path
           sodipodi:nodetypes="cccccccccccccscccccccscccccccscccccc"
           inkscape:connector-curvature="0"
           d="M 396.31,49.545 C 402.398,31.274 401.259,17.191 392.878,7.29 382.981,-1.086 368.895,-2.224 350.62,3.856 332.347,9.947 315.977,20.224 301.509,34.689 L 245.11808,93.604367 65.973,34.978 C 62.927,34.025 60.072,34.786 57.409,37.26 L 20.862,73.805 c -2.091,2.096 -2.95,4.665 -2.568,7.71 0.571,3.049 2.19,5.33 4.854,6.854 L 168.186,168.025 94.238,241.973 38.85,226.845 c -0.38,-0.192 -1.139,-0.288 -2.282,-0.288 -2.666,0 -4.853,0.855 -6.567,2.57 L 2.594,256.819 c -1.903,2.279 -2.758,4.66 -2.568,7.132 0.378,3.045 1.615,5.235 3.711,6.57 L 81.984127,318.80699 129.642,396.422 c 1.714,2.098 3.999,3.329 6.854,3.716 l 0.571,0 c 2.666,0 4.853,-0.855 6.567,-2.566 l 27.406,-27.404 c 2.474,-2.669 3.236,-5.619 2.286,-8.854 l -15.133,-55.388 73.947,-73.953 79.66,145.046 c 1.14,2.475 3.138,3.997 5.995,4.569 0.568,0.191 1.235,0.284 1.999,0.284 2.279,0 4.09,-0.572 5.421,-1.712 l 36.552,-27.407 c 3.23,-2.663 4.373,-5.801 3.426,-9.418 L 308.80108,155.96603 365.48,98.659 c 14.462,-14.471 24.739,-30.843 30.83,-49.114 z"
           id="path5491" />
      </g>
      <g
         id="g5493" />
      <g
         id="g5495" />
      <g
         id="g5497" />
      <g
         id="g5499" />
      <g
         id="g5501" />
      <g
         id="g5503" />
      <g
         id="g5505" />
      <g
         id="g5507" />
      <g
         id="g5509" />
      <g
         id="g5511" />
      <g
         id="g5513" />
      <g
         id="g5515" />
      <g
         id="g5517" />
      <g
         id="g5519" />
      <g
         id="g5521" />
    </g>
    <g
       transform="matrix(0.20539195,-0.20539195,-0.20539195,-0.20539195,261.32802,1001.8167)"
       id="g9796"
       style="fill:#000080">
      <g
         id="g9798"
         style="fill:#000080">
        <path
           sodipodi:nodetypes="cccccccccccccscccccccscccccccscccccc"
           inkscape:connector-curvature="0"
           d="M 396.31,49.545 C 402.398,31.274 401.259,17.191 392.878,7.29 382.981,-1.086 368.895,-2.224 350.62,3.856 332.347,9.947 315.977,20.224 301.509,34.689 L 245.11808,93.604367 65.973,34.978 C 62.927,34.025 60.072,34.786 57.409,37.26 L 20.862,73.805 c -2.091,2.096 -2.95,4.665 -2.568,7.71 0.571,3.049 2.19,5.33 4.854,6.854 L 168.186,168.025 94.238,241.973 38.85,226.845 c -0.38,-0.192 -1.139,-0.288 -2.282,-0.288 -2.666,0 -4.853,0.855 -6.567,2.57 L 2.594,256.819 c -1.903,2.279 -2.758,4.66 -2.568,7.132 0.378,3.045 1.615,5.235 3.711,6.57 L 81.984127,318.80699 129.642,396.422 c 1.714,2.098 3.999,3.329 6.854,3.716 l 0.571,0 c 2.666,0 4.853,-0.855 6.567,-2.566 l 27.406,-27.404 c 2.474,-2.669 3.236,-5.619 2.286,-8.854 l -15.133,-55.388 73.947,-73.953 79.66,145.046 c 1.14,2.475 3.138,3.997 5.995,4.569 0.568,0.191 1.235,0.284 1.999,0.284 2.279,0 4.09,-0.572 5.421,-1.712 l 36.552,-27.407 c 3.23,-2.663 4.373,-5.801 3.426,-9.418 L 308.80108,155.96603 365.48,98.659 c 14.462,-14.471 24.739,-30.843 30.83,-49.114 z"
           id="path9800"
           style="fill:#000080" />
      </g>
      <g
         id="g9802"
         style="fill:#000080" />
      <g
         id="g9804"
         style="fill:#000080" />
      <g
         id="g9806"
         style="fill:#000080" />
      <g
         id="g9808"
         style="fill:#000080" />
      <g
         id="g9810"
         style="fill:#000080" />
      <g
         id="g9812"
         style="fill:#000080" />
      <g
         id="g9814"
         style="fill:#000080" />
      <g
         id="g9816"
         style="fill:#000080" />
      <g
         id="g9818"
         style="fill:#000080" />
      <g
         id="g9820"
         style="fill:#000080" />
      <g
         id="g9822"
         style="fill:#000080" />
      <g
         id="g9824"
         style="fill:#000080" />
      <g
         id="g9826"
         style="fill:#000080" />
      <g
         id="g9828"
         style="fill:#000080" />
      <g
         id="g9830"
         style="fill:#000080" />
    </g>
    <path
       style="fill:none;stroke:#000080;stroke-width:5;stroke-linecap:butt;stroke-linejoin:miter;stroke-miterlimit:4;stroke-opacity:1;stroke-dasharray:15, 5;stroke-dashoffset:0;marker-end:url(#Arrow1Mend3)"
       d="m -73.233072,1044.5136 150,0 124.999992,-125.00002 150.00003,0 125,125.00002 150,0 0,0"
       id="path9832"
       inkscape:connector-curvature="0" />
    <path
       style="fill:none;stroke:#000000;stroke-width:5;stroke-linecap:butt;stroke-linejoin:miter;stroke-miterlimit:4;stroke-opacity:1;stroke-dasharray:none;marker-end:url(#Arrow1Mend)"
       d="m 630.29075,1092.1644 -699.999992,0"
       id="path9834"
       inkscape:connector-curvature="0" />
    <g
       id="g9836"
       transform="matrix(-0.20539195,-0.20539195,0.20539195,-0.20539195,284.50272,1172.1351)">
      <g
         id="g9838">
        <path
           id="path9840"
           d="M 396.31,49.545 C 402.398,31.274 401.259,17.191 392.878,7.29 382.981,-1.086 368.895,-2.224 350.62,3.856 332.347,9.947 315.977,20.224 301.509,34.689 L 245.11808,93.604367 65.973,34.978 C 62.927,34.025 60.072,34.786 57.409,37.26 L 20.862,73.805 c -2.091,2.096 -2.95,4.665 -2.568,7.71 0.571,3.049 2.19,5.33 4.854,6.854 L 168.186,168.025 94.238,241.973 38.85,226.845 c -0.38,-0.192 -1.139,-0.288 -2.282,-0.288 -2.666,0 -4.853,0.855 -6.567,2.57 L 2.594,256.819 c -1.903,2.279 -2.758,4.66 -2.568,7.132 0.378,3.045 1.615,5.235 3.711,6.57 L 81.984127,318.80699 129.642,396.422 c 1.714,2.098 3.999,3.329 6.854,3.716 l 0.571,0 c 2.666,0 4.853,-0.855 6.567,-2.566 l 27.406,-27.404 c 2.474,-2.669 3.236,-5.619 2.286,-8.854 l -15.133,-55.388 73.947,-73.953 79.66,145.046 c 1.14,2.475 3.138,3.997 5.995,4.569 0.568,0.191 1.235,0.284 1.999,0.284 2.279,0 4.09,-0.572 5.421,-1.712 l 36.552,-27.407 c 3.23,-2.663 4.373,-5.801 3.426,-9.418 L 308.80108,155.96603 365.48,98.659 c 14.462,-14.471 24.739,-30.843 30.83,-49.114 z"
           inkscape:connector-curvature="0"
           sodipodi:nodetypes="cccccccccccccscccccccscccccccscccccc" />
      </g>
      <g
         id="g9842" />
      <g
         id="g9844" />
      <g
         id="g9846" />
      <g
         id="g9848" />
      <g
         id="g9850" />
      <g
         id="g9852" />
      <g
         id="g9854" />
      <g
         id="g9856" />
      <g
         id="g9858" />
      <g
         id="g9860" />
      <g
         id="g9862" />
      <g
         id="g9864" />
      <g
         id="g9866" />
      <g
         id="g9868" />
      <g
         id="g9870" />
    </g>
    <g
       transform="matrix(0.20539195,-0.20539195,-0.20539195,-0.20539195,2010.5174,1131.8167)"
       id="g9872"
       style="fill:#000080;stroke:#000080">
      <g
         id="g9874"
         style="fill:#000080;stroke:#000080">
        <path
           sodipodi:nodetypes="cccccccccccccscccccccscccccccscccccc"
           inkscape:connector-curvature="0"
           d="M 396.31,49.545 C 402.398,31.274 401.259,17.191 392.878,7.29 382.981,-1.086 368.895,-2.224 350.62,3.856 332.347,9.947 315.977,20.224 301.509,34.689 L 245.11808,93.604367 65.973,34.978 C 62.927,34.025 60.072,34.786 57.409,37.26 L 20.862,73.805 c -2.091,2.096 -2.95,4.665 -2.568,7.71 0.571,3.049 2.19,5.33 4.854,6.854 L 168.186,168.025 94.238,241.973 38.85,226.845 c -0.38,-0.192 -1.139,-0.288 -2.282,-0.288 -2.666,0 -4.853,0.855 -6.567,2.57 L 2.594,256.819 c -1.903,2.279 -2.758,4.66 -2.568,7.132 0.378,3.045 1.615,5.235 3.711,6.57 L 81.984127,318.80699 129.642,396.422 c 1.714,2.098 3.999,3.329 6.854,3.716 l 0.571,0 c 2.666,0 4.853,-0.855 6.567,-2.566 l 27.406,-27.404 c 2.474,-2.669 3.236,-5.619 2.286,-8.854 l -15.133,-55.388 73.947,-73.953 79.66,145.046 c 1.14,2.475 3.138,3.997 5.995,4.569 0.568,0.191 1.235,0.284 1.999,0.284 2.279,0 4.09,-0.572 5.421,-1.712 l 36.552,-27.407 c 3.23,-2.663 4.373,-5.801 3.426,-9.418 L 308.80108,155.96603 365.48,98.659 c 14.462,-14.471 24.739,-30.843 30.83,-49.114 z"
           id="path9876"
           style="fill:#000080;stroke:#000080" />
      </g>
      <g
         id="g9878"
         style="fill:#000080;stroke:#000080" />
      <g
         id="g9880"
         style="fill:#000080;stroke:#000080" />
      <g
         id="g9882"
         style="fill:#000080;stroke:#000080" />
      <g
         id="g9884"
         style="fill:#000080;stroke:#000080" />
      <g
         id="g9886"
         style="fill:#000080;stroke:#000080" />
      <g
         id="g9888"
         style="fill:#000080;stroke:#000080" />
      <g
         id="g9890"
         style="fill:#000080;stroke:#000080" />
      <g
         id="g9892"
         style="fill:#000080;stroke:#000080" />
      <g
         id="g9894"
         style="fill:#000080;stroke:#000080" />
      <g
         id="g9896"
         style="fill:#000080;stroke:#000080" />
      <g
         id="g9898"
         style="fill:#000080;stroke:#000080" />
      <g
         id="g9900"
         style="fill:#000080;stroke:#000080" />
      <g
         id="g9902"
         style="fill:#000080;stroke:#000080" />
      <g
         id="g9904"
         style="fill:#000080;stroke:#000080" />
      <g
         id="g9906"
         style="fill:#000080;stroke:#000080" />
    </g>
    <path
       style="fill:none;stroke:#000000;stroke-width:5;stroke-linecap:butt;stroke-linejoin:miter;stroke-miterlimit:4;stroke-opacity:1;stroke-dasharray:none;stroke-dashoffset:0;marker-end:url(#Arrow2Mstart)"
       d="m 2379.7063,1097.2636 -150,0 -125,125 -150,0 -125,-125 -150,0 0,0"
       id="path9908"
       inkscape:connector-curvature="0" />
    <path
       style="fill:#000080;stroke:#000080;stroke-width:5;stroke-linecap:butt;stroke-linejoin:miter;stroke-miterlimit:4;stroke-opacity:1;stroke-dasharray:15, 5;stroke-dashoffset:0;marker-end:url(#Arrow1Mend4)"
       d="m 1675.7302,1052.1644 700,0"
       id="path9910"
       inkscape:connector-curvature="0" />
    <g
       id="g9912"
       transform="matrix(-0.20539195,-0.20539195,0.20539195,-0.20539195,2033.6921,1302.1351)">
      <g
         id="g9914">
        <path
           id="path9916"
           d="M 396.31,49.545 C 402.398,31.274 401.259,17.191 392.878,7.29 382.981,-1.086 368.895,-2.224 350.62,3.856 332.347,9.947 315.977,20.224 301.509,34.689 L 245.11808,93.604367 65.973,34.978 C 62.927,34.025 60.072,34.786 57.409,37.26 L 20.862,73.805 c -2.091,2.096 -2.95,4.665 -2.568,7.71 0.571,3.049 2.19,5.33 4.854,6.854 L 168.186,168.025 94.238,241.973 38.85,226.845 c -0.38,-0.192 -1.139,-0.288 -2.282,-0.288 -2.666,0 -4.853,0.855 -6.567,2.57 L 2.594,256.819 c -1.903,2.279 -2.758,4.66 -2.568,7.132 0.378,3.045 1.615,5.235 3.711,6.57 L 81.984127,318.80699 129.642,396.422 c 1.714,2.098 3.999,3.329 6.854,3.716 l 0.571,0 c 2.666,0 4.853,-0.855 6.567,-2.566 l 27.406,-27.404 c 2.474,-2.669 3.236,-5.619 2.286,-8.854 l -15.133,-55.388 73.947,-73.953 79.66,145.046 c 1.14,2.475 3.138,3.997 5.995,4.569 0.568,0.191 1.235,0.284 1.999,0.284 2.279,0 4.09,-0.572 5.421,-1.712 l 36.552,-27.407 c 3.23,-2.663 4.373,-5.801 3.426,-9.418 L 308.80108,155.96603 365.48,98.659 c 14.462,-14.471 24.739,-30.843 30.83,-49.114 z"
           inkscape:connector-curvature="0"
           sodipodi:nodetypes="cccccccccccccscccccccscccccccscccccc" />
      </g>
      <g
         id="g9918" />
      <g
         id="g9920" />
      <g
         id="g9922" />
      <g
         id="g9924" />
      <g
         id="g9926" />
      <g
         id="g9928" />
      <g
         id="g9930" />
      <g
         id="g9932" />
      <g
         id="g9934" />
      <g
         id="g9936" />
      <g
         id="g9938" />
      <g
         id="g9940" />
      <g
         id="g9942" />
      <g
         id="g9944" />
      <g
         id="g9946" />
    </g>
    <path
       sodipodi:nodetypes="cc"
       style="fill:none;stroke:#000000;stroke-width:5;stroke-linecap:butt;stroke-linejoin:miter;stroke-miterlimit:4;stroke-opacity:1;stroke-dasharray:none;marker-end:url(#Arrow1Mend)"
       d="m 1495.7491,230.13262 -350,0"
       id="path9986"
       inkscape:connector-curvature="0" />
    <g
       id="g9988"
       transform="matrix(-0.20539195,-0.20539195,0.20539195,-0.20539195,1149.9611,311.76448)">
      <g
         id="g9990">
        <path
           id="path9992"
           d="m -76.820464,522.67546 c 6.088,-18.271 4.949,-32.354 -3.432,-42.255 -9.897,-8.376 -23.982996,-9.514 -42.257996,-3.434 -18.273,6.091 -34.643,16.368 -49.111,30.833 l -56.39092,58.91537 -179.14508,-58.62637 c -3.046,-0.953 -5.901,-0.192 -8.564,2.282 l -36.547,36.545 c -2.091,2.096 -2.95,4.665 -2.568,7.71 0.571,3.049 2.19,5.33 4.854,6.854 l 145.038,79.656 -73.948,73.948 -55.388,-15.128 c -0.38,-0.192 -1.139,-0.288 -2.282,-0.288 -2.666,0 -4.853,0.855 -6.567,2.57 l -27.407,27.692 c -1.903,2.279 -2.758,4.66 -2.568,7.132 0.378,3.045 1.615,5.235 3.711,6.57 l 78.24712,48.28599 47.65788,77.61501 c 1.714,2.098 3.999,3.329 6.854,3.716 l 0.571,0 c 2.666,0 4.853,-0.855 6.567,-2.566 l 27.406,-27.404 c 2.474,-2.669 3.236,-5.619 2.286,-8.854 l -15.133,-55.388 73.947,-73.953 79.66,145.046 c 1.14,2.475 3.138,3.997 5.995,4.569 0.568,0.191 1.235,0.284 1.999,0.284 2.279,0 4.09,-0.572 5.421,-1.712 l 36.552,-27.407 c 3.23,-2.663 4.373,-5.801 3.426,-9.418 l -56.39192,-187.36897 56.67892,-57.30703 c 14.461996,-14.471 24.738996,-30.843 30.829996,-49.114 z"
           inkscape:connector-curvature="0"
           sodipodi:nodetypes="cccccccccccccscccccccscccccccscccccc" />
      </g>
      <g
         id="g9994" />
      <g
         id="g9996" />
      <g
         id="g9998" />
      <g
         id="g10000" />
      <g
         id="g10002" />
      <g
         id="g10004" />
      <g
         id="g10006" />
      <g
         id="g10008" />
      <g
         id="g10010" />
      <g
         id="g10012" />
      <g
         id="g10014" />
      <g
         id="g10016" />
      <g
         id="g10018" />
      <g
         id="g10020" />
      <g
         id="g10022" />
    </g>
    <path
       inkscape:connector-curvature="0"
       id="path10546"
       d="m 731.9991,230.13262 350,0"
       style="fill:#000080;stroke:#000080;stroke-width:5;stroke-linecap:butt;stroke-linejoin:miter;stroke-miterlimit:4;stroke-opacity:1;stroke-dasharray:15, 5;stroke-dashoffset:0;marker-end:url(#Arrow1MendH)"
       sodipodi:nodetypes="cc" />
    <g
       style="fill:#000080;stroke:#000080"
       transform="matrix(0.20539195,-0.20539195,-0.20539195,-0.20539195,1077.7871,311.76448)"
       id="g10548">
      <g
         style="fill:#000080;stroke:#000080"
         id="g10550">
        <path
           style="fill:#000080;stroke:#000080"
           sodipodi:nodetypes="cccccccccccccscccccccscccccccscccccc"
           inkscape:connector-curvature="0"
           d="m -76.820464,522.67546 c 6.088,-18.271 4.949,-32.354 -3.432,-42.255 -9.897,-8.376 -23.982996,-9.514 -42.257996,-3.434 -18.273,6.091 -34.643,16.368 -49.111,30.833 l -56.39092,58.91537 -179.14508,-58.62637 c -3.046,-0.953 -5.901,-0.192 -8.564,2.282 l -36.547,36.545 c -2.091,2.096 -2.95,4.665 -2.568,7.71 0.571,3.049 2.19,5.33 4.854,6.854 l 145.038,79.656 -73.948,73.948 -55.388,-15.128 c -0.38,-0.192 -1.139,-0.288 -2.282,-0.288 -2.666,0 -4.853,0.855 -6.567,2.57 l -27.407,27.692 c -1.903,2.279 -2.758,4.66 -2.568,7.132 0.378,3.045 1.615,5.235 3.711,6.57 l 78.24712,48.28599 47.65788,77.61501 c 1.714,2.098 3.999,3.329 6.854,3.716 l 0.571,0 c 2.666,0 4.853,-0.855 6.567,-2.566 l 27.406,-27.404 c 2.474,-2.669 3.236,-5.619 2.286,-8.854 l -15.133,-55.388 73.947,-73.953 79.66,145.046 c 1.14,2.475 3.138,3.997 5.995,4.569 0.568,0.191 1.235,0.284 1.999,0.284 2.279,0 4.09,-0.572 5.421,-1.712 l 36.552,-27.407 c 3.23,-2.663 4.373,-5.801 3.426,-9.418 l -56.39192,-187.36897 56.67892,-57.30703 c 14.461996,-14.471 24.738996,-30.843 30.829996,-49.114 z"
           id="path10552" />
      </g>
      <g
         style="fill:#000080;stroke:#000080"
         id="g10554" />
      <g
         style="fill:#000080;stroke:#000080"
         id="g10556" />
      <g
         style="fill:#000080;stroke:#000080"
         id="g10558" />
      <g
         style="fill:#000080;stroke:#000080"
         id="g10560" />
      <g
         style="fill:#000080;stroke:#000080"
         id="g10562" />
      <g
         style="fill:#000080;stroke:#000080"
         id="g10564" />
      <g
         style="fill:#000080;stroke:#000080"
         id="g10566" />
      <g
         style="fill:#000080;stroke:#000080"
         id="g10568" />
      <g
         style="fill:#000080;stroke:#000080"
         id="g10570" />
      <g
         style="fill:#000080;stroke:#000080"
         id="g10572" />
      <g
         style="fill:#000080;stroke:#000080"
         id="g10574" />
      <g
         style="fill:#000080;stroke:#000080"
         id="g10576" />
      <g
         style="fill:#000080;stroke:#000080"
         id="g10578" />
      <g
         style="fill:#000080;stroke:#000080"
         id="g10580" />
      <g
         style="fill:#000080;stroke:#000080"
         id="g10582" />
    </g>
    <path
       sodipodi:nodetypes="ccccccc"
       inkscape:connector-curvature="0"
       id="path12756"
       d="m 1492.653,1097.2636 -150,0 -121.9039,57.4008 -150,0 -128.09611,-57.4008 -150,0 0,0"
       style="fill:none;stroke:#000000;stroke-width:5;stroke-linecap:butt;stroke-linejoin:miter;stroke-miterlimit:4;stroke-opacity:1;stroke-dasharray:none;stroke-dashoffset:0;marker-end:url(#Arrow2Mstart)" />
    <path
       sodipodi:nodetypes="cc"
       transform="translate(-59.271742,164.83882)"
       inkscape:connector-curvature="0"
       id="path12952"
       d="m 1100.0209,200.01807 -575.00002,375"
       style="fill:none;stroke:#000000;stroke-width:10;stroke-linecap:butt;stroke-linejoin:miter;stroke-miterlimit:4;stroke-opacity:1;stroke-dasharray:none;marker-end:url(#Arrow1Mend)" />
    <path
       style="fill:none;stroke:#000000;stroke-width:10;stroke-linecap:butt;stroke-linejoin:miter;stroke-miterlimit:4;stroke-opacity:1;stroke-dasharray:none;marker-end:url(#Arrow1Mend)"
       d="m 1175.0209,200.01807 0,375"
       id="path13146"
       inkscape:connector-curvature="0"
       transform="translate(-59.271742,164.83882)"
       sodipodi:nodetypes="cc" />
    <path
       style="fill:none;stroke:#000000;stroke-width:10;stroke-linecap:butt;stroke-linejoin:miter;stroke-miterlimit:4;stroke-opacity:1;stroke-dasharray:none;marker-end:url(#Arrow1Mend)"
       d="m 1212.1433,364.85689 575,375"
       id="path13150"
       inkscape:connector-curvature="0"
       sodipodi:nodetypes="cc" />
    <g
       id="g13325"
       transform="translate(-247.80667,221.25596)">
      <g
         word-spacing="normal"
         letter-spacing="normal"
         font-size-adjust="none"
         font-stretch="normal"
         font-weight="normal"
         font-variant="normal"
         font-style="normal"
         stroke-miterlimit="10.433"
         xml:space="preserve"
         transform="matrix(1.596932,0,0,-1.596932,-279.4631,1848.4234)"
         id="content"
         style="font-style:normal;font-variant:normal;font-weight:normal;font-stretch:normal;letter-spacing:normal;word-spacing:normal;text-anchor:start;fill:none;stroke:#000000;stroke-linecap:butt;stroke-linejoin:miter;stroke-miterlimit:10.43299961;stroke-opacity:1;stroke-dasharray:none;stroke-dashoffset:0"><path
           id="path13328"
           d="m 474.1,425.03 -0.09,0.17 -0.09,0.17 -0.09,0.16 -0.09,0.16 -0.1,0.16 -0.1,0.16 -0.11,0.15 -0.11,0.14 -0.11,0.15 -0.12,0.13 -0.12,0.14 -0.12,0.13 -0.13,0.12 -0.13,0.12 -0.14,0.11 -0.14,0.11 -0.14,0.11 -0.15,0.09 -0.15,0.1 -0.15,0.08 -0.16,0.08 -0.17,0.08 -0.17,0.06 -0.17,0.07 -0.17,0.05 -0.18,0.05 -0.19,0.04 -0.19,0.03 -0.19,0.03 -0.2,0.02 -0.2,0.01 -0.21,0 0.05,-1.09 c 3.23,0 3.93,-4.08 3.93,-4.37 0,-0.32 -0.09,-0.61 -0.14,-0.86 l -2.5,-9.77 c -0.25,-0.89 -0.25,-0.98 -1,-1.84 -2.18,-2.74 -4.23,-3.53 -5.62,-3.53 -2.49,0 -3.19,2.73 -3.19,4.68 0,2.49 1.59,8.61 2.74,10.91 1.54,2.94 3.79,4.78 5.78,4.78 l -0.05,1.09 c -5.83,0 -12,-7.31 -12,-14.59 0,-4.69 2.73,-7.97 6.62,-7.97 0.99,0 3.49,0.21 6.47,3.74 0.41,-2.1 2.14,-3.74 4.53,-3.74 1.75,0 2.9,1.14 3.69,2.74 0.85,1.79 1.5,4.84 1.5,4.93 0,0.5 -0.45,0.5 -0.59,0.5 -0.5,0 -0.55,-0.2 -0.7,-0.9 -0.85,-3.24 -1.75,-6.17 -3.79,-6.17 -1.34,0 -1.5,1.29 -1.5,2.29 0,1.1 0.1,1.49 0.64,3.69 0.57,2.09 0.66,2.59 1.11,4.48 l 1.79,6.97 c 0.35,1.39 0.35,1.5 0.35,1.69 0,0.86 -0.6,1.36 -1.45,1.36 -1.19,0 -1.94,-1.11 -2.09,-2.2 z"
           inkscape:connector-curvature="0"
           style="fill:#000000;stroke-width:0" /><path
           id="path13330"
           d="m 492.71,421.9 0,0.01 0,0 0,0 0,0.01 0.01,0 0,0.01 0,0.01 0,0 0,0.01 0.01,0.01 0,0.01 0.01,0.02 0,0.02 0.01,0.02 0,0.02 0.01,0.02 0.01,0.02 0,0.03 0.01,0.02 0.01,0.05 0.01,0.04 0.01,0.03 0,0.02 0.01,0.02 0,0.02 0.01,0.02 0,0.02 0,0.02 0.01,0.01 0,0.01 0,0.01 0,0 0,0.01 0,0 0.01,0.01 0,0 0,0.01 0,0 0,0 0,0.01 0,0 c 0,0.19 -0.14,0.5 -0.56,0.5 -0.69,0 -3.58,-0.28 -4.46,-0.36 -0.28,-0.03 -0.76,-0.06 -0.76,-0.8 0,-0.48 0.48,-0.48 0.9,-0.48 1.67,0 1.67,-0.25 1.67,-0.53 0,-0.24 -0.07,-0.46 -0.14,-0.77 l -4.92,-19.72 c -0.17,-0.62 -0.17,-0.68 -0.17,-0.76 0,-0.52 0.42,-1.11 1.19,-1.11 0.94,0 1.39,0.69 1.61,1.45 0.06,0.14 1.56,6.28 1.7,6.77 2.47,-0.25 4.45,-1.05 4.45,-2.86 0,-0.17 0,-0.35 -0.06,-0.69 -0.14,-0.53 -0.14,-0.7 -0.14,-1.09 0,-2.47 2.02,-3.58 3.69,-3.58 3.39,0 4.44,5.29 4.44,5.33 0,0.45 -0.46,0.45 -0.57,0.45 -0.48,0 -0.53,-0.17 -0.7,-0.84 -0.41,-1.5 -1.36,-3.97 -3.06,-3.97 -0.94,0 -1.22,0.87 -1.22,1.81 0,0.59 0,0.66 0.2,1.56 0.05,0.11 0.19,0.7 0.19,1.1 0,3.09 -4.19,3.57 -5.66,3.68 1.02,0.63 2.3,1.78 2.89,2.3 1.78,1.67 3.53,3.31 5.47,3.31 0.42,0 0.88,-0.11 1.16,-0.45 -1.5,-0.25 -1.81,-1.42 -1.81,-1.95 0,-0.77 0.59,-1.29 1.39,-1.29 0.95,0 1.98,0.77 1.98,2.22 0,1.16 -0.83,2.44 -2.67,2.44 -1.99,0 -3.8,-1.42 -5.58,-3.06 -1.47,-1.39 -2.61,-2.47 -4.05,-3.06 z"
           inkscape:connector-curvature="0"
           style="fill:#000000;stroke-width:0" /><path
           id="path13332"
           d="m 554.43,422.5 0.14,0 0.15,0 0.14,0 0.07,0.01 0.08,0 0.07,0.01 0.07,0.01 0.07,0.01 0.07,0.01 0.07,0.01 0.06,0.02 0.07,0.02 0.06,0.02 0.06,0.02 0.06,0.03 0.06,0.03 0.05,0.04 0.05,0.03 0.05,0.05 0.04,0.04 0.04,0.05 0.02,0.03 0.02,0.03 0.01,0.02 0.02,0.03 0.01,0.03 0.02,0.04 0.01,0.03 0.01,0.04 0.01,0.03 0.01,0.04 0,0.04 0.01,0.04 0,0.04 0.01,0.04 0,0.04 0,0.05 c 0,1 -0.95,1 -1.64,1 h -29.84 c -0.71,0 -1.64,0 -1.64,-1 0,-0.98 0.93,-0.98 1.68,-0.98 z"
           inkscape:connector-curvature="0"
           style="fill:#000000;stroke-width:0" /><path
           id="path13334"
           d="m 554.48,412.82 0.07,0 0.06,0 0.14,0.01 0.14,0 0.07,0 0.07,0.01 0.07,0.01 0.07,0 0.06,0.01 0.07,0.02 0.07,0.01 0.06,0.02 0.07,0.02 0.06,0.02 0.06,0.02 0.06,0.03 0.05,0.03 0.05,0.04 0.05,0.04 0.05,0.04 0.04,0.05 0.02,0.02 0.02,0.03 0.02,0.02 0.02,0.03 0.01,0.03 0.02,0.03 0.01,0.03 0.02,0.03 0.01,0.04 0.01,0.03 0.01,0.04 0.01,0.04 0,0.04 0.01,0.04 0,0.04 0.01,0.04 0,0.05 0,0.04 c 0,1 -0.95,1 -1.69,1 h -29.75 c -0.75,0 -1.68,0 -1.68,-1 0,-1 0.93,-1 1.64,-1 z"
           inkscape:connector-curvature="0"
           style="fill:#000000;stroke-width:0" /><path
           id="path13336"
           d="m 595.68,422.14 0,0.74 -0.01,0.75 -0.02,0.75 -0.04,0.74 -0.04,0.75 -0.06,0.74 -0.08,0.74 -0.09,0.73 -0.12,0.73 -0.14,0.73 -0.16,0.72 -0.19,0.72 -0.22,0.72 -0.24,0.7 -0.28,0.7 -0.15,0.35 -0.16,0.34 c -2.28,4.8 -6.38,5.6 -8.47,5.6 -2.98,0 -6.62,-1.3 -8.67,-5.94 -1.59,-3.44 -1.84,-7.33 -1.84,-11.31 0,-3.74 0.2,-8.22 2.25,-12 2.14,-4.03 5.78,-5.03 8.21,-5.03 v 1.09 c -1.93,0 -4.89,1.25 -5.78,6.03 -0.54,2.98 -0.54,7.56 -0.54,10.52 0,3.18 0,6.46 0.4,9.15 0.94,5.94 4.67,6.38 5.92,6.38 1.64,0 4.94,-0.89 5.88,-5.83 0.5,-2.78 0.5,-6.58 0.5,-9.7 0,-3.75 0,-7.13 -0.55,-10.32 -0.75,-4.73 -3.59,-6.23 -5.83,-6.23 h 0 v -1.09 c 2.69,0 6.47,1.04 8.68,5.78 1.59,3.43 1.84,7.31 1.84,11.25 z"
           inkscape:connector-curvature="0"
           style="fill:#000000;stroke-width:0" /></g>    </g>
    <g
       id="g13696"
       transform="translate(613.61652,215.3558)">
      <g
         id="g13698"
         transform="matrix(1.596932,0,0,-1.596932,-279.4631,1848.4234)"
         xml:space="preserve"
         stroke-miterlimit="10.433"
         font-style="normal"
         font-variant="normal"
         font-weight="normal"
         font-stretch="normal"
         font-size-adjust="none"
         letter-spacing="normal"
         word-spacing="normal"
         style="font-style:normal;font-variant:normal;font-weight:normal;font-stretch:normal;letter-spacing:normal;word-spacing:normal;text-anchor:start;fill:none;stroke:#000000;stroke-linecap:butt;stroke-linejoin:miter;stroke-miterlimit:10.43299961;stroke-opacity:1;stroke-dasharray:none;stroke-dashoffset:0"><path
           d="m 474.1,425.03 -0.09,0.17 -0.09,0.17 -0.09,0.16 -0.09,0.16 -0.1,0.16 -0.1,0.16 -0.11,0.15 -0.11,0.14 -0.11,0.15 -0.12,0.13 -0.12,0.14 -0.12,0.13 -0.13,0.12 -0.13,0.12 -0.14,0.11 -0.14,0.11 -0.14,0.11 -0.15,0.09 -0.15,0.1 -0.15,0.08 -0.16,0.08 -0.17,0.08 -0.17,0.06 -0.17,0.07 -0.17,0.05 -0.18,0.05 -0.19,0.04 -0.19,0.03 -0.19,0.03 -0.2,0.02 -0.2,0.01 -0.21,0 0.05,-1.09 c 3.23,0 3.93,-4.08 3.93,-4.37 0,-0.32 -0.09,-0.61 -0.14,-0.86 l -2.5,-9.77 c -0.25,-0.89 -0.25,-0.98 -1,-1.84 -2.18,-2.74 -4.23,-3.53 -5.62,-3.53 -2.49,0 -3.19,2.73 -3.19,4.68 0,2.49 1.59,8.61 2.74,10.91 1.54,2.94 3.79,4.78 5.78,4.78 l -0.05,1.09 c -5.83,0 -12,-7.31 -12,-14.59 0,-4.69 2.73,-7.97 6.62,-7.97 0.99,0 3.49,0.21 6.47,3.74 0.41,-2.1 2.14,-3.74 4.53,-3.74 1.75,0 2.9,1.14 3.69,2.74 0.85,1.79 1.5,4.84 1.5,4.93 0,0.5 -0.45,0.5 -0.59,0.5 -0.5,0 -0.55,-0.2 -0.7,-0.9 -0.85,-3.24 -1.75,-6.17 -3.79,-6.17 -1.34,0 -1.5,1.29 -1.5,2.29 0,1.1 0.1,1.49 0.64,3.69 0.57,2.09 0.66,2.59 1.11,4.48 l 1.79,6.97 c 0.35,1.39 0.35,1.5 0.35,1.69 0,0.86 -0.6,1.36 -1.45,1.36 -1.19,0 -1.94,-1.11 -2.09,-2.2 z"
           id="path13700"
           inkscape:connector-curvature="0"
           style="fill:#000000;stroke-width:0" /><path
           d="m 492.71,421.9 0,0.01 0,0 0,0 0,0.01 0.01,0 0,0.01 0,0.01 0,0 0,0.01 0.01,0.01 0,0.01 0.01,0.02 0,0.02 0.01,0.02 0,0.02 0.01,0.02 0.01,0.02 0,0.03 0.01,0.02 0.01,0.05 0.01,0.04 0.01,0.03 0,0.02 0.01,0.02 0,0.02 0.01,0.02 0,0.02 0,0.02 0.01,0.01 0,0.01 0,0.01 0,0 0,0.01 0,0 0.01,0.01 0,0 0,0.01 0,0 0,0 0,0.01 0,0 c 0,0.19 -0.14,0.5 -0.56,0.5 -0.69,0 -3.58,-0.28 -4.46,-0.36 -0.28,-0.03 -0.76,-0.06 -0.76,-0.8 0,-0.48 0.48,-0.48 0.9,-0.48 1.67,0 1.67,-0.25 1.67,-0.53 0,-0.24 -0.07,-0.46 -0.14,-0.77 l -4.92,-19.72 c -0.17,-0.62 -0.17,-0.68 -0.17,-0.76 0,-0.52 0.42,-1.11 1.19,-1.11 0.94,0 1.39,0.69 1.61,1.45 0.06,0.14 1.56,6.28 1.7,6.77 2.47,-0.25 4.45,-1.05 4.45,-2.86 0,-0.17 0,-0.35 -0.06,-0.69 -0.14,-0.53 -0.14,-0.7 -0.14,-1.09 0,-2.47 2.02,-3.58 3.69,-3.58 3.39,0 4.44,5.29 4.44,5.33 0,0.45 -0.46,0.45 -0.57,0.45 -0.48,0 -0.53,-0.17 -0.7,-0.84 -0.41,-1.5 -1.36,-3.97 -3.06,-3.97 -0.94,0 -1.22,0.87 -1.22,1.81 0,0.59 0,0.66 0.2,1.56 0.05,0.11 0.19,0.7 0.19,1.1 0,3.09 -4.19,3.57 -5.66,3.68 1.02,0.63 2.3,1.78 2.89,2.3 1.78,1.67 3.53,3.31 5.47,3.31 0.42,0 0.88,-0.11 1.16,-0.45 -1.5,-0.25 -1.81,-1.42 -1.81,-1.95 0,-0.77 0.59,-1.29 1.39,-1.29 0.95,0 1.98,0.77 1.98,2.22 0,1.16 -0.83,2.44 -2.67,2.44 -1.99,0 -3.8,-1.42 -5.58,-3.06 -1.47,-1.39 -2.61,-2.47 -4.05,-3.06 z"
           id="path13702"
           inkscape:connector-curvature="0"
           style="fill:#000000;stroke-width:0" /><path
           d="m 554.43,422.5 0.14,0 0.15,0 0.14,0 0.07,0.01 0.08,0 0.07,0.01 0.07,0.01 0.07,0.01 0.07,0.01 0.07,0.01 0.06,0.02 0.07,0.02 0.06,0.02 0.06,0.02 0.06,0.03 0.06,0.03 0.05,0.04 0.05,0.03 0.05,0.05 0.04,0.04 0.04,0.05 0.02,0.03 0.02,0.03 0.01,0.02 0.02,0.03 0.01,0.03 0.02,0.04 0.01,0.03 0.01,0.04 0.01,0.03 0.01,0.04 0,0.04 0.01,0.04 0,0.04 0.01,0.04 0,0.04 0,0.05 c 0,1 -0.95,1 -1.64,1 h -29.84 c -0.71,0 -1.64,0 -1.64,-1 0,-0.98 0.93,-0.98 1.68,-0.98 z"
           id="path13704"
           inkscape:connector-curvature="0"
           style="fill:#000000;stroke-width:0" /><path
           d="m 554.48,412.82 0.07,0 0.06,0 0.14,0.01 0.14,0 0.07,0 0.07,0.01 0.07,0.01 0.07,0 0.06,0.01 0.07,0.02 0.07,0.01 0.06,0.02 0.07,0.02 0.06,0.02 0.06,0.02 0.06,0.03 0.05,0.03 0.05,0.04 0.05,0.04 0.05,0.04 0.04,0.05 0.02,0.02 0.02,0.03 0.02,0.02 0.02,0.03 0.01,0.03 0.02,0.03 0.01,0.03 0.02,0.03 0.01,0.04 0.01,0.03 0.01,0.04 0.01,0.04 0,0.04 0.01,0.04 0,0.04 0.01,0.04 0,0.05 0,0.04 c 0,1 -0.95,1 -1.69,1 h -29.75 c -0.75,0 -1.68,0 -1.68,-1 0,-1 0.93,-1 1.64,-1 z"
           id="path13706"
           inkscape:connector-curvature="0"
           style="fill:#000000;stroke-width:0" /><path
           d="m 590.43,447.92 0,0.04 0,0.04 0,0.05 0,0.04 0,0.03 0,0.04 0,0.04 0,0.03 0,0.04 0,0.03 -0.01,0.03 0,0.03 0,0.03 0,0.03 -0.01,0.03 0,0.02 -0.01,0.03 0,0.02 -0.01,0.03 0,0.02 -0.01,0.04 -0.02,0.04 -0.01,0.03 -0.02,0.03 -0.03,0.03 -0.02,0.03 -0.03,0.02 -0.03,0.02 -0.03,0.02 -0.04,0.01 -0.04,0.01 -0.04,0.02 -0.03,0 -0.02,0 -0.03,0.01 -0.02,0 -0.03,0.01 -0.03,0 -0.03,0 -0.03,0 -0.03,0 -0.04,0.01 -0.03,0 -0.04,0 -0.03,0 -0.04,0 -0.04,0 -0.04,0 -0.04,0 -0.04,0 -0.05,0 -0.04,0 c -2.24,-2.2 -5.39,-2.23 -6.83,-2.23 v -1.25 c 0.84,0 3.14,0 5.04,0.97 v -17.77 c 0,-1.16 0,-1.61 -3.48,-1.61 h -1.31 v -1.25 c 0.62,0.03 4.91,0.14 6.2,0.14 1.08,0 5.47,-0.11 6.24,-0.14 v 1.25 h -1.33 c -3.49,0 -3.49,0.45 -3.49,1.61 z"
           id="path13708"
           inkscape:connector-curvature="0"
           style="fill:#000000;stroke-width:0" /><polyline
           points="579,418 598.92,418 598.92,420.04 579,420.04 "
           id="polyline13710"
           style="fill:#000000;fill-rule:nonzero;stroke-width:0" /><path
           d="m 596.35,395.38 h -1.18 c -0.1,-0.76 -0.45,-2.83 -0.91,-3.17 -0.26,-0.2 -2.95,-0.2 -3.44,-0.2 h -6.42 c 3.66,3.23 4.88,4.2 6.97,5.84 2.58,2.06 4.98,4.22 4.98,7.53 0,4.22 -3.68,6.8 -8.15,6.8 -4.31,0 -7.25,-3.03 -7.25,-6.23 0,-1.79 1.5,-1.96 1.86,-1.96 0.83,0 1.84,0.6 1.84,1.85 0,0.62 -0.25,1.84 -2.06,1.84 1.08,2.47 3.45,3.23 5.09,3.23 3.49,0 5.3,-2.7 5.3,-5.53 0,-3.03 -2.16,-5.43 -3.28,-6.68 l -8.39,-8.3 c -0.36,-0.31 -0.36,-0.39 -0.36,-1.36 h 14.36 z"
           id="path13712"
           inkscape:connector-curvature="0"
           style="fill:#000000;stroke-width:0" /></g>    </g>
    <g
       id="g14090"
       transform="translate(1477.9898,218.30588)">
      <g
         word-spacing="normal"
         letter-spacing="normal"
         font-size-adjust="none"
         font-stretch="normal"
         font-weight="normal"
         font-variant="normal"
         font-style="normal"
         stroke-miterlimit="10.433"
         xml:space="preserve"
         transform="matrix(1.596932,0,0,-1.596932,-279.4631,1848.4234)"
         id="g14092"
         style="font-style:normal;font-variant:normal;font-weight:normal;font-stretch:normal;letter-spacing:normal;word-spacing:normal;text-anchor:start;fill:none;stroke:#000000;stroke-linecap:butt;stroke-linejoin:miter;stroke-miterlimit:10.43299961;stroke-opacity:1;stroke-dasharray:none;stroke-dashoffset:0"><path
           id="path14094"
           d="m 474.1,425.03 -0.09,0.17 -0.09,0.17 -0.09,0.16 -0.09,0.16 -0.1,0.16 -0.1,0.16 -0.11,0.15 -0.11,0.14 -0.11,0.15 -0.12,0.13 -0.12,0.14 -0.12,0.13 -0.13,0.12 -0.13,0.12 -0.14,0.11 -0.14,0.11 -0.14,0.11 -0.15,0.09 -0.15,0.1 -0.15,0.08 -0.16,0.08 -0.17,0.08 -0.17,0.06 -0.17,0.07 -0.17,0.05 -0.18,0.05 -0.19,0.04 -0.19,0.03 -0.19,0.03 -0.2,0.02 -0.2,0.01 -0.21,0 0.05,-1.09 c 3.23,0 3.93,-4.08 3.93,-4.37 0,-0.32 -0.09,-0.61 -0.14,-0.86 l -2.5,-9.77 c -0.25,-0.89 -0.25,-0.98 -1,-1.84 -2.18,-2.74 -4.23,-3.53 -5.62,-3.53 -2.49,0 -3.19,2.73 -3.19,4.68 0,2.49 1.59,8.61 2.74,10.91 1.54,2.94 3.79,4.78 5.78,4.78 l -0.05,1.09 c -5.83,0 -12,-7.31 -12,-14.59 0,-4.69 2.73,-7.97 6.62,-7.97 0.99,0 3.49,0.21 6.47,3.74 0.41,-2.1 2.14,-3.74 4.53,-3.74 1.75,0 2.9,1.14 3.69,2.74 0.85,1.79 1.5,4.84 1.5,4.93 0,0.5 -0.45,0.5 -0.59,0.5 -0.5,0 -0.55,-0.2 -0.7,-0.9 -0.85,-3.24 -1.75,-6.17 -3.79,-6.17 -1.34,0 -1.5,1.29 -1.5,2.29 0,1.1 0.1,1.49 0.64,3.69 0.57,2.09 0.66,2.59 1.11,4.48 l 1.79,6.97 c 0.35,1.39 0.35,1.5 0.35,1.69 0,0.86 -0.6,1.36 -1.45,1.36 -1.19,0 -1.94,-1.11 -2.09,-2.2 z"
           inkscape:connector-curvature="0"
           style="fill:#000000;stroke-width:0" /><path
           id="path14096"
           d="m 492.71,421.9 0,0.01 0,0 0,0 0,0.01 0.01,0 0,0.01 0,0.01 0,0 0,0.01 0.01,0.01 0,0.01 0.01,0.02 0,0.02 0.01,0.02 0,0.02 0.01,0.02 0.01,0.02 0,0.03 0.01,0.02 0.01,0.05 0.01,0.04 0.01,0.03 0,0.02 0.01,0.02 0,0.02 0.01,0.02 0,0.02 0,0.02 0.01,0.01 0,0.01 0,0.01 0,0 0,0.01 0,0 0.01,0.01 0,0 0,0.01 0,0 0,0 0,0.01 0,0 c 0,0.19 -0.14,0.5 -0.56,0.5 -0.69,0 -3.58,-0.28 -4.46,-0.36 -0.28,-0.03 -0.76,-0.06 -0.76,-0.8 0,-0.48 0.48,-0.48 0.9,-0.48 1.67,0 1.67,-0.25 1.67,-0.53 0,-0.24 -0.07,-0.46 -0.14,-0.77 l -4.92,-19.72 c -0.17,-0.62 -0.17,-0.68 -0.17,-0.76 0,-0.52 0.42,-1.11 1.19,-1.11 0.94,0 1.39,0.69 1.61,1.45 0.06,0.14 1.56,6.28 1.7,6.77 2.47,-0.25 4.45,-1.05 4.45,-2.86 0,-0.17 0,-0.35 -0.06,-0.69 -0.14,-0.53 -0.14,-0.7 -0.14,-1.09 0,-2.47 2.02,-3.58 3.69,-3.58 3.39,0 4.44,5.29 4.44,5.33 0,0.45 -0.46,0.45 -0.57,0.45 -0.48,0 -0.53,-0.17 -0.7,-0.84 -0.41,-1.5 -1.36,-3.97 -3.06,-3.97 -0.94,0 -1.22,0.87 -1.22,1.81 0,0.59 0,0.66 0.2,1.56 0.05,0.11 0.19,0.7 0.19,1.1 0,3.09 -4.19,3.57 -5.66,3.68 1.02,0.63 2.3,1.78 2.89,2.3 1.78,1.67 3.53,3.31 5.47,3.31 0.42,0 0.88,-0.11 1.16,-0.45 -1.5,-0.25 -1.81,-1.42 -1.81,-1.95 0,-0.77 0.59,-1.29 1.39,-1.29 0.95,0 1.98,0.77 1.98,2.22 0,1.16 -0.83,2.44 -2.67,2.44 -1.99,0 -3.8,-1.42 -5.58,-3.06 -1.47,-1.39 -2.61,-2.47 -4.05,-3.06 z"
           inkscape:connector-curvature="0"
           style="fill:#000000;stroke-width:0" /><path
           id="path14098"
           d="m 554.43,422.5 0.14,0 0.15,0 0.14,0 0.07,0.01 0.08,0 0.07,0.01 0.07,0.01 0.07,0.01 0.07,0.01 0.07,0.01 0.06,0.02 0.07,0.02 0.06,0.02 0.06,0.02 0.06,0.03 0.06,0.03 0.05,0.04 0.05,0.03 0.05,0.05 0.04,0.04 0.04,0.05 0.02,0.03 0.02,0.03 0.01,0.02 0.02,0.03 0.01,0.03 0.02,0.04 0.01,0.03 0.01,0.04 0.01,0.03 0.01,0.04 0,0.04 0.01,0.04 0,0.04 0.01,0.04 0,0.04 0,0.05 c 0,1 -0.95,1 -1.64,1 h -29.84 c -0.71,0 -1.64,0 -1.64,-1 0,-0.98 0.93,-0.98 1.68,-0.98 z"
           inkscape:connector-curvature="0"
           style="fill:#000000;stroke-width:0" /><path
           id="path14100"
           d="m 554.48,412.82 0.07,0 0.06,0 0.14,0.01 0.14,0 0.07,0 0.07,0.01 0.07,0.01 0.07,0 0.06,0.01 0.07,0.02 0.07,0.01 0.06,0.02 0.07,0.02 0.06,0.02 0.06,0.02 0.06,0.03 0.05,0.03 0.05,0.04 0.05,0.04 0.05,0.04 0.04,0.05 0.02,0.02 0.02,0.03 0.02,0.02 0.02,0.03 0.01,0.03 0.02,0.03 0.01,0.03 0.02,0.03 0.01,0.04 0.01,0.03 0.01,0.04 0.01,0.04 0,0.04 0.01,0.04 0,0.04 0.01,0.04 0,0.05 0,0.04 c 0,1 -0.95,1 -1.69,1 h -29.75 c -0.75,0 -1.68,0 -1.68,-1 0,-1 0.93,-1 1.64,-1 z"
           inkscape:connector-curvature="0"
           style="fill:#000000;stroke-width:0" /><path
           id="path14102"
           d="m 587.4,438.09 0,0.05 0,0.06 0,0.05 0,0.05 0,0.05 0,0.05 0,0.04 0,0.05 -0.01,0.04 0,0.04 0,0.04 0,0.04 0,0.04 0,0.03 -0.01,0.04 0,0.03 -0.01,0.07 -0.01,0.06 -0.01,0.05 -0.01,0.05 -0.02,0.05 -0.02,0.04 -0.02,0.04 -0.02,0.03 -0.03,0.03 -0.03,0.03 -0.04,0.03 -0.04,0.02 -0.04,0.02 -0.03,0.01 -0.02,0.01 -0.03,0 -0.03,0.01 -0.02,0.01 -0.03,0 -0.03,0.01 -0.04,0 -0.03,0.01 -0.03,0 -0.04,0 -0.04,0.01 -0.04,0 -0.04,0 -0.04,0 -0.04,0 -0.05,0 -0.04,0.01 -0.05,0 -0.05,0 -0.05,0 -0.05,0 c -3.1,-3.19 -7.47,-3.19 -9.06,-3.19 v -1.55 c 1,0 3.93,0 6.51,1.3 v -25.81 c 0,-1.8 -0.14,-2.39 -4.62,-2.39 h -1.6 v -1.55 c 1.75,0.16 6.08,0.16 8.06,0.16 2,0 6.33,0 8.08,-0.16 v 1.55 h -1.59 c -4.49,0 -4.64,0.54 -4.64,2.39 z"
           inkscape:connector-curvature="0"
           style="fill:#000000;stroke-width:0" /></g>    </g>
  </g>
</svg>
