<?xml version="1.0" encoding="UTF-8" standalone="no"?>
<!-- Created with Inkscape (http://www.inkscape.org/) -->

<svg
   xmlns:dc="http://purl.org/dc/elements/1.1/"
   xmlns:cc="http://creativecommons.org/ns#"
   xmlns:rdf="http://www.w3.org/1999/02/22-rdf-syntax-ns#"
   xmlns:svg="http://www.w3.org/2000/svg"
   xmlns="http://www.w3.org/2000/svg"
   xmlns:sodipodi="http://sodipodi.sourceforge.net/DTD/sodipodi-0.dtd"
   xmlns:inkscape="http://www.inkscape.org/namespaces/inkscape"
   width="1172.6479"
   height="218.72516"
   id="svg2"
   version="1.1"
   inkscape:version="0.48.4 r9939"
   sodipodi:docname="conflict_delay_function_maneuver.svg">
  <sodipodi:namedview
     id="base"
     pagecolor="#ffffff"
     bordercolor="#666666"
     borderopacity="1.0"
     inkscape:pageopacity="0.0"
     inkscape:pageshadow="2"
     inkscape:zoom="0.8756437"
     inkscape:cx="607.45581"
     inkscape:cy="79.651071"
     inkscape:document-units="px"
     inkscape:current-layer="layer1"
     showgrid="true"
     showguides="true"
     inkscape:guide-bbox="true"
     inkscape:window-width="1600"
     inkscape:window-height="834"
     inkscape:window-x="0"
     inkscape:window-y="27"
     inkscape:window-maximized="1"
     fit-margin-top="0"
     fit-margin-left="0"
     fit-margin-right="0"
     fit-margin-bottom="0">
    <inkscape:grid
       type="xygrid"
       id="grid5156"
       empspacing="5"
       visible="true"
       enabled="true"
       snapvisiblegridlinesonly="true"
       originx="-7.3520442px"
       originy="136.22334px" />
  </sodipodi:namedview>
  <defs
     id="defs4">
    <marker
       inkscape:stockid="Arrow1Lend"
       orient="auto"
       refY="0"
       refX="0"
       id="Arrow1Lend"
       style="overflow:visible">
      <path
         id="path3762"
         d="M 0,0 5,-5 -12.5,0 5,5 0,0 z"
         style="fill-rule:evenodd;stroke:#000000;stroke-width:1pt"
         transform="matrix(-0.8,0,0,-0.8,-10,0)"
         inkscape:connector-curvature="0" />
    </marker>
    <marker
       style="overflow:visible"
       id="Arrow1Mend"
       refX="0"
       refY="0"
       orient="auto"
       inkscape:stockid="Arrow1Mend">
      <path
         transform="matrix(-0.4,0,0,-0.4,-4,0)"
         style="fill-rule:evenodd;stroke:#000000;stroke-width:1pt"
         d="M 0,0 5,-5 -12.5,0 5,5 0,0 z"
         id="path3768"
         inkscape:connector-curvature="0" />
    </marker>
  </defs>
  <metadata
     id="metadata7">
    <rdf:RDF>
      <cc:Work
         rdf:about="">
        <dc:format>image/svg+xml</dc:format>
        <dc:type
           rdf:resource="http://purl.org/dc/dcmitype/StillImage" />
        <dc:title></dc:title>
      </cc:Work>
    </rdf:RDF>
  </metadata>
  <g
     id="layer1"
     inkscape:groupmode="layer"
     inkscape:label="Ebene 1"
     transform="translate(38.646272,-684.40625)">
    <path
       style="fill:none;stroke:#000000;stroke-width:5;stroke-linecap:butt;stroke-linejoin:miter;stroke-miterlimit:4;stroke-opacity:1;stroke-dasharray:none;marker-end:none"
       d="m 834.00168,896.90808 100,0 0,-80 100.00002,0 0,80 100,0"
       id="path5162"
       inkscape:connector-curvature="0"
       sodipodi:nodetypes="cccccc" />
    <path
       sodipodi:nodetypes="cccccc"
       inkscape:connector-curvature="0"
       id="path4199"
       d="m 34.001684,766.90808 99.999996,0 0,-80 100,0 0,80 100,0"
       style="fill:none;stroke:#000080;stroke-width:5;stroke-linecap:butt;stroke-linejoin:miter;stroke-miterlimit:4;stroke-opacity:1;stroke-dasharray:none;marker-end:none" />
    <path
       style="fill:none;stroke:#000080;stroke-width:5;stroke-linecap:butt;stroke-linejoin:miter;stroke-miterlimit:4;stroke-opacity:1;stroke-dasharray:none;marker-end:none"
       d="m 434.00168,766.90808 100,0 0,-40 100,0 0,40 100,0"
       id="path5158"
       inkscape:connector-curvature="0"
       sodipodi:nodetypes="cccccc" />
    <path
       sodipodi:nodetypes="cc"
       inkscape:connector-curvature="0"
       id="path5160"
       d="m 834.00168,766.90808 c 120,0 220.00002,0 300.00002,0"
       style="fill:none;stroke:#000080;stroke-width:5;stroke-linecap:butt;stroke-linejoin:miter;stroke-miterlimit:4;stroke-opacity:1;stroke-dasharray:none;marker-end:none" />
    <path
       sodipodi:nodetypes="cccccc"
       inkscape:connector-curvature="0"
       id="path5164"
       d="m 434.00168,896.90808 100,0 0,-40 100,0 0,40 100,0"
       style="fill:none;stroke:#000000;stroke-width:5;stroke-linecap:butt;stroke-linejoin:miter;stroke-miterlimit:4;stroke-opacity:1;stroke-dasharray:none;marker-end:none" />
    <path
       style="fill:none;stroke:#000000;stroke-width:5;stroke-linecap:butt;stroke-linejoin:miter;stroke-miterlimit:4;stroke-opacity:1;stroke-dasharray:none;marker-end:none"
       d="m 34.00168,896.90808 c 120,0 220.00002,0 300.00002,0"
       id="path5166"
       inkscape:connector-curvature="0"
       sodipodi:nodetypes="cc" />
    <g
       id="g6168"
       transform="matrix(1.08,0,0,1.08,-22.946634,-38.845512)">
      <path
         style="font-style:normal;font-variant:normal;font-weight:normal;font-stretch:normal;letter-spacing:normal;word-spacing:normal;text-anchor:start;fill:#000000;stroke:#000000;stroke-width:0;stroke-linecap:butt;stroke-linejoin:miter;stroke-miterlimit:10.43299961;stroke-opacity:1;stroke-dasharray:none;stroke-dashoffset:0"
         inkscape:connector-curvature="0"
         id="path6022"
         d="m -2.1805643,703.5267 -0.00794,-0.0706 0,-0.0706 -0.00794,-0.0786 -0.015616,-0.063 -0.00794,-0.0706 -0.023552,-0.0706 -0.015616,-0.063 -0.023552,-0.063 -0.023552,-0.063 -0.031462,-0.063 -0.031462,-0.063 -0.039322,-0.055 -0.031462,-0.055 -0.047181,-0.055 -0.039322,-0.0471 -0.047181,-0.0471 -0.047181,-0.0471 -0.047181,-0.0471 -0.05504,-0.0392 -0.05504,-0.0394 -0.062899,-0.0394 -0.05504,-0.0315 -0.070758,-0.0315 -0.062899,-0.0315 -0.062899,-0.023 -0.070758,-0.023 -0.078618,-0.0154 -0.070758,-0.0154 -0.078643,-0.0154 -0.078618,-0.008 -0.078618,0 -0.086502,-0.008 c -1.0693479,0 -2.1229722,1.02218 -2.1229722,2.0758 0,0.75484 0.5504,1.41532 1.5018061,1.41532 0.8963661,0 2.0757939,-0.89636 2.0757939,-2.0758 z" />
      <path
         style="font-style:normal;font-variant:normal;font-weight:normal;font-stretch:normal;letter-spacing:normal;word-spacing:normal;text-anchor:start;fill:#000000;stroke:#000000;stroke-width:0;stroke-linecap:butt;stroke-linejoin:miter;stroke-miterlimit:10.43299961;stroke-opacity:1;stroke-dasharray:none;stroke-dashoffset:0"
         inkscape:connector-curvature="0"
         id="path6024"
         d="m -4.0381723,715.96086 0.039314,-0.10222 0.039314,-0.0944 0.039314,-0.0944 0.039314,-0.0865 0.031452,-0.0786 0.031451,-0.0786 0.023589,-0.0708 0.031451,-0.0708 0.023589,-0.0708 0.031451,-0.0629 0.023589,-0.0629 0.015726,-0.0629 0.023588,-0.055 0.023589,-0.055 0.039314,-0.11795 0.039314,-0.11008 0.039314,-0.11008 0.023588,-0.055 0.023589,-0.0629 0.023589,-0.0629 0.015726,-0.0629 0.031451,-0.0629 0.023589,-0.0708 0.023589,-0.0786 0.031451,-0.0708 0.023589,-0.0865 0.031451,-0.0865 0.039314,-0.0865 0.031451,-0.10222 c 0.3223772,-0.78628 0.5189486,-1.32096 0.5189486,-2.07579 0,-1.75342 -1.2501943,-3.20019 -3.2159086,-3.20019 -3.6798172,0 -5.1737597,5.66912 -5.1737597,6.03082 0,0.39314 0.393143,0.39314 0.479634,0.39314 0.393143,0 0.424595,-0.0865 0.6211657,-0.71552 1.0614857,-3.68768 2.6183314,-4.85138 3.9550171,-4.85138 0.3145143,0 0.9828572,0 0.9828572,1.25019 0,0.8256 -0.2752,1.6512 -0.44032,2.04434 -0.3066514,1.01431 -2.0757943,5.55118 -2.7048229,7.24956 -0.3774171,1.00644 -0.8963657,2.30381 -0.8963657,3.12941 0,1.83205 1.3288228,3.20805 3.2237714,3.20805 3.6719544,0 5.11872009,-5.67698 5.11872009,-6.03081 0,-0.39314 -0.33810289,-0.39314 -0.46390859,-0.39314 -0.3931429,0 -0.3931429,0.11794 -0.5897143,0.70765 -0.6997943,2.46108 -1.9893029,4.85139 -3.9943314,4.85139 -0.6604801,0 -0.9435429,-0.39315 -0.9435429,-1.28951 0,-0.98286 0.2437486,-1.53326 1.1401143,-3.91571 z" />
    </g>
    <g
       id="g6110"
       transform="matrix(2.7648,0,0,2.7648,-276.28639,-1041.6065)">
      <g
         word-spacing="normal"
         letter-spacing="normal"
         font-size-adjust="none"
         font-stretch="normal"
         font-weight="normal"
         font-variant="normal"
         font-style="normal"
         stroke-miterlimit="10.433"
         xml:space="preserve"
         transform="matrix(0.30714286,0,0,-0.30714286,-53.75,825.00127)"
         id="g6112"
         style="font-style:normal;font-variant:normal;font-weight:normal;font-stretch:normal;letter-spacing:normal;word-spacing:normal;text-anchor:start;fill:none;stroke:#000000;stroke-linecap:butt;stroke-linejoin:miter;stroke-miterlimit:10.43299961;stroke-opacity:1;stroke-dasharray:none;stroke-dashoffset:0"><path
           id="path6114"
           d="m 475.3,437.34 0,0.09 -0.01,0.08 -0.01,0.09 -0.01,0.09 -0.02,0.08 -0.02,0.08 -0.03,0.09 -0.03,0.08 -0.03,0.07 -0.04,0.08 -0.04,0.08 -0.04,0.07 -0.05,0.07 -0.05,0.07 -0.06,0.07 -0.06,0.06 -0.06,0.06 -0.07,0.06 -0.07,0.05 -0.07,0.06 -0.08,0.04 -0.07,0.05 -0.09,0.04 -0.08,0.04 -0.09,0.03 -0.09,0.03 -0.1,0.03 -0.1,0.02 -0.1,0.01 -0.1,0.02 -0.11,0 -0.11,0.01 c -1.16,0 -2.64,-1.16 -2.64,-2.64 0,-1 0.69,-1.8 1.84,-1.8 1.35,0 2.69,1.3 2.69,2.64 z"
           inkscape:connector-curvature="0"
           style="fill:#000000;stroke-width:0" /><path
           id="path6116"
           d="m 465.29,403.71 -0.1,-0.35 -0.1,-0.35 -0.11,-0.34 -0.12,-0.33 -0.12,-0.33 -0.14,-0.32 -0.14,-0.31 -0.14,-0.3 -0.16,-0.3 -0.16,-0.29 -0.16,-0.28 -0.18,-0.26 -0.18,-0.26 -0.18,-0.25 -0.2,-0.24 -0.19,-0.23 -0.2,-0.22 -0.21,-0.2 -0.21,-0.19 -0.22,-0.19 -0.22,-0.16 -0.23,-0.16 -0.23,-0.14 -0.23,-0.13 -0.24,-0.12 -0.24,-0.1 -0.25,-0.08 -0.25,-0.08 -0.25,-0.05 -0.25,-0.04 -0.26,-0.03 -0.26,-0.01 c -0.3,0 -1.05,0 -1.95,0.46 1.5,0.36 2.25,1.64 2.25,2.64 0,0.79 -0.55,1.75 -1.89,1.75 -1.25,0 -2.69,-1.05 -2.69,-2.85 0,-2 1.98,-3.09 4.37,-3.09 3.49,0 8.13,2.64 9.38,7.58 l 4.58,18.23 c 0.25,1 0.25,1.69 0.25,1.85 0,2.84 -2.1,4.57 -4.58,4.57 -5.09,0 -7.92,-7.21 -7.92,-7.67 0,-0.5 0.48,-0.5 0.59,-0.5 0.45,0 0.5,0.07 0.89,1 1.25,3.05 3.55,6.08 6.28,6.08 0.71,0 1.6,-0.2 1.6,-2.28 0,-1.16 -0.16,-1.7 -0.35,-2.55 z"
           inkscape:connector-curvature="0"
           style="fill:#000000;stroke-width:0" /></g>    </g>
  </g>
</svg>
