<?xml version="1.0" encoding="UTF-8" standalone="no"?>
<!-- Created with Inkscape (http://www.inkscape.org/) -->

<svg
   xmlns:dc="http://purl.org/dc/elements/1.1/"
   xmlns:cc="http://creativecommons.org/ns#"
   xmlns:rdf="http://www.w3.org/1999/02/22-rdf-syntax-ns#"
   xmlns:svg="http://www.w3.org/2000/svg"
   xmlns="http://www.w3.org/2000/svg"
   xmlns:sodipodi="http://sodipodi.sourceforge.net/DTD/sodipodi-0.dtd"
   xmlns:inkscape="http://www.inkscape.org/namespaces/inkscape"
   width="849.62909"
   height="429.79657"
   id="svg2"
   version="1.1"
   inkscape:version="0.48.4 r9939"
   sodipodi:docname="icon_departure_delay.svg">
  <sodipodi:namedview
     id="base"
     pagecolor="#ffffff"
     bordercolor="#666666"
     borderopacity="1.0"
     inkscape:pageopacity="0.0"
     inkscape:pageshadow="2"
     inkscape:zoom="0.81967265"
     inkscape:cx="607.7729"
     inkscape:cy="344.06877"
     inkscape:document-units="px"
     inkscape:current-layer="layer1"
     showgrid="false"
     inkscape:window-width="1600"
     inkscape:window-height="834"
     inkscape:window-x="0"
     inkscape:window-y="27"
     inkscape:window-maximized="1"
     fit-margin-top="0"
     fit-margin-left="0"
     fit-margin-right="0"
     fit-margin-bottom="0" />
  <defs
     id="defs4" />
  <metadata
     id="metadata7">
    <rdf:RDF>
      <cc:Work
         rdf:about="">
        <dc:format>image/svg+xml</dc:format>
        <dc:type
           rdf:resource="http://purl.org/dc/dcmitype/StillImage" />
        <dc:title></dc:title>
      </cc:Work>
    </rdf:RDF>
  </metadata>
  <g
     id="layer1"
     inkscape:groupmode="layer"
     inkscape:label="Ebene 1"
     transform="translate(-765.74914,-410.06033)">
    <g
       transform="translate(-200.07768,615.14211)"
       id="g3105">
      <g
         id="g3065">
        <path
           sodipodi:nodetypes="cccccccccccccscccccccscccccccscccccc"
           inkscape:connector-curvature="0"
           d="M 396.31,49.545 C 402.398,31.274 401.259,17.191 392.878,7.29 382.981,-1.086 368.895,-2.224 350.62,3.856 332.347,9.947 315.977,20.224 301.509,34.689 L 245.11808,93.604367 65.973,34.978 C 62.927,34.025 60.072,34.786 57.409,37.26 L 20.862,73.805 c -2.091,2.096 -2.95,4.665 -2.568,7.71 0.571,3.049 2.19,5.33 4.854,6.854 L 168.186,168.025 94.238,241.973 38.85,226.845 c -0.38,-0.192 -1.139,-0.288 -2.282,-0.288 -2.666,0 -4.853,0.855 -6.567,2.57 L 2.594,256.819 c -1.903,2.279 -2.758,4.66 -2.568,7.132 0.378,3.045 1.615,5.235 3.711,6.57 L 81.984127,318.80699 129.642,396.422 c 1.714,2.098 3.999,3.329 6.854,3.716 l 0.571,0 c 2.666,0 4.853,-0.855 6.567,-2.566 l 27.406,-27.404 c 2.474,-2.669 3.236,-5.619 2.286,-8.854 l -15.133,-55.388 73.947,-73.953 79.66,145.046 c 1.14,2.475 3.138,3.997 5.995,4.569 0.568,0.191 1.235,0.284 1.999,0.284 2.279,0 4.09,-0.572 5.421,-1.712 l 36.552,-27.407 c 3.23,-2.663 4.373,-5.801 3.426,-9.418 L 308.80108,155.96603 365.48,98.659 c 14.462,-14.471 24.739,-30.843 30.83,-49.114 z"
           id="path3067" />
      </g>
      <g
         id="g3069" />
      <g
         id="g3071" />
      <g
         id="g3073" />
      <g
         id="g3075" />
      <g
         id="g3077" />
      <g
         id="g3079" />
      <g
         id="g3081" />
      <g
         id="g3083" />
      <g
         id="g3085" />
      <g
         id="g3087" />
      <g
         id="g3089" />
      <g
         id="g3091" />
      <g
         id="g3093" />
      <g
         id="g3095" />
      <g
         id="g3097" />
    </g>
    <g
       transform="matrix(1.1998215,0,0,1.1998215,1221.1853,560.23494)"
       id="g3248">
      <g
         id="g3206">
        <path
           sodipodi:nodetypes="scscsssccsssccssscscssscsssccsccssscscssssssssssssssss"
           inkscape:connector-curvature="0"
           d="m 323.043,190.573 -114.936,0 c 0.06,-1.215 0.101,-6.438 0.101,-7.672 0,-8.579 -1.491,-16.717 -4.142,-24.033 l 47.48,0 c 4.144,0 5.502,-1.359 5.502,-5.502 0,-4.144 -1.359,-5.502 -5.502,-5.502 l -53.366,0 c -6.595,-9.068 -17.448,-19.41 -27.407,-21.559 l 0,-28.572 c 0,-4.144 -1.359,-7.503 -5.502,-7.503 -4.144,0 -5.502,3.359 -5.502,7.503 l 0,28.571 c -9.958,2.148 -20.811,12.49 -27.405,21.559 l -53.369,0 c -4.144,0 -5.502,1.359 -5.502,5.502 0,4.144 1.359,5.502 5.502,5.502 l 45.483,0 c -2.651,7.316 -4.142,15.455 -4.142,24.033 0,1.234 0.041,6.457 0.101,7.672 l -112.935,0 c -4.144,0 -5.502,1.359 -5.502,5.502 0,4.144 1.359,5.503 5.502,5.503 l 41.624,0 c -0.723,2.171 -1.12,4.49 -1.12,6.9 0,12.078 7.827,17.903 19.905,17.903 12.077,0 19.902,-5.826 19.902,-17.903 0,-2.411 -0.397,-4.73 -1.12,-6.9 l 38.097,0 c 10.09802,22.514 20.82,28.738 40.48,28.738 19.661,0 32.51117,-5.27858 40.483,-28.738 l 38.098,0 c -0.723,2.171 -1.12,4.49 -1.12,6.9 0,12.078 7.826,17.903 19.904,17.903 12.077,0 19.902,-5.826 19.902,-17.903 0,-2.411 -0.397,-4.73 -1.12,-6.9 l 41.624,0 c 4.144,0 5.502,-1.359 5.502,-5.503 0.003,-4.142 -1.356,-5.501 -5.5,-5.501 z M 74.808,208.478 c 0,3.804 -3.094,6.898 -6.897,6.898 -3.805,0 -6.9,-3.095 -6.9,-6.898 0,-3.805 3.095,-6.9 6.9,-6.9 3.803,0 6.897,3.095 6.897,6.9 z m 90.463,8.833 c -16.503,0 -29.929,-11.025 -29.929,-34.41 0,-23.384 13.426,-42.408 29.929,-42.408 16.505,0 29.933,19.024 29.933,42.408 0,23.385 -13.428,34.41 -29.933,34.41 z m 104.263,-8.833 c 0,3.804 -3.094,6.898 -6.897,6.898 -3.804,0 -6.899,-3.095 -6.899,-6.898 0,-3.805 3.095,-6.9 6.899,-6.9 3.803,0 6.897,3.095 6.897,6.9 z"
           id="path3208" />
        <path
           sodipodi:nodetypes="sssssss"
           inkscape:connector-curvature="0"
           d="m 178.121,158.264 -26.173,0 c -4.144,0 -6.32023,2.17723 -6.32023,6.32123 0,4.143 2.17723,6.68377 6.32023,6.68377 l 26.173,0 c 4.144,0 6.79394,-2.06806 6.79394,-6.21106 0,-4.144 -2.64994,-6.79394 -6.79394,-6.79394 z"
           id="path3210" />
      </g>
      <g
         id="g3212" />
      <g
         id="g3214" />
      <g
         id="g3216" />
      <g
         id="g3218" />
      <g
         id="g3220" />
      <g
         id="g3222" />
      <g
         id="g3224" />
      <g
         id="g3226" />
      <g
         id="g3228" />
      <g
         id="g3230" />
      <g
         id="g3232" />
      <g
         id="g3234" />
      <g
         id="g3236" />
      <g
         id="g3238" />
      <g
         id="g3240" />
    </g>
    <g
       transform="translate(61.138555,617.46608)"
       id="g3384">
      <path
         sodipodi:nodetypes="ccccccsssssscccccccccccccccccccccccccccccccccccccccccccccccc"
         inkscape:connector-curvature="0"
         d="m 1033.2566,-11.952178 10.773,0 30.328,-59.871 -23.332,-21.688 -66.813,0 0,-30.158002 11.988,0 c 2.127,0 3.852,-1.727 3.852,-3.854 0,-2.127 -1.725,-3.852 -3.852,-3.852 l -30.497,0 c -2.128,0 -3.853,1.725 -3.853,3.852 0,2.127 1.754,3.50382 3.853,3.854 l 11.988,0 0,30.158002 -22.17201,0 -23.333,21.688 30.328,59.871 10.773,0 0,74.029 c -106.28443,0 -188.61538,0 -268.677,0 l 0,160.313998 43.664,0 0,-79.982 57.666,0 0,79.982 258.67001,0 0,-160.313998 -31.354,0 z m -60.67201,-15.164 -14.521,-29.543 28.15,0 0,29.543 z m -160.644,141.858998 -77.334,0 0,-29.331998 77.334,0 z m 108,0 -77.334,0 0,-29.331998 77.334,0 z m 112.00001,0 -77.33401,0 0,-29.331998 77.33401,0 z m -17.926,-141.858998 -21.48201,0 0,-29.543 21.48201,0 z m 6.319,-29.543 28.152,0 -14.522,29.543 -13.631,0 0,-29.543 z"
         id="path3346" />
      <g
         id="g3348" />
      <g
         id="g3350" />
      <g
         id="g3352" />
      <g
         id="g3354" />
      <g
         id="g3356" />
      <g
         id="g3358" />
      <g
         id="g3360" />
      <g
         id="g3362" />
      <g
         id="g3364" />
      <g
         id="g3366" />
      <g
         id="g3368" />
      <g
         id="g3370" />
      <g
         id="g3372" />
      <g
         id="g3374" />
      <g
         id="g3376" />
    </g>
    <g
       transform="matrix(0.36039163,0,0,0.36039163,1304.9398,410.06033)"
       id="g3534">
      <g
         id="g3488">
        <g
           id="g3490">
          <g
             id="g3492">
            <path
               inkscape:connector-curvature="0"
               d="m 200,339.664 0,-19.894 c 0,-5.521 -4.479,-10 -10,-10 -5.522,0 -10,4.479 -10,10 l 0,19.891 c -21.531,-1.424 -41.834,-7.411 -59.949,-17.002 l 8.111,-14.149 c 0.703,-1.226 0.887,-2.651 0.517,-4.018 -0.37,-1.364 -1.249,-2.502 -2.475,-3.205 -0.814,-0.467 -1.697,-0.704 -2.624,-0.704 -1.896,0 -3.66,1.021 -4.603,2.663 l -8.102,14.133 C 92.806,306.113 77.292,291.119 65.428,273.471 l 17.188,-9.923 c 4.782,-2.761 6.421,-8.877 3.659,-13.66 -2.761,-4.781 -8.877,-6.421 -13.659,-3.658 l -17.212,9.937 c -9.056,-18.349 -14.466,-38.8 -15.284,-60.41 l 16.33,-0.05 c 1.414,-0.004 2.741,-0.559 3.737,-1.561 0.996,-1.003 1.543,-2.334 1.538,-3.748 -0.009,-2.91 -2.384,-5.277 -5.293,-5.277 l -16.348,0.05 c 0.699,-21.949 6.136,-42.72 15.319,-61.327 l 17.212,9.937 c 1.574,0.909 3.293,1.341 4.989,1.341 3.456,0 6.818,-1.793 8.67,-5.001 2.762,-4.783 1.123,-10.899 -3.659,-13.66 L 65.427,106.538 C 77.12,89.141 92.36,74.323 110.098,63.114 l 8.188,14.084 c 0.474,0.814 1.124,1.463 1.935,1.929 1.618,0.926 3.669,0.936 5.299,-0.013 1.224,-0.711 2.097,-1.856 2.458,-3.223 0.362,-1.366 0.169,-2.791 -0.541,-4.013 l -8.198,-14.102 c 18.319,-9.843 38.907,-15.984 60.76,-17.43 l 0,19.889 c 0,5.522 4.478,10 10,10 5.521,0 10,-4.478 10,-10 l 0,-19.889 c 21.53,1.424 41.832,7.41 59.947,17.001 l -8.111,14.149 c -1.451,2.532 -0.572,5.773 1.959,7.224 0.813,0.466 1.696,0.703 2.624,0.703 1.897,0 3.66,-1.02 4.6,-2.661 l 8.104,-14.135 c 18.071,11.265 33.585,26.261 45.449,43.909 l -17.188,9.923 c -4.783,2.761 -6.421,8.877 -3.659,13.66 1.854,3.208 5.214,5.001 8.67,5.001 1.696,0 3.416,-0.432 4.989,-1.341 l 17.212,-9.938 c 9.058,18.348 14.466,38.8 15.284,60.41 l -16.33,0.05 c -1.414,0.004 -2.741,0.559 -3.735,1.561 -0.996,1.003 -1.543,2.333 -1.538,3.747 0.006,1.887 1.026,3.642 2.668,4.583 0.794,0.455 1.699,0.693 2.623,0.693 l 0.017,0 16.93143,2.3437 40.083,-4.835 C 380.59843,87.626701 294.767,0 190,0 85.232,0 0,85.234 0,190 0,294.766 85.232,380 190,380"
               id="path3494"
               sodipodi:nodetypes="cssscccccscccccccccccccccscccccccccccsssccccscccccscccccccscccssc" />
            <path
               inkscape:connector-curvature="0"
               d="m 263.906,135.775 -64.142,35.588 c -2.92,-1.533 -6.237,-2.412 -9.767,-2.412 -3.528,0 -6.846,0.878 -9.766,2.412 L 116.09,135.775 c -6.064,-3.366 -13.711,-1.176 -17.078,4.889 -3.364,6.065 -1.176,13.711 4.891,17.077 l 65.443,36.311 c 1.891,9.686 10.412,16.997 20.65,16.997 10.238,0 18.76,-7.312 20.65,-16.997 l 65.441,-36.311 c 6.066,-3.365 8.254,-11.011 4.891,-17.077 -3.36,-6.066 -11.005,-8.255 -17.072,-4.889 z"
               id="path3496" />
            <path
               sodipodi:nodetypes="cccssscccccscccccccccccccccscccccccccccsssccccscccccscccccccscccssc"
               id="path4623"
               d="m 236.50394,374.37266 2.39369,-38.48531 -38.89763,5.19973 0,-9.947 c 0,-5.521 -4.479,-21.37008 -10,-21.37008 -5.522,0 -10,4.479 -10,10 l 0,19.891 c -21.531,-1.424 -41.834,-7.411 -59.949,-17.002 l 8.111,-14.149 c 0.703,-1.226 0.887,-2.651 0.517,-4.018 -0.37,-1.364 -1.249,-2.502 -2.475,-3.205 -0.814,-0.467 -1.697,-0.704 -2.624,-0.704 -1.896,0 -3.66,1.021 -4.603,2.663 l -8.102,14.133 C 92.806,306.113 77.292,291.119 65.428,273.471 l 17.188,-9.923 c 4.782,-2.761 6.421,-8.877 3.659,-13.66 -2.761,-4.781 -8.877,-6.421 -13.659,-3.658 l -17.212,9.937 c -9.056,-18.349 -14.466,-38.8 -15.284,-60.41 l 16.33,-0.05 c 1.414,-0.004 2.741,-0.559 3.737,-1.561 0.996,-1.003 1.543,-2.334 1.538,-3.748 -0.009,-2.91 -2.384,-5.277 -5.293,-5.277 l -16.348,0.05 c 0.699,-21.949 6.136,-42.72 15.319,-61.327 l 17.212,9.937 c 1.574,0.909 3.293,1.341 4.989,1.341 3.456,0 6.818,-1.793 8.67,-5.001 2.762,-4.783 1.123,-10.899 -3.659,-13.66 L 65.427,106.538 C 77.12,89.141 92.36,74.323 110.098,63.114 l 8.188,14.084 c 0.474,0.814 1.124,1.463 1.935,1.929 1.618,0.926 3.669,0.936 5.299,-0.013 1.224,-0.711 2.097,-1.856 2.458,-3.223 0.362,-1.366 0.169,-2.791 -0.541,-4.013 l -8.198,-14.102 c 18.319,-9.843 38.907,-15.984 60.76,-17.43 l 0,19.889 c 0,5.522 4.478,10 10,10 5.521,0 10,-4.478 10,-10 l 0,-19.889 c 21.53,1.424 41.832,7.41 59.947,17.001 l -8.111,14.149 c -1.451,2.532 -0.572,5.773 1.959,7.224 0.813,0.466 1.696,0.703 2.624,0.703 1.897,0 3.66,-1.02 4.6,-2.661 l 8.104,-14.135 c 18.071,11.265 33.585,26.261 45.449,43.909 l -17.188,9.923 c -4.783,2.761 -6.421,8.877 -3.659,13.66 1.854,3.208 5.214,5.001 8.67,5.001 1.696,0 3.416,-0.432 4.989,-1.341 l 17.212,-9.938 c 9.058,18.348 14.466,38.8 15.284,60.41 l -16.33,0.05 c -1.414,0.004 -2.741,0.559 -3.735,1.561 -0.996,1.003 -1.543,2.333 -1.538,3.747 0.006,1.887 1.026,3.642 2.668,4.583 0.794,0.455 1.699,0.693 2.623,0.693 l 0.017,0 16.93143,2.3437 40.083,-4.835 C 380.59843,87.626701 294.767,0 190,0 85.232,0 0,85.234 0,190 0,294.766 85.232,380 190,380"
               inkscape:connector-curvature="0" />
          </g>
        </g>
      </g>
      <g
         id="g3498" />
      <g
         id="g3500" />
      <g
         id="g3502" />
      <g
         id="g3504" />
      <g
         id="g3506" />
      <g
         id="g3508" />
      <g
         id="g3510" />
      <g
         id="g3512" />
      <g
         id="g3514" />
      <g
         id="g3516" />
      <g
         id="g3518" />
      <g
         id="g3520" />
      <g
         id="g3522" />
      <g
         id="g3524" />
      <g
         id="g3526" />
    </g>
    <path
       sodipodi:type="arc"
       style="fill:none;stroke:#000000;stroke-width:10;stroke-miterlimit:4;stroke-opacity:1;stroke-dasharray:none;stroke-dashoffset:0"
       id="path4506"
       sodipodi:cx="1315.6235"
       sodipodi:cy="574.16571"
       sodipodi:rx="45.48698"
       sodipodi:ry="45.48698"
       d="m 1361.1105,574.16571 a 45.48698,45.48698 0 1 1 -90.9739,0 45.48698,45.48698 0 1 1 90.9739,0 z"
       transform="matrix(1.3848009,0,0,1.3848009,-368.38098,-249.08227)" />
    <g
       id="g3642"
       transform="matrix(1.8875381,0,0,1.8875381,864.03554,-96.235818)">
      <g
         word-spacing="normal"
         letter-spacing="normal"
         font-size-adjust="none"
         font-stretch="normal"
         font-weight="normal"
         font-variant="normal"
         font-style="normal"
         stroke-miterlimit="10.433"
         xml:space="preserve"
         transform="matrix(1.0629921,0,0,-1.0629921,-186.02362,789.27165)"
         id="content"
         style="font-style:normal;font-variant:normal;font-weight:normal;font-stretch:normal;letter-spacing:normal;word-spacing:normal;text-anchor:start;fill:none;stroke:#000000;stroke-linecap:butt;stroke-linejoin:miter;stroke-miterlimit:10.43299961;stroke-opacity:1;stroke-dasharray:none;stroke-dashoffset:0"><path
           id="path3645"
           d="m 467.18,422.09 v -14.84 h 1.54 v 14.45 c 5.99,-1.25 6.33,-6.08 6.33,-7.28 0,-3.35 -2.39,-6.67 -6.33,-7.17 h -1.54 c -4.38,0.25 -6.72,2.79 -7.38,5.87 0.2,-0.05 0.59,-0.09 0.8,-0.09 1.34,0 2.29,0.93 2.29,2.29 0,1.39 -1.04,2.29 -2.29,2.29 -0.3,0 -2.28,-0.1 -2.28,-2.54 0,-4.43 2.64,-9.03 8.86,-9.42 v -2.25 h 1.54 v 2.3 c 5.24,0.45 8.88,5.08 8.88,10.22 0,4.12 -2.25,6.67 -2.71,7.12 -1.98,2.19 -3.78,2.64 -6.17,3.24 v 13.45 h -1.54 v -13.05 c -6.13,1.28 -6.33,5.58 -6.33,6.57 0,3 2.34,6.07 6.33,6.48 h 1.54 c 4.24,-0.2 6.63,-2.39 7.38,-5.19 -0.21,0.05 -0.3,0.11 -0.8,0.11 -1.3,0 -2.3,-0.9 -2.3,-2.29 0,-1.55 1.25,-2.3 2.3,-2.3 0.14,0 2.3,0.06 2.3,2.5 0,4.83 -3.3,8.47 -8.88,8.76 v 2.24 h -1.54 v -2.28 c -5.54,-0.5 -8.86,-4.99 -8.86,-9.52 0,-3.44 1.84,-5.83 2.73,-6.69 1.89,-1.93 3.59,-2.32 6.13,-2.98 z"
           inkscape:connector-curvature="0"
           style="fill:#000000;stroke-width:0" /></g>    </g>
  </g>
</svg>
