<?xml version="1.0" encoding="UTF-8" standalone="no"?>
<!-- Created with Inkscape (http://www.inkscape.org/) -->

<svg
   xmlns:dc="http://purl.org/dc/elements/1.1/"
   xmlns:cc="http://creativecommons.org/ns#"
   xmlns:rdf="http://www.w3.org/1999/02/22-rdf-syntax-ns#"
   xmlns:svg="http://www.w3.org/2000/svg"
   xmlns="http://www.w3.org/2000/svg"
   xmlns:sodipodi="http://sodipodi.sourceforge.net/DTD/sodipodi-0.dtd"
   xmlns:inkscape="http://www.inkscape.org/namespaces/inkscape"
   width="3665.7812"
   height="662.78302"
   id="svg2"
   version="1.1"
   inkscape:version="0.48.4 r9939"
   sodipodi:docname="icon_pairwise_conflicts.svg">
  <sodipodi:namedview
     id="base"
     pagecolor="#ffffff"
     bordercolor="#666666"
     borderopacity="1.0"
     inkscape:pageopacity="0.0"
     inkscape:pageshadow="2"
     inkscape:zoom="0.17793534"
     inkscape:cx="634.85832"
     inkscape:cy="378.75314"
     inkscape:document-units="px"
     inkscape:current-layer="layer1"
     showgrid="true"
     inkscape:window-width="1600"
     inkscape:window-height="834"
     inkscape:window-x="0"
     inkscape:window-y="27"
     inkscape:window-maximized="1"
     fit-margin-top="0"
     fit-margin-left="0"
     fit-margin-right="0"
     fit-margin-bottom="0"
     objecttolerance="10000">
    <inkscape:grid
       type="xygrid"
       id="grid4663"
       empspacing="5"
       visible="true"
       enabled="true"
       snapvisiblegridlinesonly="true"
       spacingx="5px"
       spacingy="5px"
       originx="415.15539px"
       originy="179.98684px" />
  </sodipodi:namedview>
  <defs
     id="defs4">
    <marker
       inkscape:stockid="Arrow1Mend"
       orient="auto"
       refY="0"
       refX="0"
       id="Arrow1Mend"
       style="overflow:visible">
      <path
         id="path4684"
         d="M 0,0 5,-5 -12.5,0 5,5 0,0 z"
         style="fill-rule:evenodd;stroke:#000000;stroke-width:1pt"
         transform="matrix(-0.4,0,0,-0.4,-4,0)"
         inkscape:connector-curvature="0" />
    </marker>
    <marker
       inkscape:stockid="Arrow1Lend"
       orient="auto"
       refY="0"
       refX="0"
       id="Arrow1Lend"
       style="overflow:visible">
      <path
         id="path4678"
         d="M 0,0 5,-5 -12.5,0 5,5 0,0 z"
         style="fill-rule:evenodd;stroke:#000000;stroke-width:1pt"
         transform="matrix(-0.8,0,0,-0.8,-10,0)"
         inkscape:connector-curvature="0" />
    </marker>
    <marker
       inkscape:stockid="Arrow1MendV"
       orient="auto"
       refY="0"
       refX="0"
       id="Arrow1MendV"
       style="overflow:visible">
      <path
         id="path5985"
         d="M 0,0 5,-5 -12.5,0 5,5 0,0 z"
         style="fill:#008000;fill-rule:evenodd;stroke:#008000;stroke-width:1pt"
         transform="matrix(-0.4,0,0,-0.4,-4,0)"
         inkscape:connector-curvature="0" />
    </marker>
    <marker
       inkscape:stockid="Arrow1Mendn"
       orient="auto"
       refY="0"
       refX="0"
       id="Arrow1Mendn"
       style="overflow:visible">
      <path
         id="path6147"
         d="M 0,0 5,-5 -12.5,0 5,5 0,0 z"
         style="fill:#ff0000;fill-rule:evenodd;stroke:#ff0000;stroke-width:1pt"
         transform="matrix(-0.4,0,0,-0.4,-4,0)"
         inkscape:connector-curvature="0" />
    </marker>
  </defs>
  <metadata
     id="metadata7">
    <rdf:RDF>
      <cc:Work
         rdf:about="">
        <dc:format>image/svg+xml</dc:format>
        <dc:type
           rdf:resource="http://purl.org/dc/dcmitype/StillImage" />
        <dc:title />
      </cc:Work>
    </rdf:RDF>
  </metadata>
  <g
     id="layer1"
     inkscape:groupmode="layer"
     inkscape:label="Ebene 1"
     transform="translate(-350.59375,-357.06073)">
    <path
       style="fill:none;stroke:#000000;stroke-width:10;stroke-linecap:butt;stroke-linejoin:miter;stroke-miterlimit:4;stroke-opacity:1;stroke-dasharray:none;marker-end:url(#Arrow1Mend)"
       d="m 654.83281,1019.8569 0,-629.47461"
       id="path5301"
       inkscape:connector-curvature="0"
       sodipodi:nodetypes="cc" />
    <g
       id="g5489"
       transform="matrix(0.20539195,-0.20539195,0.20539195,0.20539195,573.8575,932.41892)">
      <path
         sodipodi:nodetypes="cccccccccccccscccccccscccccccscccccc"
         inkscape:connector-curvature="0"
         d="M 396.31,49.545 C 402.398,31.274 401.259,17.191 392.878,7.29 382.981,-1.086 368.895,-2.224 350.62,3.856 332.347,9.947 315.977,20.224 301.509,34.689 L 245.11808,93.604367 65.973,34.978 C 62.927,34.025 60.072,34.786 57.409,37.26 L 20.862,73.805 c -2.091,2.096 -2.95,4.665 -2.568,7.71 0.571,3.049 2.19,5.33 4.854,6.854 L 168.186,168.025 94.238,241.973 38.85,226.845 c -0.38,-0.192 -1.139,-0.288 -2.282,-0.288 -2.666,0 -4.853,0.855 -6.567,2.57 L 2.594,256.819 c -1.903,2.279 -2.758,4.66 -2.568,7.132 0.378,3.045 1.615,5.235 3.711,6.57 L 81.984127,318.80699 129.642,396.422 c 1.714,2.098 3.999,3.329 6.854,3.716 l 0.571,0 c 2.666,0 4.853,-0.855 6.567,-2.566 l 27.406,-27.404 c 2.474,-2.669 3.236,-5.619 2.286,-8.854 l -15.133,-55.388 73.947,-73.953 79.66,145.046 c 1.14,2.475 3.138,3.997 5.995,4.569 0.568,0.191 1.235,0.284 1.999,0.284 2.279,0 4.09,-0.572 5.421,-1.712 l 36.552,-27.407 c 3.23,-2.663 4.373,-5.801 3.426,-9.418 L 308.80108,155.96603 365.48,98.659 c 14.462,-14.471 24.739,-30.843 30.83,-49.114 z"
         id="path5491" />
    </g>
    <g
       id="g5493"
       transform="matrix(0.20539195,-0.20539195,0.20539195,0.20539195,723.8575,932.41892)" />
    <g
       id="g5495"
       transform="matrix(0.20539195,-0.20539195,0.20539195,0.20539195,723.8575,932.41892)" />
    <g
       id="g5497"
       transform="matrix(0.20539195,-0.20539195,0.20539195,0.20539195,723.8575,932.41892)" />
    <g
       id="g5499"
       transform="matrix(0.20539195,-0.20539195,0.20539195,0.20539195,723.8575,932.41892)" />
    <g
       id="g5501"
       transform="matrix(0.20539195,-0.20539195,0.20539195,0.20539195,723.8575,932.41892)" />
    <g
       id="g5503"
       transform="matrix(0.20539195,-0.20539195,0.20539195,0.20539195,723.8575,932.41892)" />
    <g
       id="g5505"
       transform="matrix(0.20539195,-0.20539195,0.20539195,0.20539195,723.8575,932.41892)" />
    <g
       id="g5507"
       transform="matrix(0.20539195,-0.20539195,0.20539195,0.20539195,723.8575,932.41892)" />
    <g
       id="g5509"
       transform="matrix(0.20539195,-0.20539195,0.20539195,0.20539195,723.8575,932.41892)" />
    <g
       id="g5511"
       transform="matrix(0.20539195,-0.20539195,0.20539195,0.20539195,723.8575,932.41892)" />
    <g
       id="g5513"
       transform="matrix(0.20539195,-0.20539195,0.20539195,0.20539195,723.8575,932.41892)" />
    <g
       id="g5515"
       transform="matrix(0.20539195,-0.20539195,0.20539195,0.20539195,723.8575,932.41892)" />
    <g
       id="g5517"
       transform="matrix(0.20539195,-0.20539195,0.20539195,0.20539195,723.8575,932.41892)" />
    <g
       id="g5519"
       transform="matrix(0.20539195,-0.20539195,0.20539195,0.20539195,723.8575,932.41892)" />
    <g
       id="g5521"
       transform="matrix(0.20539195,-0.20539195,0.20539195,0.20539195,723.8575,932.41892)" />
    <path
       inkscape:connector-curvature="0"
       id="path5603"
       d="M 983.194,977.32526 523.9526,449.02853"
       style="fill:#ff0000;stroke:#ff0000;stroke-width:10;stroke-linecap:butt;stroke-linejoin:miter;stroke-miterlimit:4;stroke-opacity:1;stroke-dasharray:none;marker-end:url(#Arrow1Mendn)" />
    <g
       id="g5607"
       style="fill:#ff0000;stroke:#ff0000"
       transform="matrix(0.02026203,-0.28976053,0.28976053,0.02026203,838.95089,934.81953)">
      <path
         id="path5609"
         d="M 396.31,49.545 C 402.398,31.274 401.259,17.191 392.878,7.29 382.981,-1.086 368.895,-2.224 350.62,3.856 332.347,9.947 315.977,20.224 301.509,34.689 L 245.11808,93.604367 65.973,34.978 C 62.927,34.025 60.072,34.786 57.409,37.26 L 20.862,73.805 c -2.091,2.096 -2.95,4.665 -2.568,7.71 0.571,3.049 2.19,5.33 4.854,6.854 L 168.186,168.025 94.238,241.973 38.85,226.845 c -0.38,-0.192 -1.139,-0.288 -2.282,-0.288 -2.666,0 -4.853,0.855 -6.567,2.57 L 2.594,256.819 c -1.903,2.279 -2.758,4.66 -2.568,7.132 0.378,3.045 1.615,5.235 3.711,6.57 L 81.984127,318.80699 129.642,396.422 c 1.714,2.098 3.999,3.329 6.854,3.716 l 0.571,0 c 2.666,0 4.853,-0.855 6.567,-2.566 l 27.406,-27.404 c 2.474,-2.669 3.236,-5.619 2.286,-8.854 l -15.133,-55.388 73.947,-73.953 79.66,145.046 c 1.14,2.475 3.138,3.997 5.995,4.569 0.568,0.191 1.235,0.284 1.999,0.284 2.279,0 4.09,-0.572 5.421,-1.712 l 36.552,-27.407 c 3.23,-2.663 4.373,-5.801 3.426,-9.418 L 308.80108,155.96603 365.48,98.659 c 14.462,-14.471 24.739,-30.843 30.83,-49.114 z"
         inkscape:connector-curvature="0"
         sodipodi:nodetypes="cccccccccccccscccccccscccccccscccccc"
         style="fill:#ff0000;stroke:#ff0000" />
    </g>
    <g
       id="g5611"
       style="fill:#ff0000;stroke:#ff0000"
       transform="matrix(0.02026203,-0.28976053,0.28976053,0.02026203,988.95089,934.81953)" />
    <g
       id="g5613"
       style="fill:#ff0000;stroke:#ff0000"
       transform="matrix(0.02026203,-0.28976053,0.28976053,0.02026203,988.95089,934.81953)" />
    <g
       id="g5615"
       style="fill:#ff0000;stroke:#ff0000"
       transform="matrix(0.02026203,-0.28976053,0.28976053,0.02026203,988.95089,934.81953)" />
    <g
       id="g5617"
       style="fill:#ff0000;stroke:#ff0000"
       transform="matrix(0.02026203,-0.28976053,0.28976053,0.02026203,988.95089,934.81953)" />
    <g
       id="g5619"
       style="fill:#ff0000;stroke:#ff0000"
       transform="matrix(0.02026203,-0.28976053,0.28976053,0.02026203,988.95089,934.81953)" />
    <g
       id="g5621"
       style="fill:#ff0000;stroke:#ff0000"
       transform="matrix(0.02026203,-0.28976053,0.28976053,0.02026203,988.95089,934.81953)" />
    <g
       id="g5623"
       style="fill:#ff0000;stroke:#ff0000"
       transform="matrix(0.02026203,-0.28976053,0.28976053,0.02026203,988.95089,934.81953)" />
    <g
       id="g5625"
       style="fill:#ff0000;stroke:#ff0000"
       transform="matrix(0.02026203,-0.28976053,0.28976053,0.02026203,988.95089,934.81953)" />
    <g
       id="g5627"
       style="fill:#ff0000;stroke:#ff0000"
       transform="matrix(0.02026203,-0.28976053,0.28976053,0.02026203,988.95089,934.81953)" />
    <g
       id="g5629"
       style="fill:#ff0000;stroke:#ff0000"
       transform="matrix(0.02026203,-0.28976053,0.28976053,0.02026203,988.95089,934.81953)" />
    <g
       id="g5631"
       style="fill:#ff0000;stroke:#ff0000"
       transform="matrix(0.02026203,-0.28976053,0.28976053,0.02026203,988.95089,934.81953)" />
    <g
       id="g5633"
       style="fill:#ff0000;stroke:#ff0000"
       transform="matrix(0.02026203,-0.28976053,0.28976053,0.02026203,988.95089,934.81953)" />
    <g
       id="g5635"
       style="fill:#ff0000;stroke:#ff0000"
       transform="matrix(0.02026203,-0.28976053,0.28976053,0.02026203,988.95089,934.81953)" />
    <g
       id="g5637"
       style="fill:#ff0000;stroke:#ff0000"
       transform="matrix(0.02026203,-0.28976053,0.28976053,0.02026203,988.95089,934.81953)" />
    <g
       id="g5639"
       style="fill:#ff0000;stroke:#ff0000"
       transform="matrix(0.02026203,-0.28976053,0.28976053,0.02026203,988.95089,934.81953)" />
    <path
       inkscape:connector-curvature="0"
       id="path5643"
       d="M 353.86354,828.8492 882.1603,369.60786"
       style="fill:#008000;stroke:#008000;stroke-width:10;stroke-linecap:butt;stroke-linejoin:miter;stroke-miterlimit:4;stroke-opacity:1;stroke-dasharray:none;marker-end:url(#Arrow1MendV)" />
    <g
       id="g5647"
       style="fill:#008000;stroke:#008000"
       transform="matrix(0.28976052,0.02026203,-0.02026203,0.28976052,396.36927,684.60619)">
      <path
         id="path5649"
         d="M 396.31,49.545 C 402.398,31.274 401.259,17.191 392.878,7.29 382.981,-1.086 368.895,-2.224 350.62,3.856 332.347,9.947 315.977,20.224 301.509,34.689 L 245.11808,93.604367 65.973,34.978 C 62.927,34.025 60.072,34.786 57.409,37.26 L 20.862,73.805 c -2.091,2.096 -2.95,4.665 -2.568,7.71 0.571,3.049 2.19,5.33 4.854,6.854 L 168.186,168.025 94.238,241.973 38.85,226.845 c -0.38,-0.192 -1.139,-0.288 -2.282,-0.288 -2.666,0 -4.853,0.855 -6.567,2.57 L 2.594,256.819 c -1.903,2.279 -2.758,4.66 -2.568,7.132 0.378,3.045 1.615,5.235 3.711,6.57 L 81.984127,318.80699 129.642,396.422 c 1.714,2.098 3.999,3.329 6.854,3.716 l 0.571,0 c 2.666,0 4.853,-0.855 6.567,-2.566 l 27.406,-27.404 c 2.474,-2.669 3.236,-5.619 2.286,-8.854 l -15.133,-55.388 73.947,-73.953 79.66,145.046 c 1.14,2.475 3.138,3.997 5.995,4.569 0.568,0.191 1.235,0.284 1.999,0.284 2.279,0 4.09,-0.572 5.421,-1.712 l 36.552,-27.407 c 3.23,-2.663 4.373,-5.801 3.426,-9.418 L 308.80108,155.96603 365.48,98.659 c 14.462,-14.471 24.739,-30.843 30.83,-49.114 z"
         inkscape:connector-curvature="0"
         sodipodi:nodetypes="cccccccccccccscccccccscccccccscccccc"
         style="fill:#008000;stroke:#008000" />
    </g>
    <g
       id="g5651"
       style="fill:#008000;stroke:#008000"
       transform="matrix(0.28976052,0.02026203,-0.02026203,0.28976052,546.36927,684.60619)" />
    <g
       id="g5653"
       style="fill:#008000;stroke:#008000"
       transform="matrix(0.28976052,0.02026203,-0.02026203,0.28976052,546.36927,684.60619)" />
    <g
       id="g5655"
       style="fill:#008000;stroke:#008000"
       transform="matrix(0.28976052,0.02026203,-0.02026203,0.28976052,546.36927,684.60619)" />
    <g
       id="g5657"
       style="fill:#008000;stroke:#008000"
       transform="matrix(0.28976052,0.02026203,-0.02026203,0.28976052,546.36927,684.60619)" />
    <g
       id="g5659"
       style="fill:#008000;stroke:#008000"
       transform="matrix(0.28976052,0.02026203,-0.02026203,0.28976052,546.36927,684.60619)" />
    <g
       id="g5661"
       style="fill:#008000;stroke:#008000"
       transform="matrix(0.28976052,0.02026203,-0.02026203,0.28976052,546.36927,684.60619)" />
    <g
       id="g5663"
       style="fill:#008000;stroke:#008000"
       transform="matrix(0.28976052,0.02026203,-0.02026203,0.28976052,546.36927,684.60619)" />
    <g
       id="g5665"
       style="fill:#008000;stroke:#008000"
       transform="matrix(0.28976052,0.02026203,-0.02026203,0.28976052,546.36927,684.60619)" />
    <g
       id="g5667"
       style="fill:#008000;stroke:#008000"
       transform="matrix(0.28976052,0.02026203,-0.02026203,0.28976052,546.36927,684.60619)" />
    <g
       id="g5669"
       style="fill:#008000;stroke:#008000"
       transform="matrix(0.28976052,0.02026203,-0.02026203,0.28976052,546.36927,684.60619)" />
    <g
       id="g5671"
       style="fill:#008000;stroke:#008000"
       transform="matrix(0.28976052,0.02026203,-0.02026203,0.28976052,546.36927,684.60619)" />
    <g
       id="g5673"
       style="fill:#008000;stroke:#008000"
       transform="matrix(0.28976052,0.02026203,-0.02026203,0.28976052,546.36927,684.60619)" />
    <g
       id="g5675"
       style="fill:#008000;stroke:#008000"
       transform="matrix(0.28976052,0.02026203,-0.02026203,0.28976052,546.36927,684.60619)" />
    <g
       id="g5677"
       style="fill:#008000;stroke:#008000"
       transform="matrix(0.28976052,0.02026203,-0.02026203,0.28976052,546.36927,684.60619)" />
    <g
       id="g5679"
       style="fill:#008000;stroke:#008000"
       transform="matrix(0.28976052,0.02026203,-0.02026203,0.28976052,546.36927,684.60619)" />
    <path
       sodipodi:nodetypes="cc"
       inkscape:connector-curvature="0"
       id="path6705"
       d="m 1961.5163,1019.8569 0,-629.47461"
       style="fill:none;stroke:#000000;stroke-width:10;stroke-linecap:butt;stroke-linejoin:miter;stroke-miterlimit:4;stroke-opacity:1;stroke-dasharray:none;marker-end:url(#Arrow1Mend)" />
    <g
       id="g6709"
       transform="matrix(0.20539195,-0.20539195,0.20539195,0.20539195,1880.541,932.41892)">
      <path
         id="path6711"
         d="M 396.31,49.545 C 402.398,31.274 401.259,17.191 392.878,7.29 382.981,-1.086 368.895,-2.224 350.62,3.856 332.347,9.947 315.977,20.224 301.509,34.689 L 245.11808,93.604367 65.973,34.978 C 62.927,34.025 60.072,34.786 57.409,37.26 L 20.862,73.805 c -2.091,2.096 -2.95,4.665 -2.568,7.71 0.571,3.049 2.19,5.33 4.854,6.854 L 168.186,168.025 94.238,241.973 38.85,226.845 c -0.38,-0.192 -1.139,-0.288 -2.282,-0.288 -2.666,0 -4.853,0.855 -6.567,2.57 L 2.594,256.819 c -1.903,2.279 -2.758,4.66 -2.568,7.132 0.378,3.045 1.615,5.235 3.711,6.57 L 81.984127,318.80699 129.642,396.422 c 1.714,2.098 3.999,3.329 6.854,3.716 l 0.571,0 c 2.666,0 4.853,-0.855 6.567,-2.566 l 27.406,-27.404 c 2.474,-2.669 3.236,-5.619 2.286,-8.854 l -15.133,-55.388 73.947,-73.953 79.66,145.046 c 1.14,2.475 3.138,3.997 5.995,4.569 0.568,0.191 1.235,0.284 1.999,0.284 2.279,0 4.09,-0.572 5.421,-1.712 l 36.552,-27.407 c 3.23,-2.663 4.373,-5.801 3.426,-9.418 L 308.80108,155.96603 365.48,98.659 c 14.462,-14.471 24.739,-30.843 30.83,-49.114 z"
         inkscape:connector-curvature="0"
         sodipodi:nodetypes="cccccccccccccscccccccscccccccscccccc" />
    </g>
    <g
       id="g6713"
       transform="matrix(0.20539195,-0.20539195,0.20539195,0.20539195,1880.541,932.41892)" />
    <g
       id="g6715"
       transform="matrix(0.20539195,-0.20539195,0.20539195,0.20539195,1880.541,932.41892)" />
    <g
       id="g6717"
       transform="matrix(0.20539195,-0.20539195,0.20539195,0.20539195,1880.541,932.41892)" />
    <g
       id="g6719"
       transform="matrix(0.20539195,-0.20539195,0.20539195,0.20539195,1880.541,932.41892)" />
    <g
       id="g6721"
       transform="matrix(0.20539195,-0.20539195,0.20539195,0.20539195,1880.541,932.41892)" />
    <g
       id="g6723"
       transform="matrix(0.20539195,-0.20539195,0.20539195,0.20539195,1880.541,932.41892)" />
    <g
       id="g6725"
       transform="matrix(0.20539195,-0.20539195,0.20539195,0.20539195,1880.541,932.41892)" />
    <g
       id="g6727"
       transform="matrix(0.20539195,-0.20539195,0.20539195,0.20539195,1880.541,932.41892)" />
    <g
       id="g6729"
       transform="matrix(0.20539195,-0.20539195,0.20539195,0.20539195,1880.541,932.41892)" />
    <g
       id="g6731"
       transform="matrix(0.20539195,-0.20539195,0.20539195,0.20539195,1880.541,932.41892)" />
    <g
       id="g6733"
       transform="matrix(0.20539195,-0.20539195,0.20539195,0.20539195,1880.541,932.41892)" />
    <g
       id="g6735"
       transform="matrix(0.20539195,-0.20539195,0.20539195,0.20539195,1880.541,932.41892)" />
    <g
       id="g6737"
       transform="matrix(0.20539195,-0.20539195,0.20539195,0.20539195,1880.541,932.41892)" />
    <g
       id="g6739"
       transform="matrix(0.20539195,-0.20539195,0.20539195,0.20539195,1880.541,932.41892)" />
    <g
       id="g6741"
       transform="matrix(0.20539195,-0.20539195,0.20539195,0.20539195,1880.541,932.41892)" />
    <path
       style="fill:#008000;stroke:#008000;stroke-width:10;stroke-linecap:butt;stroke-linejoin:miter;stroke-miterlimit:4;stroke-opacity:1;stroke-dasharray:none;marker-end:url(#Arrow1MendV)"
       d="M 1660.547,828.8492 2188.8438,369.60786"
       id="path6781"
       inkscape:connector-curvature="0" />
    <g
       style="fill:#008000;stroke:#008000"
       id="g6785"
       transform="matrix(0.28976052,0.02026203,-0.02026203,0.28976052,1703.0528,684.60619)">
      <path
         style="fill:#008000;stroke:#008000"
         sodipodi:nodetypes="cccccccccccccscccccccscccccccscccccc"
         inkscape:connector-curvature="0"
         d="M 396.31,49.545 C 402.398,31.274 401.259,17.191 392.878,7.29 382.981,-1.086 368.895,-2.224 350.62,3.856 332.347,9.947 315.977,20.224 301.509,34.689 L 245.11808,93.604367 65.973,34.978 C 62.927,34.025 60.072,34.786 57.409,37.26 L 20.862,73.805 c -2.091,2.096 -2.95,4.665 -2.568,7.71 0.571,3.049 2.19,5.33 4.854,6.854 L 168.186,168.025 94.238,241.973 38.85,226.845 c -0.38,-0.192 -1.139,-0.288 -2.282,-0.288 -2.666,0 -4.853,0.855 -6.567,2.57 L 2.594,256.819 c -1.903,2.279 -2.758,4.66 -2.568,7.132 0.378,3.045 1.615,5.235 3.711,6.57 L 81.984127,318.80699 129.642,396.422 c 1.714,2.098 3.999,3.329 6.854,3.716 l 0.571,0 c 2.666,0 4.853,-0.855 6.567,-2.566 l 27.406,-27.404 c 2.474,-2.669 3.236,-5.619 2.286,-8.854 l -15.133,-55.388 73.947,-73.953 79.66,145.046 c 1.14,2.475 3.138,3.997 5.995,4.569 0.568,0.191 1.235,0.284 1.999,0.284 2.279,0 4.09,-0.572 5.421,-1.712 l 36.552,-27.407 c 3.23,-2.663 4.373,-5.801 3.426,-9.418 L 308.80108,155.96603 365.48,98.659 c 14.462,-14.471 24.739,-30.843 30.83,-49.114 z"
         id="path6787" />
    </g>
    <g
       style="fill:#008000;stroke:#008000"
       id="g6789"
       transform="matrix(0.28976052,0.02026203,-0.02026203,0.28976052,1703.0528,684.60619)" />
    <g
       style="fill:#008000;stroke:#008000"
       id="g6791"
       transform="matrix(0.28976052,0.02026203,-0.02026203,0.28976052,1703.0528,684.60619)" />
    <g
       style="fill:#008000;stroke:#008000"
       id="g6793"
       transform="matrix(0.28976052,0.02026203,-0.02026203,0.28976052,1703.0528,684.60619)" />
    <g
       style="fill:#008000;stroke:#008000"
       id="g6795"
       transform="matrix(0.28976052,0.02026203,-0.02026203,0.28976052,1703.0528,684.60619)" />
    <g
       style="fill:#008000;stroke:#008000"
       id="g6797"
       transform="matrix(0.28976052,0.02026203,-0.02026203,0.28976052,1703.0528,684.60619)" />
    <g
       style="fill:#008000;stroke:#008000"
       id="g6799"
       transform="matrix(0.28976052,0.02026203,-0.02026203,0.28976052,1703.0528,684.60619)" />
    <g
       style="fill:#008000;stroke:#008000"
       id="g6801"
       transform="matrix(0.28976052,0.02026203,-0.02026203,0.28976052,1703.0528,684.60619)" />
    <g
       style="fill:#008000;stroke:#008000"
       id="g6803"
       transform="matrix(0.28976052,0.02026203,-0.02026203,0.28976052,1703.0528,684.60619)" />
    <g
       style="fill:#008000;stroke:#008000"
       id="g6805"
       transform="matrix(0.28976052,0.02026203,-0.02026203,0.28976052,1703.0528,684.60619)" />
    <g
       style="fill:#008000;stroke:#008000"
       id="g6807"
       transform="matrix(0.28976052,0.02026203,-0.02026203,0.28976052,1703.0528,684.60619)" />
    <g
       style="fill:#008000;stroke:#008000"
       id="g6809"
       transform="matrix(0.28976052,0.02026203,-0.02026203,0.28976052,1703.0528,684.60619)" />
    <g
       style="fill:#008000;stroke:#008000"
       id="g6811"
       transform="matrix(0.28976052,0.02026203,-0.02026203,0.28976052,1703.0528,684.60619)" />
    <g
       style="fill:#008000;stroke:#008000"
       id="g6813"
       transform="matrix(0.28976052,0.02026203,-0.02026203,0.28976052,1703.0528,684.60619)" />
    <g
       style="fill:#008000;stroke:#008000"
       id="g6815"
       transform="matrix(0.28976052,0.02026203,-0.02026203,0.28976052,1703.0528,684.60619)" />
    <g
       style="fill:#008000;stroke:#008000"
       id="g6817"
       transform="matrix(0.28976052,0.02026203,-0.02026203,0.28976052,1703.0528,684.60619)" />
    <path
       style="fill:none;stroke:#000000;stroke-width:10;stroke-linecap:butt;stroke-linejoin:miter;stroke-miterlimit:4;stroke-opacity:1;stroke-dasharray:none;marker-end:url(#Arrow1Mend)"
       d="m 2692.1134,1019.8569 0,-629.47461"
       id="path6821"
       inkscape:connector-curvature="0"
       sodipodi:nodetypes="cc" />
    <g
       id="g6825"
       transform="matrix(0.20539195,-0.20539195,0.20539195,0.20539195,2611.1381,932.41892)">
      <path
         sodipodi:nodetypes="cccccccccccccscccccccscccccccscccccc"
         inkscape:connector-curvature="0"
         d="M 396.31,49.545 C 402.398,31.274 401.259,17.191 392.878,7.29 382.981,-1.086 368.895,-2.224 350.62,3.856 332.347,9.947 315.977,20.224 301.509,34.689 L 245.11808,93.604367 65.973,34.978 C 62.927,34.025 60.072,34.786 57.409,37.26 L 20.862,73.805 c -2.091,2.096 -2.95,4.665 -2.568,7.71 0.571,3.049 2.19,5.33 4.854,6.854 L 168.186,168.025 94.238,241.973 38.85,226.845 c -0.38,-0.192 -1.139,-0.288 -2.282,-0.288 -2.666,0 -4.853,0.855 -6.567,2.57 L 2.594,256.819 c -1.903,2.279 -2.758,4.66 -2.568,7.132 0.378,3.045 1.615,5.235 3.711,6.57 L 81.984127,318.80699 129.642,396.422 c 1.714,2.098 3.999,3.329 6.854,3.716 l 0.571,0 c 2.666,0 4.853,-0.855 6.567,-2.566 l 27.406,-27.404 c 2.474,-2.669 3.236,-5.619 2.286,-8.854 l -15.133,-55.388 73.947,-73.953 79.66,145.046 c 1.14,2.475 3.138,3.997 5.995,4.569 0.568,0.191 1.235,0.284 1.999,0.284 2.279,0 4.09,-0.572 5.421,-1.712 l 36.552,-27.407 c 3.23,-2.663 4.373,-5.801 3.426,-9.418 L 308.80108,155.96603 365.48,98.659 c 14.462,-14.471 24.739,-30.843 30.83,-49.114 z"
         id="path6827" />
    </g>
    <g
       id="g6829"
       transform="matrix(0.20539195,-0.20539195,0.20539195,0.20539195,2611.1381,932.41892)" />
    <g
       id="g6831"
       transform="matrix(0.20539195,-0.20539195,0.20539195,0.20539195,2611.1381,932.41892)" />
    <g
       id="g6833"
       transform="matrix(0.20539195,-0.20539195,0.20539195,0.20539195,2611.1381,932.41892)" />
    <g
       id="g6835"
       transform="matrix(0.20539195,-0.20539195,0.20539195,0.20539195,2611.1381,932.41892)" />
    <g
       id="g6837"
       transform="matrix(0.20539195,-0.20539195,0.20539195,0.20539195,2611.1381,932.41892)" />
    <g
       id="g6839"
       transform="matrix(0.20539195,-0.20539195,0.20539195,0.20539195,2611.1381,932.41892)" />
    <g
       id="g6841"
       transform="matrix(0.20539195,-0.20539195,0.20539195,0.20539195,2611.1381,932.41892)" />
    <g
       id="g6843"
       transform="matrix(0.20539195,-0.20539195,0.20539195,0.20539195,2611.1381,932.41892)" />
    <g
       id="g6845"
       transform="matrix(0.20539195,-0.20539195,0.20539195,0.20539195,2611.1381,932.41892)" />
    <g
       id="g6847"
       transform="matrix(0.20539195,-0.20539195,0.20539195,0.20539195,2611.1381,932.41892)" />
    <g
       id="g6849"
       transform="matrix(0.20539195,-0.20539195,0.20539195,0.20539195,2611.1381,932.41892)" />
    <g
       id="g6851"
       transform="matrix(0.20539195,-0.20539195,0.20539195,0.20539195,2611.1381,932.41892)" />
    <g
       id="g6853"
       transform="matrix(0.20539195,-0.20539195,0.20539195,0.20539195,2611.1381,932.41892)" />
    <g
       id="g6855"
       transform="matrix(0.20539195,-0.20539195,0.20539195,0.20539195,2611.1381,932.41892)" />
    <g
       id="g6857"
       transform="matrix(0.20539195,-0.20539195,0.20539195,0.20539195,2611.1381,932.41892)" />
    <path
       inkscape:connector-curvature="0"
       id="path6859"
       d="M 3020.4746,977.32526 2561.2332,449.02853"
       style="fill:#ff0000;stroke:#ff0000;stroke-width:10;stroke-linecap:butt;stroke-linejoin:miter;stroke-miterlimit:4;stroke-opacity:1;stroke-dasharray:none;marker-end:url(#Arrow1Mendn)" />
    <g
       id="g6863"
       style="fill:#ff0000;stroke:#ff0000"
       transform="matrix(0.02026203,-0.28976053,0.28976053,0.02026203,2876.2315,934.81953)">
      <path
         id="path6865"
         d="M 396.31,49.545 C 402.398,31.274 401.259,17.191 392.878,7.29 382.981,-1.086 368.895,-2.224 350.62,3.856 332.347,9.947 315.977,20.224 301.509,34.689 L 245.11808,93.604367 65.973,34.978 C 62.927,34.025 60.072,34.786 57.409,37.26 L 20.862,73.805 c -2.091,2.096 -2.95,4.665 -2.568,7.71 0.571,3.049 2.19,5.33 4.854,6.854 L 168.186,168.025 94.238,241.973 38.85,226.845 c -0.38,-0.192 -1.139,-0.288 -2.282,-0.288 -2.666,0 -4.853,0.855 -6.567,2.57 L 2.594,256.819 c -1.903,2.279 -2.758,4.66 -2.568,7.132 0.378,3.045 1.615,5.235 3.711,6.57 L 81.984127,318.80699 129.642,396.422 c 1.714,2.098 3.999,3.329 6.854,3.716 l 0.571,0 c 2.666,0 4.853,-0.855 6.567,-2.566 l 27.406,-27.404 c 2.474,-2.669 3.236,-5.619 2.286,-8.854 l -15.133,-55.388 73.947,-73.953 79.66,145.046 c 1.14,2.475 3.138,3.997 5.995,4.569 0.568,0.191 1.235,0.284 1.999,0.284 2.279,0 4.09,-0.572 5.421,-1.712 l 36.552,-27.407 c 3.23,-2.663 4.373,-5.801 3.426,-9.418 L 308.80108,155.96603 365.48,98.659 c 14.462,-14.471 24.739,-30.843 30.83,-49.114 z"
         inkscape:connector-curvature="0"
         sodipodi:nodetypes="cccccccccccccscccccccscccccccscccccc"
         style="fill:#ff0000;stroke:#ff0000" />
    </g>
    <g
       id="g6867"
       style="fill:#ff0000;stroke:#ff0000"
       transform="matrix(0.02026203,-0.28976053,0.28976053,0.02026203,2876.2315,934.81953)" />
    <g
       id="g6869"
       style="fill:#ff0000;stroke:#ff0000"
       transform="matrix(0.02026203,-0.28976053,0.28976053,0.02026203,2876.2315,934.81953)" />
    <g
       id="g6871"
       style="fill:#ff0000;stroke:#ff0000"
       transform="matrix(0.02026203,-0.28976053,0.28976053,0.02026203,2876.2315,934.81953)" />
    <g
       id="g6873"
       style="fill:#ff0000;stroke:#ff0000"
       transform="matrix(0.02026203,-0.28976053,0.28976053,0.02026203,2876.2315,934.81953)" />
    <g
       id="g6875"
       style="fill:#ff0000;stroke:#ff0000"
       transform="matrix(0.02026203,-0.28976053,0.28976053,0.02026203,2876.2315,934.81953)" />
    <g
       id="g6877"
       style="fill:#ff0000;stroke:#ff0000"
       transform="matrix(0.02026203,-0.28976053,0.28976053,0.02026203,2876.2315,934.81953)" />
    <g
       id="g6879"
       style="fill:#ff0000;stroke:#ff0000"
       transform="matrix(0.02026203,-0.28976053,0.28976053,0.02026203,2876.2315,934.81953)" />
    <g
       id="g6881"
       style="fill:#ff0000;stroke:#ff0000"
       transform="matrix(0.02026203,-0.28976053,0.28976053,0.02026203,2876.2315,934.81953)" />
    <g
       id="g6883"
       style="fill:#ff0000;stroke:#ff0000"
       transform="matrix(0.02026203,-0.28976053,0.28976053,0.02026203,2876.2315,934.81953)" />
    <g
       id="g6885"
       style="fill:#ff0000;stroke:#ff0000"
       transform="matrix(0.02026203,-0.28976053,0.28976053,0.02026203,2876.2315,934.81953)" />
    <g
       id="g6887"
       style="fill:#ff0000;stroke:#ff0000"
       transform="matrix(0.02026203,-0.28976053,0.28976053,0.02026203,2876.2315,934.81953)" />
    <g
       id="g6889"
       style="fill:#ff0000;stroke:#ff0000"
       transform="matrix(0.02026203,-0.28976053,0.28976053,0.02026203,2876.2315,934.81953)" />
    <g
       id="g6891"
       style="fill:#ff0000;stroke:#ff0000"
       transform="matrix(0.02026203,-0.28976053,0.28976053,0.02026203,2876.2315,934.81953)" />
    <g
       id="g6893"
       style="fill:#ff0000;stroke:#ff0000"
       transform="matrix(0.02026203,-0.28976053,0.28976053,0.02026203,2876.2315,934.81953)" />
    <g
       id="g6895"
       style="fill:#ff0000;stroke:#ff0000"
       transform="matrix(0.02026203,-0.28976053,0.28976053,0.02026203,2876.2315,934.81953)" />
    <path
       style="fill:#ff0000;stroke:#ff0000;stroke-width:10;stroke-linecap:butt;stroke-linejoin:miter;stroke-miterlimit:4;stroke-opacity:1;stroke-dasharray:none;marker-end:url(#Arrow1Mendn)"
       d="M 4012.6084,977.32526 3553.367,449.02853"
       id="path6975"
       inkscape:connector-curvature="0" />
    <g
       style="fill:#ff0000;stroke:#ff0000"
       id="g6979"
       transform="matrix(0.02026203,-0.28976053,0.28976053,0.02026203,3868.3653,934.81953)">
      <path
         style="fill:#ff0000;stroke:#ff0000"
         sodipodi:nodetypes="cccccccccccccscccccccscccccccscccccc"
         inkscape:connector-curvature="0"
         d="M 396.31,49.545 C 402.398,31.274 401.259,17.191 392.878,7.29 382.981,-1.086 368.895,-2.224 350.62,3.856 332.347,9.947 315.977,20.224 301.509,34.689 L 245.11808,93.604367 65.973,34.978 C 62.927,34.025 60.072,34.786 57.409,37.26 L 20.862,73.805 c -2.091,2.096 -2.95,4.665 -2.568,7.71 0.571,3.049 2.19,5.33 4.854,6.854 L 168.186,168.025 94.238,241.973 38.85,226.845 c -0.38,-0.192 -1.139,-0.288 -2.282,-0.288 -2.666,0 -4.853,0.855 -6.567,2.57 L 2.594,256.819 c -1.903,2.279 -2.758,4.66 -2.568,7.132 0.378,3.045 1.615,5.235 3.711,6.57 L 81.984127,318.80699 129.642,396.422 c 1.714,2.098 3.999,3.329 6.854,3.716 l 0.571,0 c 2.666,0 4.853,-0.855 6.567,-2.566 l 27.406,-27.404 c 2.474,-2.669 3.236,-5.619 2.286,-8.854 l -15.133,-55.388 73.947,-73.953 79.66,145.046 c 1.14,2.475 3.138,3.997 5.995,4.569 0.568,0.191 1.235,0.284 1.999,0.284 2.279,0 4.09,-0.572 5.421,-1.712 l 36.552,-27.407 c 3.23,-2.663 4.373,-5.801 3.426,-9.418 L 308.80108,155.96603 365.48,98.659 c 14.462,-14.471 24.739,-30.843 30.83,-49.114 z"
         id="path6981" />
    </g>
    <g
       style="fill:#ff0000;stroke:#ff0000"
       id="g6983"
       transform="matrix(0.02026203,-0.28976053,0.28976053,0.02026203,3868.3653,934.81953)" />
    <g
       style="fill:#ff0000;stroke:#ff0000"
       id="g6985"
       transform="matrix(0.02026203,-0.28976053,0.28976053,0.02026203,3868.3653,934.81953)" />
    <g
       style="fill:#ff0000;stroke:#ff0000"
       id="g6987"
       transform="matrix(0.02026203,-0.28976053,0.28976053,0.02026203,3868.3653,934.81953)" />
    <g
       style="fill:#ff0000;stroke:#ff0000"
       id="g6989"
       transform="matrix(0.02026203,-0.28976053,0.28976053,0.02026203,3868.3653,934.81953)" />
    <g
       style="fill:#ff0000;stroke:#ff0000"
       id="g6991"
       transform="matrix(0.02026203,-0.28976053,0.28976053,0.02026203,3868.3653,934.81953)" />
    <g
       style="fill:#ff0000;stroke:#ff0000"
       id="g6993"
       transform="matrix(0.02026203,-0.28976053,0.28976053,0.02026203,3868.3653,934.81953)" />
    <g
       style="fill:#ff0000;stroke:#ff0000"
       id="g6995"
       transform="matrix(0.02026203,-0.28976053,0.28976053,0.02026203,3868.3653,934.81953)" />
    <g
       style="fill:#ff0000;stroke:#ff0000"
       id="g6997"
       transform="matrix(0.02026203,-0.28976053,0.28976053,0.02026203,3868.3653,934.81953)" />
    <g
       style="fill:#ff0000;stroke:#ff0000"
       id="g6999"
       transform="matrix(0.02026203,-0.28976053,0.28976053,0.02026203,3868.3653,934.81953)" />
    <g
       style="fill:#ff0000;stroke:#ff0000"
       id="g7001"
       transform="matrix(0.02026203,-0.28976053,0.28976053,0.02026203,3868.3653,934.81953)" />
    <g
       style="fill:#ff0000;stroke:#ff0000"
       id="g7003"
       transform="matrix(0.02026203,-0.28976053,0.28976053,0.02026203,3868.3653,934.81953)" />
    <g
       style="fill:#ff0000;stroke:#ff0000"
       id="g7005"
       transform="matrix(0.02026203,-0.28976053,0.28976053,0.02026203,3868.3653,934.81953)" />
    <g
       style="fill:#ff0000;stroke:#ff0000"
       id="g7007"
       transform="matrix(0.02026203,-0.28976053,0.28976053,0.02026203,3868.3653,934.81953)" />
    <g
       style="fill:#ff0000;stroke:#ff0000"
       id="g7009"
       transform="matrix(0.02026203,-0.28976053,0.28976053,0.02026203,3868.3653,934.81953)" />
    <g
       style="fill:#ff0000;stroke:#ff0000"
       id="g7011"
       transform="matrix(0.02026203,-0.28976053,0.28976053,0.02026203,3868.3653,934.81953)" />
    <path
       style="fill:#008000;stroke:#008000;stroke-width:10;stroke-linecap:butt;stroke-linejoin:miter;stroke-miterlimit:4;stroke-opacity:1;stroke-dasharray:none;marker-end:url(#Arrow1MendV)"
       d="M 3383.278,828.8492 3911.5747,369.60786"
       id="path7013"
       inkscape:connector-curvature="0" />
    <g
       style="fill:#008000;stroke:#008000"
       id="g7017"
       transform="matrix(0.28976052,0.02026203,-0.02026203,0.28976052,3425.7837,684.60619)">
      <path
         style="fill:#008000;stroke:#008000"
         sodipodi:nodetypes="cccccccccccccscccccccscccccccscccccc"
         inkscape:connector-curvature="0"
         d="M 396.31,49.545 C 402.398,31.274 401.259,17.191 392.878,7.29 382.981,-1.086 368.895,-2.224 350.62,3.856 332.347,9.947 315.977,20.224 301.509,34.689 L 245.11808,93.604367 65.973,34.978 C 62.927,34.025 60.072,34.786 57.409,37.26 L 20.862,73.805 c -2.091,2.096 -2.95,4.665 -2.568,7.71 0.571,3.049 2.19,5.33 4.854,6.854 L 168.186,168.025 94.238,241.973 38.85,226.845 c -0.38,-0.192 -1.139,-0.288 -2.282,-0.288 -2.666,0 -4.853,0.855 -6.567,2.57 L 2.594,256.819 c -1.903,2.279 -2.758,4.66 -2.568,7.132 0.378,3.045 1.615,5.235 3.711,6.57 L 81.984127,318.80699 129.642,396.422 c 1.714,2.098 3.999,3.329 6.854,3.716 l 0.571,0 c 2.666,0 4.853,-0.855 6.567,-2.566 l 27.406,-27.404 c 2.474,-2.669 3.236,-5.619 2.286,-8.854 l -15.133,-55.388 73.947,-73.953 79.66,145.046 c 1.14,2.475 3.138,3.997 5.995,4.569 0.568,0.191 1.235,0.284 1.999,0.284 2.279,0 4.09,-0.572 5.421,-1.712 l 36.552,-27.407 c 3.23,-2.663 4.373,-5.801 3.426,-9.418 L 308.80108,155.96603 365.48,98.659 c 14.462,-14.471 24.739,-30.843 30.83,-49.114 z"
         id="path7019" />
    </g>
    <g
       style="fill:#008000;stroke:#008000"
       id="g7021"
       transform="matrix(0.28976052,0.02026203,-0.02026203,0.28976052,3425.7837,684.60619)" />
    <g
       style="fill:#008000;stroke:#008000"
       id="g7023"
       transform="matrix(0.28976052,0.02026203,-0.02026203,0.28976052,3425.7837,684.60619)" />
    <g
       style="fill:#008000;stroke:#008000"
       id="g7025"
       transform="matrix(0.28976052,0.02026203,-0.02026203,0.28976052,3425.7837,684.60619)" />
    <g
       style="fill:#008000;stroke:#008000"
       id="g7027"
       transform="matrix(0.28976052,0.02026203,-0.02026203,0.28976052,3425.7837,684.60619)" />
    <g
       style="fill:#008000;stroke:#008000"
       id="g7029"
       transform="matrix(0.28976052,0.02026203,-0.02026203,0.28976052,3425.7837,684.60619)" />
    <g
       style="fill:#008000;stroke:#008000"
       id="g7031"
       transform="matrix(0.28976052,0.02026203,-0.02026203,0.28976052,3425.7837,684.60619)" />
    <g
       style="fill:#008000;stroke:#008000"
       id="g7033"
       transform="matrix(0.28976052,0.02026203,-0.02026203,0.28976052,3425.7837,684.60619)" />
    <g
       style="fill:#008000;stroke:#008000"
       id="g7035"
       transform="matrix(0.28976052,0.02026203,-0.02026203,0.28976052,3425.7837,684.60619)" />
    <g
       style="fill:#008000;stroke:#008000"
       id="g7037"
       transform="matrix(0.28976052,0.02026203,-0.02026203,0.28976052,3425.7837,684.60619)" />
    <g
       style="fill:#008000;stroke:#008000"
       id="g7039"
       transform="matrix(0.28976052,0.02026203,-0.02026203,0.28976052,3425.7837,684.60619)" />
    <g
       style="fill:#008000;stroke:#008000"
       id="g7041"
       transform="matrix(0.28976052,0.02026203,-0.02026203,0.28976052,3425.7837,684.60619)" />
    <g
       style="fill:#008000;stroke:#008000"
       id="g7043"
       transform="matrix(0.28976052,0.02026203,-0.02026203,0.28976052,3425.7837,684.60619)" />
    <g
       style="fill:#008000;stroke:#008000"
       id="g7045"
       transform="matrix(0.28976052,0.02026203,-0.02026203,0.28976052,3425.7837,684.60619)" />
    <g
       style="fill:#008000;stroke:#008000"
       id="g7047"
       transform="matrix(0.28976052,0.02026203,-0.02026203,0.28976052,3425.7837,684.60619)" />
    <g
       style="fill:#008000;stroke:#008000"
       id="g7049"
       transform="matrix(0.28976052,0.02026203,-0.02026203,0.28976052,3425.7837,684.60619)" />
    <path
       style="font-style:normal;font-variant:normal;font-weight:normal;font-stretch:normal;letter-spacing:normal;word-spacing:normal;text-anchor:start;fill:#000000;stroke:#000000;stroke-width:0;stroke-linecap:butt;stroke-linejoin:miter;stroke-miterlimit:10.43299961;stroke-opacity:1;stroke-dasharray:none;stroke-dashoffset:0"
       inkscape:connector-curvature="0"
       d="m 2324.7743,688.33989 h 58.4379 c 2.8987,0 6.8898,0 6.8898,-4.20114 0,-4.20113 -3.9911,-4.20113 -6.8898,-4.20113 h -58.4379 v -58.64788 c 0,-2.85677 0,-6.88986 -4.2011,-6.88986 -4.1171,0 -4.1171,4.03309 -4.1171,6.88986 v 58.64788 h -58.6059 c -2.9828,0 -6.8898,0 -6.8898,4.20113 0,4.20114 3.907,4.20114 6.8898,4.20114 h 58.6059 v 58.56385 c 0,2.9408 0,6.93188 4.1171,6.93188 4.2011,0 4.2011,-3.99108 4.2011,-6.93188 z"
       id="path7534" />
    <path
       id="path7730"
       d="m 3177.7782,688.33989 h 58.4379 c 2.8987,0 6.8898,0 6.8898,-4.20114 0,-4.20113 -3.9911,-4.20113 -6.8898,-4.20113 h -58.4379 v -58.64788 c 0,-2.85677 0,-6.88986 -4.2011,-6.88986 -4.1171,0 -4.1171,4.03309 -4.1171,6.88986 v 58.64788 h -58.6059 c -2.9828,0 -6.8898,0 -6.8898,4.20113 0,4.20114 3.907,4.20114 6.8898,4.20114 h 58.6059 v 58.56385 c 0,2.9408 0,6.93188 4.1171,6.93188 4.2011,0 4.2011,-3.99108 4.2011,-6.93188 z"
       inkscape:connector-curvature="0"
       style="font-style:normal;font-variant:normal;font-weight:normal;font-stretch:normal;letter-spacing:normal;word-spacing:normal;text-anchor:start;fill:#000000;stroke:#000000;stroke-width:0;stroke-linecap:butt;stroke-linejoin:miter;stroke-miterlimit:10.43299961;stroke-opacity:1;stroke-dasharray:none;stroke-dashoffset:0" />
    <path
       id="path7931"
       d="m 1416.6978,697.87464 -1.705,1.24593 -1.5738,1.31151 -1.5738,1.24593 -1.4426,1.31151 -1.5083,1.24592 -1.377,1.24593 -1.3115,1.24593 -1.3116,1.24594 -1.2459,1.18036 -1.1804,1.18035 -1.1802,1.18035 -1.1148,1.18036 -1.0493,1.11478 -0.9836,1.11478 -0.9836,1.11478 -0.9181,1.04921 -0.8525,0.98362 -0.8525,1.04921 -0.7868,0.98362 -0.7214,0.91806 -0.7213,0.91806 -0.6557,0.85247 -0.5902,0.85248 -0.5902,0.78691 -0.5246,0.72133 -0.5246,0.72132 -0.459,0.72133 -0.3935,0.59018 -0.3934,0.59018 -0.3279,0.5246 -0.3279,0.45903 -0.2623,0.45902 c -14.6233,22.55791 -17.3119,43.14856 -17.3119,43.41085 0,3.93452 4.0001,3.93452 6.5575,3.93452 5.574,0 5.8362,-0.65575 7.2133,-6.55753 7.5412,-32.00074 26.8204,-59.41122 63.6737,-74.49354 3.9344,-1.24593 4.9181,-1.96726 4.9181,-4.19682 0,-2.29514 -1.9017,-3.27876 -2.623,-3.60664 -14.361,-5.50832 -53.9029,-21.90215 -66.2966,-76.85426 -1.0493,-3.86894 -1.3115,-4.78699 -6.8855,-4.78699 -2.5574,0 -6.5575,0 -6.5575,3.86894 0,0.65576 2.951,21.2464 16.7218,43.14855 6.5575,9.70515 16.0003,21.18083 30.0334,31.67287 h -242.7597 c -5.8362,0 -11.8036,0 -11.8036,6.55753 0,6.55753 5.9674,6.55753 11.8036,6.55753 z"
       inkscape:connector-curvature="0"
       style="font-style:normal;font-variant:normal;font-weight:normal;font-stretch:normal;letter-spacing:normal;word-spacing:normal;text-anchor:start;fill:#000000;stroke:#000000;stroke-width:0;stroke-linecap:butt;stroke-linejoin:miter;stroke-miterlimit:10.43299961;stroke-opacity:1;stroke-dasharray:none;stroke-dashoffset:0" />
  </g>
</svg>
