<?xml version="1.0" encoding="UTF-8" standalone="no"?>
<!-- Created with Inkscape (http://www.inkscape.org/) -->

<svg
   xmlns:dc="http://purl.org/dc/elements/1.1/"
   xmlns:cc="http://creativecommons.org/ns#"
   xmlns:rdf="http://www.w3.org/1999/02/22-rdf-syntax-ns#"
   xmlns:svg="http://www.w3.org/2000/svg"
   xmlns="http://www.w3.org/2000/svg"
   xmlns:sodipodi="http://sodipodi.sourceforge.net/DTD/sodipodi-0.dtd"
   xmlns:inkscape="http://www.inkscape.org/namespaces/inkscape"
   width="1440.422"
   height="840.63501"
   id="svg3671"
   version="1.1"
   inkscape:version="0.48.4 r9939"
   sodipodi:docname="potential_conflict_reduction.svg">
  <sodipodi:namedview
     id="base"
     pagecolor="#ffffff"
     bordercolor="#666666"
     borderopacity="1.0"
     inkscape:pageopacity="0.0"
     inkscape:pageshadow="2"
     inkscape:zoom="0.70349956"
     inkscape:cx="782.28368"
     inkscape:cy="420.31249"
     inkscape:document-units="px"
     inkscape:current-layer="layer1"
     showgrid="true"
     inkscape:window-width="1600"
     inkscape:window-height="834"
     inkscape:window-x="0"
     inkscape:window-y="27"
     inkscape:window-maximized="1"
     fit-margin-top="0"
     fit-margin-left="0"
     fit-margin-right="0"
     fit-margin-bottom="0">
    <inkscape:grid
       type="xygrid"
       id="grid4370"
       empspacing="5"
       visible="true"
       enabled="false"
       snapvisiblegridlinesonly="true"
       originx="-15.158215px"
       originy="-1.3964844e-05px" />
  </sodipodi:namedview>
  <defs
     id="defs3673">
    <clipPath
       clipPathUnits="userSpaceOnUse"
       id="clipPath3736">
      <path
         d="m 89.142857,30.857143 1052.571443,0 0,543.428567 -1052.571443,0 0,-543.428567 z"
         id="path3738"
         inkscape:connector-curvature="0" />
    </clipPath>
    <clipPath
       clipPathUnits="userSpaceOnUse"
       id="clipPath3726">
      <path
         d="m 89.142857,30.857143 1052.571443,0 0,543.428567 -1052.571443,0 0,-543.428567 z"
         id="path3728"
         inkscape:connector-curvature="0" />
    </clipPath>
    <clipPath
       clipPathUnits="userSpaceOnUse"
       id="clipPath3716">
      <path
         d="m 89.142857,30.857143 1052.571443,0 0,543.428567 -1052.571443,0 0,-543.428567 z"
         id="path3718"
         inkscape:connector-curvature="0" />
    </clipPath>
  </defs>
  <metadata
     id="metadata3676">
    <rdf:RDF>
      <cc:Work
         rdf:about="">
        <dc:format>image/svg+xml</dc:format>
        <dc:type
           rdf:resource="http://purl.org/dc/dcmitype/StillImage" />
        <dc:title></dc:title>
      </cc:Work>
    </rdf:RDF>
  </metadata>
  <g
     id="layer1"
     inkscape:groupmode="layer"
     inkscape:label="Ebene 1"
     transform="translate(-1007.6303,-796.6875)">
    <path
       id="path3708"
       style="fill:#ffffff;fill-opacity:1;fill-rule:nonzero;stroke:none"
       d="m 1007.6303,1553.8282 1440,0 0,-720 -1440,0 0,720 z"
       inkscape:connector-curvature="0" />
    <path
       id="path3710"
       style="fill:#ffffff;fill-opacity:1;fill-rule:nonzero;stroke:none"
       d="m 1119.0589,1515.2568 1315.7143,0 0,-679.28574 -1315.7143,0 0,679.28574 z"
       inkscape:connector-curvature="0" />
    <g
       transform="matrix(1.25,0,0,-1.25,1007.6303,1553.8282)"
       id="g3714"
       clip-path="url(#clipPath3716)">
      <path
         inkscape:connector-curvature="0"
         d="m 89.142857,30.857143 350.857143,0 0,522.307317 -350.857143,0 0,-522.307317 z"
         style="fill:#0000ff;fill-opacity:1;fill-rule:nonzero;stroke:#000000;stroke-width:1;stroke-linecap:butt;stroke-linejoin:miter;stroke-miterlimit:10;stroke-opacity:1;stroke-dasharray:none"
         id="path3720" />
    </g>
    <g
       transform="matrix(1.25,0,0,-1.25,1007.6303,1553.8282)"
       id="g3724"
       clip-path="url(#clipPath3726)">
      <path
         inkscape:connector-curvature="0"
         d="m 440,30.857143 350.85714,0 0,73.459467 -350.85714,0 0,-73.459467 z"
         style="fill:#0000ff;fill-opacity:1;fill-rule:nonzero;stroke:#000000;stroke-width:1;stroke-linecap:butt;stroke-linejoin:miter;stroke-miterlimit:10;stroke-opacity:1;stroke-dasharray:none"
         id="path3730" />
    </g>
    <g
       transform="matrix(1.25,0,0,-1.25,1007.6303,1553.8282)"
       id="g3734"
       clip-path="url(#clipPath3736)">
      <path
         inkscape:connector-curvature="0"
         d="m 790.85714,30.857143 350.85716,0 0,28.994933 -350.85716,0 0,-28.994933 z"
         style="fill:#0000ff;fill-opacity:1;fill-rule:nonzero;stroke:#000000;stroke-width:1;stroke-linecap:butt;stroke-linejoin:miter;stroke-miterlimit:10;stroke-opacity:1;stroke-dasharray:none"
         id="path3740" />
    </g>
    <path
       inkscape:connector-curvature="0"
       d="m 1119.0589,797.32252 1315.7143,0"
       style="fill:none;stroke:#000000;stroke-width:1.25;stroke-linecap:square;stroke-linejoin:miter;stroke-miterlimit:10;stroke-opacity:1;stroke-dasharray:none"
       id="path3744"
       sodipodi:nodetypes="cc" />
    <path
       inkscape:connector-curvature="0"
       d="m 2434.7732,1515.2568 0,-717.93428"
       style="fill:none;stroke:#000000;stroke-width:1.25;stroke-linecap:square;stroke-linejoin:miter;stroke-miterlimit:10;stroke-opacity:1;stroke-dasharray:none"
       id="path3746"
       sodipodi:nodetypes="cc" />
    <path
       inkscape:connector-curvature="0"
       d="m 1119.0589,1515.2568 1315.7143,0"
       style="fill:none;stroke:#000000;stroke-width:1.25;stroke-linecap:square;stroke-linejoin:miter;stroke-miterlimit:10;stroke-opacity:1;stroke-dasharray:none"
       id="path3748" />
    <path
       inkscape:connector-curvature="0"
       d="m 1119.0589,1515.2568 0,-717.93428"
       style="fill:none;stroke:#000000;stroke-width:1.25;stroke-linecap:square;stroke-linejoin:miter;stroke-miterlimit:10;stroke-opacity:1;stroke-dasharray:none"
       id="path3750"
       sodipodi:nodetypes="cc" />
    <path
       inkscape:connector-curvature="0"
       d="m 1336.1517,1515.2568 0,-5"
       style="fill:#000000;fill-opacity:1;fill-rule:nonzero;stroke:#000000;stroke-width:0.625;stroke-linecap:butt;stroke-linejoin:round;stroke-miterlimit:10;stroke-opacity:1;stroke-dasharray:none"
       id="path3752" />
    <path
       inkscape:connector-curvature="0"
       d="m 1336.1517,835.97106 0,5"
       style="fill:#000000;fill-opacity:1;fill-rule:nonzero;stroke:#000000;stroke-width:0.625;stroke-linecap:butt;stroke-linejoin:round;stroke-miterlimit:10;stroke-opacity:1;stroke-dasharray:none"
       id="path3754" />
    <path
       inkscape:connector-curvature="0"
       d="m 1776.9161,1515.2568 0,-5"
       style="fill:#000000;fill-opacity:1;fill-rule:nonzero;stroke:#000000;stroke-width:0.625;stroke-linecap:butt;stroke-linejoin:round;stroke-miterlimit:10;stroke-opacity:1;stroke-dasharray:none"
       id="path3782" />
    <path
       inkscape:connector-curvature="0"
       d="m 1776.9161,835.97106 0,5"
       style="fill:#000000;fill-opacity:1;fill-rule:nonzero;stroke:#000000;stroke-width:0.625;stroke-linecap:butt;stroke-linejoin:round;stroke-miterlimit:10;stroke-opacity:1;stroke-dasharray:none"
       id="path3784" />
    <path
       inkscape:connector-curvature="0"
       d="m 2217.6803,1515.2568 0,-5"
       style="fill:#000000;fill-opacity:1;fill-rule:nonzero;stroke:#000000;stroke-width:0.625;stroke-linecap:butt;stroke-linejoin:round;stroke-miterlimit:10;stroke-opacity:1;stroke-dasharray:none"
       id="path3790" />
    <path
       inkscape:connector-curvature="0"
       d="m 2217.6803,835.97106 0,5"
       style="fill:#000000;fill-opacity:1;fill-rule:nonzero;stroke:#000000;stroke-width:0.625;stroke-linecap:butt;stroke-linejoin:round;stroke-miterlimit:10;stroke-opacity:1;stroke-dasharray:none"
       id="path3792" />
    <path
       inkscape:connector-curvature="0"
       d="m 1119.0589,1515.2568 5,0"
       style="fill:#000000;fill-opacity:1;fill-rule:nonzero;stroke:#000000;stroke-width:0.625;stroke-linecap:butt;stroke-linejoin:round;stroke-miterlimit:10;stroke-opacity:1;stroke-dasharray:none"
       id="path3798" />
    <path
       inkscape:connector-curvature="0"
       d="m 2434.7732,1515.2568 -5,0"
       style="fill:#000000;fill-opacity:1;fill-rule:nonzero;stroke:#000000;stroke-width:0.625;stroke-linecap:butt;stroke-linejoin:round;stroke-miterlimit:10;stroke-opacity:1;stroke-dasharray:none"
       id="path3800" />
    <path
       inkscape:connector-curvature="0"
       d="m 1119.0589,1364.3044 5,0"
       style="fill:#000000;fill-opacity:1;fill-rule:nonzero;stroke:#000000;stroke-width:0.625;stroke-linecap:butt;stroke-linejoin:round;stroke-miterlimit:10;stroke-opacity:1;stroke-dasharray:none"
       id="path3806" />
    <path
       inkscape:connector-curvature="0"
       d="m 2434.7732,1364.3044 -5,0"
       style="fill:#000000;fill-opacity:1;fill-rule:nonzero;stroke:#000000;stroke-width:0.625;stroke-linecap:butt;stroke-linejoin:round;stroke-miterlimit:10;stroke-opacity:1;stroke-dasharray:none"
       id="path3808" />
    <path
       inkscape:connector-curvature="0"
       d="m 1119.0589,1213.352 5,0"
       style="fill:#000000;fill-opacity:1;fill-rule:nonzero;stroke:#000000;stroke-width:0.625;stroke-linecap:butt;stroke-linejoin:round;stroke-miterlimit:10;stroke-opacity:1;stroke-dasharray:none"
       id="path3814" />
    <path
       inkscape:connector-curvature="0"
       d="m 2434.7732,1213.352 -5,0"
       style="fill:#000000;fill-opacity:1;fill-rule:nonzero;stroke:#000000;stroke-width:0.625;stroke-linecap:butt;stroke-linejoin:round;stroke-miterlimit:10;stroke-opacity:1;stroke-dasharray:none"
       id="path3816" />
    <path
       inkscape:connector-curvature="0"
       d="m 1119.0589,1062.3996 5,0"
       style="fill:#000000;fill-opacity:1;fill-rule:nonzero;stroke:#000000;stroke-width:0.625;stroke-linecap:butt;stroke-linejoin:round;stroke-miterlimit:10;stroke-opacity:1;stroke-dasharray:none"
       id="path3822" />
    <path
       inkscape:connector-curvature="0"
       d="m 2434.7732,1062.3996 -5,0"
       style="fill:#000000;fill-opacity:1;fill-rule:nonzero;stroke:#000000;stroke-width:0.625;stroke-linecap:butt;stroke-linejoin:round;stroke-miterlimit:10;stroke-opacity:1;stroke-dasharray:none"
       id="path3824" />
    <path
       inkscape:connector-curvature="0"
       d="m 1119.0589,911.44725 5,0"
       style="fill:#000000;fill-opacity:1;fill-rule:nonzero;stroke:#000000;stroke-width:0.625;stroke-linecap:butt;stroke-linejoin:round;stroke-miterlimit:10;stroke-opacity:1;stroke-dasharray:none"
       id="path3830" />
    <path
       inkscape:connector-curvature="0"
       d="m 2434.7732,911.44725 -5,0"
       style="fill:#000000;fill-opacity:1;fill-rule:nonzero;stroke:#000000;stroke-width:0.625;stroke-linecap:butt;stroke-linejoin:round;stroke-miterlimit:10;stroke-opacity:1;stroke-dasharray:none"
       id="path3832" />
    <g
       id="g4199">
      <text
         xml:space="preserve"
         style="font-size:40px;font-style:normal;font-weight:normal;line-height:125%;letter-spacing:0px;word-spacing:0px;fill:#000000;fill-opacity:1;stroke:none;font-family:Sans"
         x="1332.4135"
         y="1566.0172"
         id="text4036"
         sodipodi:linespacing="125%"><tspan
           sodipodi:role="line"
           id="tspan4038"
           x="1338.7806"
           y="1566.0172"
           style="text-align:center;text-anchor:middle">Allowing for               </tspan><tspan
           sodipodi:role="line"
           x="1332.4135"
           y="1616.0172"
           id="tspan4231"
           style="text-align:center;text-anchor:middle">hours</tspan></text>
      <g
         transform="translate(1070.2854,1208.0554)"
         id="g4114">
        <g
           style="font-style:normal;font-variant:normal;font-weight:normal;font-stretch:normal;letter-spacing:normal;word-spacing:normal;text-anchor:start;fill:none;stroke:#000000;stroke-linecap:butt;stroke-linejoin:miter;stroke-miterlimit:10.43299961;stroke-opacity:1;stroke-dasharray:none;stroke-dashoffset:0"
           id="content"
           transform="matrix(1.0629921,0,0,-1.0629921,-186.02362,789.27165)"
           xml:space="preserve"
           stroke-miterlimit="10.433"
           font-style="normal"
           font-variant="normal"
           font-weight="normal"
           font-stretch="normal"
           font-size-adjust="none"
           letter-spacing="normal"
           word-spacing="normal"><path
             style="fill:#000000;stroke-width:0"
             inkscape:connector-curvature="0"
             d="m 477.54,440.98 -0.04,0.06 -0.03,0.06 -0.03,0.05 -0.02,0.05 -0.03,0.05 -0.03,0.05 -0.03,0.05 -0.02,0.04 -0.03,0.04 -0.03,0.04 -0.02,0.04 -0.03,0.03 -0.03,0.04 -0.03,0.03 -0.03,0.03 -0.03,0.03 -0.03,0.02 -0.04,0.03 -0.04,0.02 -0.03,0.02 -0.05,0.02 -0.04,0.01 -0.05,0.02 -0.04,0.01 -0.06,0.01 -0.05,0.01 -0.06,0.01 -0.06,0.01 -0.07,0 -0.07,0.01 -0.07,0 -0.04,0 -0.04,0 c -0.85,0 -0.94,-0.25 -1.28,-0.89 l -0.32,-4.09 13.41,-26.91 h -26.86 l 13.45,26.91 0.32,4.09 -16.85,-33.78 c -0.25,-0.45 -0.25,-0.55 -0.25,-0.59 0,-0.41 0.3,-0.41 1.1,-0.41 h 34.58 c 0.79,0 1.09,0 1.09,0.41 0,0.04 0,0.14 -0.25,0.59 z"
             id="path4117" /><path
             style="fill:#000000;stroke-width:0"
             inkscape:connector-curvature="0"
             d="m 507.95,421.9 0,0.01 0,0 0,0 0,0.01 0,0 0.01,0.01 0,0.01 0,0 0,0.01 0,0.01 0.01,0.01 0.01,0.02 0,0.02 0.01,0.02 0,0.02 0.01,0.02 0,0.02 0.01,0.03 0.01,0.02 0.01,0.05 0.01,0.04 0,0.03 0.01,0.02 0,0.02 0.01,0.02 0,0.02 0.01,0.02 0,0.02 0.01,0.01 0,0.01 0,0.01 0,0 0,0.01 0,0 0,0.01 0,0 0,0.01 0.01,0 0,0 0,0.01 0,0 c 0,0.19 -0.14,0.5 -0.57,0.5 -0.68,0 -3.57,-0.28 -4.45,-0.36 -0.28,-0.03 -0.77,-0.06 -0.77,-0.8 0,-0.48 0.49,-0.48 0.91,-0.48 1.67,0 1.67,-0.25 1.67,-0.53 0,-0.24 -0.08,-0.46 -0.14,-0.77 l -4.92,-19.72 c -0.17,-0.62 -0.17,-0.68 -0.17,-0.76 0,-0.52 0.42,-1.11 1.19,-1.11 0.93,0 1.39,0.69 1.61,1.45 0.06,0.14 1.56,6.28 1.7,6.77 2.47,-0.25 4.45,-1.05 4.45,-2.86 0,-0.17 0,-0.35 -0.06,-0.69 -0.14,-0.53 -0.14,-0.7 -0.14,-1.09 0,-2.47 2.01,-3.58 3.69,-3.58 3.39,0 4.43,5.29 4.43,5.33 0,0.45 -0.45,0.45 -0.56,0.45 -0.48,0 -0.53,-0.17 -0.7,-0.84 -0.41,-1.5 -1.36,-3.97 -3.06,-3.97 -0.94,0 -1.22,0.87 -1.22,1.81 0,0.59 0,0.66 0.2,1.56 0.05,0.11 0.19,0.7 0.19,1.1 0,3.09 -4.19,3.57 -5.66,3.68 1.02,0.63 2.3,1.78 2.89,2.3 1.78,1.67 3.53,3.31 5.47,3.31 0.42,0 0.88,-0.11 1.16,-0.45 -1.5,-0.25 -1.82,-1.42 -1.82,-1.95 0,-0.77 0.6,-1.29 1.39,-1.29 0.96,0 1.99,0.77 1.99,2.22 0,1.16 -0.83,2.44 -2.67,2.44 -1.99,0 -3.8,-1.42 -5.58,-3.06 -1.47,-1.39 -2.61,-2.47 -4.05,-3.06 z"
             id="path4119" /><path
             style="fill:#000000;stroke-width:0"
             inkscape:connector-curvature="0"
             d="m 569.07,431.01 0.05,0.03 0.06,0.03 0.05,0.02 0.05,0.03 0.05,0.03 0.05,0.03 0.05,0.02 0.04,0.03 0.05,0.03 0.04,0.03 0.04,0.03 0.04,0.02 0.03,0.03 0.04,0.03 0.03,0.03 0.03,0.04 0.03,0.03 0.03,0.03 0.02,0.03 0.03,0.04 0.02,0.03 0.02,0.04 0.02,0.04 0.02,0.04 0.01,0.04 0.01,0.04 0.02,0.04 0,0.04 0.01,0.05 0.01,0.05 0,0.04 0,0.06 c 0,0.54 -0.45,1 -1,1 -0.14,0 -0.25,0 -0.89,-0.35 l -27.61,-13.01 c -0.55,-0.25 -0.94,-0.5 -0.94,-1.1 0,-0.59 0.39,-0.84 0.94,-1.09 l 27.61,-13 c 0.64,-0.36 0.75,-0.36 0.89,-0.36 0.55,0 1,0.45 1,1 0,0.55 -0.34,0.8 -0.95,1.09 l -26.16,12.36 z"
             id="path4121" /><path
             style="fill:#000000;stroke-width:0"
             inkscape:connector-curvature="0"
             d="m 594.32,410.04 5.28,5.13 c 7.77,6.87 10.77,9.56 10.77,14.54 0,5.69 -4.48,9.68 -10.56,9.68 -5.64,0 -9.33,-4.6 -9.33,-9.03 0,-2.79 2.5,-2.79 2.64,-2.79 0.86,0 2.6,0.6 2.6,2.64 0,1.3 -0.9,2.6 -2.65,2.6 -0.39,0 -0.5,0 -0.64,-0.05 1.14,3.24 3.83,5.08 6.72,5.08 4.53,0 6.69,-4.05 6.69,-8.13 0,-3.98 -2.5,-7.92 -5.24,-11.01 l -9.56,-10.66 c -0.56,-0.54 -0.56,-0.64 -0.56,-1.84 h 18.49 l 1.4,8.67 h -1.25 c -0.25,-1.5 -0.59,-3.69 -1.09,-4.44 -0.36,-0.39 -3.64,-0.39 -4.74,-0.39 z"
             id="path4123" /></g>      </g>
    </g>
    <text
       xml:space="preserve"
       style="font-size:40px;font-style:normal;font-weight:normal;line-height:125%;letter-spacing:0px;word-spacing:0px;fill:#000000;fill-opacity:1;stroke:none;font-family:Sans"
       x="1601.5454"
       y="1582.8185"
       id="text4227"
       sodipodi:linespacing="125%"><tspan
         sodipodi:role="line"
         id="tspan4229"
         x="1601.5454"
         y="1582.8185">After categorizing</tspan></text>
    <text
       sodipodi:linespacing="125%"
       id="text4233"
       y="1579.0022"
       x="2250.1226"
       style="font-size:40px;font-style:normal;font-weight:normal;text-align:center;line-height:125%;letter-spacing:0px;word-spacing:0px;text-anchor:middle;fill:#000000;fill-opacity:1;stroke:none;font-family:Sans"
       xml:space="preserve"><tspan
         y="1579.0022"
         x="2250.1226"
         id="tspan4235"
         sodipodi:role="line">After self-consistent</tspan><tspan
         y="1629.0022"
         x="2250.1226"
         sodipodi:role="line"
         id="tspan4237">Algorithm</tspan></text>
    <text
       xml:space="preserve"
       style="font-size:40px;font-style:normal;font-weight:normal;line-height:125%;letter-spacing:0px;word-spacing:0px;fill:#000000;fill-opacity:1;stroke:none;font-family:Sans"
       x="1675.3123"
       y="961.52411"
       id="text4239"
       sodipodi:linespacing="125%"><tspan
         sodipodi:role="line"
         id="tspan4241"
         x="1675.3123"
         y="961.52411">Number of potential conflicts</tspan></text>
    <text
       xml:space="preserve"
       style="font-size:40px;font-style:normal;font-weight:normal;line-height:125%;letter-spacing:0px;word-spacing:0px;fill:#000000;fill-opacity:1;stroke:none;font-family:Sans"
       x="1273.9221"
       y="849.83093"
       id="text4366"
       sodipodi:linespacing="125%"><tspan
         sodipodi:role="line"
         id="tspan4368"
         x="1273.9221"
         y="849.83093">43251</tspan></text>
    <text
       sodipodi:linespacing="125%"
       id="text4372"
       y="1397.3225"
       x="1712.472"
       style="font-size:40px;font-style:normal;font-weight:normal;line-height:125%;letter-spacing:0px;word-spacing:0px;fill:#000000;fill-opacity:1;stroke:none;font-family:Sans"
       xml:space="preserve"><tspan
         y="1397.3225"
         x="1712.472"
         id="tspan4374"
         sodipodi:role="line">6083</tspan></text>
    <text
       xml:space="preserve"
       style="font-size:40px;font-style:normal;font-weight:normal;line-height:125%;letter-spacing:0px;word-spacing:0px;fill:#000000;fill-opacity:1;stroke:none;font-family:Sans"
       x="2172.4722"
       y="1457.3225"
       id="text4376"
       sodipodi:linespacing="125%"><tspan
         sodipodi:role="line"
         id="tspan4378"
         x="2172.4722"
         y="1457.3225">2401</tspan></text>
  </g>
</svg>
