<?xml version="1.0" encoding="UTF-8" standalone="no"?>
<!-- Created with Inkscape (http://www.inkscape.org/) -->

<svg
   xmlns:dc="http://purl.org/dc/elements/1.1/"
   xmlns:cc="http://creativecommons.org/ns#"
   xmlns:rdf="http://www.w3.org/1999/02/22-rdf-syntax-ns#"
   xmlns:svg="http://www.w3.org/2000/svg"
   xmlns="http://www.w3.org/2000/svg"
   xmlns:sodipodi="http://sodipodi.sourceforge.net/DTD/sodipodi-0.dtd"
   xmlns:inkscape="http://www.inkscape.org/namespaces/inkscape"
   width="400.96524"
   height="201.33716"
   id="svg2"
   version="1.1"
   inkscape:version="0.48.4 r9939"
   sodipodi:docname="potential_conflict.svg"
   inkscape:export-filename="/home/tobias/projects/qcfatm/precalculation/analysis/pics/potential_conflict.png"
   inkscape:export-xdpi="90"
   inkscape:export-ydpi="90">
  <sodipodi:namedview
     id="base"
     pagecolor="#ffffff"
     bordercolor="#666666"
     borderopacity="1.0"
     inkscape:pageopacity="0.0"
     inkscape:pageshadow="2"
     inkscape:zoom="3.1676409"
     inkscape:cx="200.06475"
     inkscape:cy="100.24832"
     inkscape:document-units="px"
     inkscape:current-layer="layer1"
     showgrid="false"
     inkscape:window-width="1600"
     inkscape:window-height="834"
     inkscape:window-x="0"
     inkscape:window-y="27"
     inkscape:window-maximized="1"
     fit-margin-top="0"
     fit-margin-left="0"
     fit-margin-right="0"
     fit-margin-bottom="0" />
  <defs
     id="defs4">
    <marker
       style="overflow:visible"
       id="Arrow1Lend"
       refX="0"
       refY="0"
       orient="auto"
       inkscape:stockid="Arrow1Lend">
      <path
         inkscape:connector-curvature="0"
         transform="matrix(-0.8,0,0,-0.8,-10,0)"
         style="fill-rule:evenodd;stroke:#000000;stroke-width:1pt"
         d="M 0,0 5,-5 -12.5,0 5,5 0,0 z"
         id="path3762" />
    </marker>
    <marker
       style="overflow:visible"
       id="Arrow1LendH"
       refX="0"
       refY="0"
       orient="auto"
       inkscape:stockid="Arrow1LendH">
      <path
         inkscape:connector-curvature="0"
         transform="matrix(-0.8,0,0,-0.8,-10,0)"
         style="fill:#000080;fill-rule:evenodd;stroke:#000080;stroke-width:1pt"
         d="M 0,0 5,-5 -12.5,0 5,5 0,0 z"
         id="path5471" />
    </marker>
    <marker
       style="overflow:visible"
       id="Arrow1LendT"
       refX="0"
       refY="0"
       orient="auto"
       inkscape:stockid="Arrow1LendT">
      <path
         inkscape:connector-curvature="0"
         transform="matrix(-0.8,0,0,-0.8,-10,0)"
         style="fill:#008000;fill-rule:evenodd;stroke:#008000;stroke-width:1pt"
         d="M 0,0 5,-5 -12.5,0 5,5 0,0 z"
         id="path5674" />
    </marker>
    <marker
       style="overflow:visible"
       id="Arrow1LendHs"
       refX="0"
       refY="0"
       orient="auto"
       inkscape:stockid="Arrow1LendHs">
      <path
         inkscape:connector-curvature="0"
         transform="matrix(-0.8,0,0,-0.8,-10,0)"
         style="fill:#000000;fill-rule:evenodd;stroke:#000000;stroke-width:1pt"
         d="M 0,0 5,-5 -12.5,0 5,5 0,0 z"
         id="path3384" />
    </marker>
  </defs>
  <metadata
     id="metadata7">
    <rdf:RDF>
      <cc:Work
         rdf:about="">
        <dc:format>image/svg+xml</dc:format>
        <dc:type
           rdf:resource="http://purl.org/dc/dcmitype/StillImage" />
        <dc:title />
      </cc:Work>
    </rdf:RDF>
  </metadata>
  <g
     transform="translate(-44.091408,-428.75154)"
     id="layer1"
     inkscape:groupmode="layer"
     inkscape:label="Ebene 1">
    <g
       id="g4062"
       transform="translate(206.58923,510.39325)">
      <g
         word-spacing="normal"
         letter-spacing="normal"
         font-size-adjust="none"
         font-stretch="normal"
         font-weight="normal"
         font-variant="normal"
         font-style="normal"
         stroke-miterlimit="10.433"
         xml:space="preserve"
         transform="matrix(0.25852177,0,0,-0.25852177,-45.24131,137.18913)"
         id="g4064"
         style="font-style:normal;font-variant:normal;font-weight:normal;font-stretch:normal;letter-spacing:normal;word-spacing:normal;text-anchor:start;fill:none;stroke:#000000;stroke-linecap:butt;stroke-linejoin:miter;stroke-miterlimit:10.43299961;stroke-opacity:1;stroke-dasharray:none;stroke-dashoffset:0"><path
           id="path4066"
           d="m 477.54,440.98 -0.04,0.06 -0.03,0.06 -0.03,0.05 -0.02,0.05 -0.03,0.05 -0.03,0.05 -0.03,0.05 -0.02,0.04 -0.03,0.04 -0.03,0.04 -0.02,0.04 -0.03,0.03 -0.03,0.04 -0.03,0.03 -0.03,0.03 -0.03,0.03 -0.03,0.02 -0.04,0.03 -0.04,0.02 -0.03,0.02 -0.05,0.02 -0.04,0.01 -0.05,0.02 -0.04,0.01 -0.06,0.01 -0.05,0.01 -0.06,0.01 -0.06,0.01 -0.07,0 -0.07,0.01 -0.07,0 -0.04,0 -0.04,0 c -0.85,0 -0.94,-0.25 -1.28,-0.89 l -0.32,-4.09 13.41,-26.91 h -26.86 l 13.45,26.91 0.32,4.09 -16.85,-33.78 c -0.25,-0.45 -0.25,-0.55 -0.25,-0.59 0,-0.41 0.3,-0.41 1.1,-0.41 h 34.58 c 0.79,0 1.09,0 1.09,0.41 0,0.04 0,0.14 -0.25,0.59 z"
           inkscape:connector-curvature="0"
           style="fill:#000000;stroke-width:0" /><path
           id="path4068"
           d="m 507.3,426.12 h 4.69 c 0.99,0 1.49,0 1.49,1 0,0.55 -0.5,0.55 -1.39,0.55 h -4.39 c 1.79,7.08 2.04,8.08 2.04,8.37 0,0.85 -0.59,1.35 -1.44,1.35 -0.15,0 -1.54,-0.05 -2,-1.8 l -1.93,-7.92 h -4.69 c -1,0 -1.5,0 -1.5,-0.94 0,-0.61 0.41,-0.61 1.41,-0.61 h 4.37 c -3.58,-14.14 -3.78,-14.98 -3.78,-15.89 0,-2.69 1.89,-4.58 4.58,-4.58 5.08,0 7.92,7.27 7.92,7.67 0,0.5 -0.39,0.5 -0.59,0.5 -0.46,0 -0.5,-0.15 -0.75,-0.7 -2.14,-5.17 -4.79,-6.37 -6.47,-6.37 -1.05,0 -1.55,0.65 -1.55,2.29 0,1.19 0.09,1.55 0.3,2.39 z"
           inkscape:connector-curvature="0"
           style="fill:#000000;stroke-width:0" /><path
           id="path4070"
           d="m 560.23,439.93 0.02,0.04 0.02,0.03 0.01,0.03 0.02,0.03 0.01,0.02 0.02,0.03 0.01,0.03 0.02,0.03 0.01,0.02 0.02,0.03 0.01,0.02 0.01,0.02 0.01,0.03 0.01,0.02 0.02,0.02 0.01,0.02 0.02,0.04 0.01,0.04 0.02,0.03 0.02,0.04 0.01,0.03 0.01,0.02 0.01,0.03 0.01,0.03 0.01,0.02 0.01,0.02 0,0.02 0.01,0.02 0.01,0.02 0,0.02 0,0.02 0,0.01 0.01,0.02 0,0.01 0,0.03 0,0.02 0,0.03 c 0,0.36 -0.3,1 -0.98,1 -0.61,0 -0.75,-0.3 -1.11,-1 l -22.36,-43.48 c -0.41,-0.71 -0.41,-0.8 -0.41,-0.96 0,-0.39 0.36,-1 1,-1 0.59,0 0.75,0.3 1.09,1 z"
           inkscape:connector-curvature="0"
           style="fill:#000000;stroke-width:0" /><path
           id="path4072"
           d="m 563.07,422.5 0.14,0 0.15,0 0.14,0 0.08,0.01 0.07,0 0.07,0.01 0.07,0.01 0.07,0.01 0.07,0.01 0.07,0.01 0.07,0.02 0.06,0.02 0.06,0.02 0.06,0.02 0.06,0.03 0.06,0.03 0.05,0.04 0.05,0.03 0.05,0.05 0.04,0.04 0.04,0.05 0.02,0.03 0.02,0.03 0.01,0.02 0.02,0.03 0.01,0.03 0.02,0.04 0.01,0.03 0.01,0.04 0.01,0.03 0.01,0.04 0.01,0.04 0,0.04 0.01,0.04 0,0.04 0,0.04 0,0.05 c 0,1 -0.95,1 -1.64,1 h -29.84 c -0.71,0 -1.64,0 -1.64,-1 0,-0.98 0.93,-0.98 1.68,-0.98 z"
           inkscape:connector-curvature="0"
           style="fill:#000000;stroke-width:0" /><path
           id="path4074"
           d="m 563.12,412.82 0.07,0 0.06,0 0.14,0.01 0.14,0 0.07,0 0.07,0.01 0.07,0.01 0.07,0 0.06,0.01 0.07,0.02 0.07,0.01 0.06,0.02 0.07,0.02 0.06,0.02 0.06,0.02 0.06,0.03 0.05,0.03 0.05,0.04 0.05,0.04 0.05,0.04 0.04,0.05 0.02,0.02 0.02,0.03 0.02,0.02 0.02,0.03 0.01,0.03 0.02,0.03 0.01,0.03 0.02,0.03 0.01,0.04 0.01,0.03 0.01,0.04 0.01,0.04 0.01,0.04 0,0.04 0.01,0.04 0,0.04 0,0.05 0,0.04 c 0,1 -0.95,1 -1.69,1 h -29.75 c -0.75,0 -1.68,0 -1.68,-1 0,-1 0.93,-1 1.64,-1 z"
           inkscape:connector-curvature="0"
           style="fill:#000000;stroke-width:0" /><path
           id="path4076"
           d="m 604.44,422.14 -0.01,0.74 -0.01,0.75 -0.02,0.75 -0.03,0.74 -0.04,0.75 -0.06,0.74 -0.08,0.74 -0.1,0.73 -0.11,0.73 -0.14,0.73 -0.16,0.72 -0.19,0.72 -0.22,0.72 -0.24,0.7 -0.28,0.7 -0.15,0.35 -0.16,0.34 c -2.28,4.8 -6.38,5.6 -8.47,5.6 -2.99,0 -6.63,-1.3 -8.67,-5.94 -1.6,-3.44 -1.85,-7.33 -1.85,-11.31 0,-3.74 0.21,-8.22 2.25,-12 2.14,-4.03 5.78,-5.03 8.22,-5.03 v 1.09 c -1.94,0 -4.89,1.25 -5.78,6.03 -0.55,2.98 -0.55,7.56 -0.55,10.52 0,3.18 0,6.46 0.41,9.15 0.94,5.94 4.67,6.38 5.92,6.38 1.64,0 4.94,-0.89 5.88,-5.83 0.5,-2.78 0.5,-6.58 0.5,-9.7 0,-3.75 0,-7.13 -0.55,-10.32 -0.75,-4.73 -3.59,-6.23 -5.83,-6.23 h 0 v -1.09 c 2.69,0 6.47,1.04 8.67,5.78 1.6,3.43 1.85,7.31 1.85,11.25 z"
           inkscape:connector-curvature="0"
           style="fill:#000000;stroke-width:0" /></g>    </g>
    <path
       style="fill:none;stroke:#000000;stroke-width:1px;stroke-linecap:butt;stroke-linejoin:miter;stroke-opacity:1;marker-end:url(#Arrow1LendHs)"
       d="m 102.60649,597.96519 c 4.28571,-65.71429 25.71429,-87.85714 34.28571,-97.14285 8.57144,-9.28571 39.28571,-27.85715 58.57144,-49.28571 19.28572,-21.42858 19.28572,-21.42858 19.28572,-21.42858"
       id="path3302"
       inkscape:connector-curvature="0" />
    <path
       transform="translate(270.49715,370.11004)"
       d="m 121.84104,119.59558 c 0,11.11848 -9.01331,20.13178 -20.13178,20.13178 -11.118476,0 -20.131782,-9.0133 -20.131782,-20.13178 0,-11.11847 9.013306,-20.13178 20.131782,-20.13178 11.11847,0 20.13178,9.01331 20.13178,20.13178 z"
       sodipodi:ry="20.131781"
       sodipodi:rx="20.131781"
       sodipodi:cy="119.59558"
       sodipodi:cx="101.70926"
       id="path6369"
       style="fill:none;stroke:#ff0000;stroke-width:1;stroke-miterlimit:4;stroke-opacity:1;stroke-dasharray:4, 1;stroke-dashoffset:0"
       sodipodi:type="arc" />
    <g
       transform="matrix(0.31256969,0,0,0.31256969,-2.2390367,489.18355)"
       id="g4761">
      <g
         style="font-style:normal;font-variant:normal;font-weight:normal;font-stretch:normal;letter-spacing:normal;word-spacing:normal;text-anchor:start;fill:none;stroke:#000000;stroke-linecap:butt;stroke-linejoin:miter;stroke-miterlimit:10.43299961;stroke-opacity:1;stroke-dasharray:none;stroke-dashoffset:0"
         word-spacing="normal"
         letter-spacing="normal"
         font-size-adjust="none"
         font-stretch="normal"
         font-weight="normal"
         font-variant="normal"
         font-style="normal"
         stroke-miterlimit="10.433"
         xml:space="preserve"
         transform="matrix(1.0629921,0,0,-1.0629921,-186.02362,789.27165)"
         id="content"><path
           style="fill:#000000;stroke-width:0"
           inkscape:connector-curvature="0"
           id="path4764"
           d="m 470.16,438.09 0,0.05 0,0.06 0,0.05 0,0.05 0,0.05 0,0.05 0,0.04 0,0.05 0,0.04 0,0.04 -0.01,0.04 0,0.04 0,0.04 0,0.03 0,0.04 -0.01,0.03 -0.01,0.07 0,0.06 -0.02,0.05 -0.01,0.05 -0.02,0.05 -0.02,0.04 -0.02,0.04 -0.02,0.03 -0.03,0.03 -0.03,0.03 -0.04,0.03 -0.04,0.02 -0.04,0.02 -0.03,0.01 -0.02,0.01 -0.03,0 -0.02,0.01 -0.03,0.01 -0.03,0 -0.03,0.01 -0.03,0 -0.04,0.01 -0.03,0 -0.04,0 -0.03,0.01 -0.04,0 -0.04,0 -0.05,0 -0.04,0 -0.04,0 -0.05,0.01 -0.05,0 -0.05,0 -0.05,0 -0.05,0 c -3.09,-3.19 -7.47,-3.19 -9.06,-3.19 v -1.55 c 1,0 3.93,0 6.51,1.3 v -25.81 c 0,-1.8 -0.14,-2.39 -4.62,-2.39 h -1.6 v -1.55 c 1.75,0.16 6.08,0.16 8.07,0.16 2,0 6.32,0 8.07,-0.16 v 1.55 h -1.59 c -4.48,0 -4.64,0.54 -4.64,2.39 z" /></g>    </g>
    <g
       transform="matrix(0.31256969,0,0,0.31256969,239.05988,470.72743)"
       id="g4868">
      <g
         style="font-style:normal;font-variant:normal;font-weight:normal;font-stretch:normal;letter-spacing:normal;word-spacing:normal;text-anchor:start;fill:none;stroke:#000000;stroke-linecap:butt;stroke-linejoin:miter;stroke-miterlimit:10.43299961;stroke-opacity:1;stroke-dasharray:none;stroke-dashoffset:0"
         id="g4870"
         transform="matrix(1.0629921,0,0,-1.0629921,-186.02362,789.27165)"
         xml:space="preserve"
         stroke-miterlimit="10.433"
         font-style="normal"
         font-variant="normal"
         font-weight="normal"
         font-stretch="normal"
         font-size-adjust="none"
         letter-spacing="normal"
         word-spacing="normal"><path
           style="fill:#000000;stroke-width:0"
           inkscape:connector-curvature="0"
           d="m 465.79,426.12 h 4.68 c 0.99,0 1.49,0 1.49,1 0,0.55 -0.5,0.55 -1.39,0.55 h -4.39 c 1.79,7.08 2.04,8.08 2.04,8.37 0,0.85 -0.59,1.35 -1.43,1.35 -0.16,0 -1.55,-0.05 -2,-1.8 l -1.94,-7.92 h -4.69 c -1,0 -1.5,0 -1.5,-0.94 0,-0.61 0.41,-0.61 1.41,-0.61 h 4.37 c -3.58,-14.14 -3.78,-14.98 -3.78,-15.89 0,-2.69 1.89,-4.58 4.58,-4.58 5.08,0 7.92,7.27 7.92,7.67 0,0.5 -0.39,0.5 -0.59,0.5 -0.46,0 -0.5,-0.15 -0.75,-0.7 -2.14,-5.17 -4.78,-6.37 -6.47,-6.37 -1.05,0 -1.55,0.65 -1.55,2.29 0,1.19 0.09,1.55 0.3,2.39 z"
           id="path4872" /><path
           style="fill:#000000;stroke-width:0"
           inkscape:connector-curvature="0"
           d="m 485.19,420.92 0,0.04 0,0.04 0,0.05 0,0.04 0,0.03 0,0.04 0,0.04 0,0.03 -0.01,0.04 0,0.03 0,0.03 0,0.03 0,0.03 -0.01,0.03 0,0.03 0,0.02 -0.01,0.03 0,0.02 -0.01,0.03 0,0.02 -0.02,0.04 -0.01,0.04 -0.02,0.03 -0.02,0.03 -0.02,0.03 -0.02,0.03 -0.03,0.02 -0.03,0.02 -0.03,0.02 -0.04,0.01 -0.04,0.01 -0.05,0.02 -0.02,0 -0.02,0 -0.03,0.01 -0.03,0 -0.02,0.01 -0.03,0 -0.03,0 -0.03,0 -0.03,0 -0.04,0.01 -0.03,0 -0.04,0 -0.03,0 -0.04,0 -0.04,0 -0.04,0 -0.04,0 -0.05,0 -0.04,0 -0.05,0 c -2.23,-2.2 -5.39,-2.23 -6.82,-2.23 v -1.25 c 0.84,0 3.14,0 5.04,0.97 v -17.77 c 0,-1.16 0,-1.61 -3.48,-1.61 h -1.31 v -1.25 c 0.62,0.03 4.9,0.14 6.2,0.14 1.08,0 5.47,-0.11 6.23,-0.14 v 1.25 h -1.32 c -3.49,0 -3.49,0.45 -3.49,1.61 z"
           id="path4874" /></g>    </g>
    <g
       transform="matrix(0.31256969,0,0,0.31256969,246.85611,436.54907)"
       id="g4920">
      <g
         style="font-style:normal;font-variant:normal;font-weight:normal;font-stretch:normal;letter-spacing:normal;word-spacing:normal;text-anchor:start;fill:none;stroke:#000000;stroke-linecap:butt;stroke-linejoin:miter;stroke-miterlimit:10.43299961;stroke-opacity:1;stroke-dasharray:none;stroke-dashoffset:0"
         word-spacing="normal"
         letter-spacing="normal"
         font-size-adjust="none"
         font-stretch="normal"
         font-weight="normal"
         font-variant="normal"
         font-style="normal"
         stroke-miterlimit="10.433"
         xml:space="preserve"
         transform="matrix(1.0629921,0,0,-1.0629921,-186.02362,789.27165)"
         id="g4922"><path
           style="fill:#000000;stroke-width:0"
           inkscape:connector-curvature="0"
           id="path4924"
           d="m 465.79,426.12 h 4.68 c 0.99,0 1.49,0 1.49,1 0,0.55 -0.5,0.55 -1.39,0.55 h -4.39 c 1.79,7.08 2.04,8.08 2.04,8.37 0,0.85 -0.59,1.35 -1.43,1.35 -0.16,0 -1.55,-0.05 -2,-1.8 l -1.94,-7.92 h -4.69 c -1,0 -1.5,0 -1.5,-0.94 0,-0.61 0.41,-0.61 1.41,-0.61 h 4.37 c -3.58,-14.14 -3.78,-14.98 -3.78,-15.89 0,-2.69 1.89,-4.58 4.58,-4.58 5.08,0 7.92,7.27 7.92,7.67 0,0.5 -0.39,0.5 -0.59,0.5 -0.46,0 -0.5,-0.15 -0.75,-0.7 -2.14,-5.17 -4.78,-6.37 -6.47,-6.37 -1.05,0 -1.55,0.65 -1.55,2.29 0,1.19 0.09,1.55 0.3,2.39 z" /><path
           style="fill:#000000;stroke-width:0"
           inkscape:connector-curvature="0"
           id="path4926"
           d="m 491.11,405.11 h -1.18 c -0.1,-0.77 -0.46,-2.83 -0.91,-3.18 -0.27,-0.2 -2.95,-0.2 -3.44,-0.2 h -6.42 c 3.66,3.23 4.88,4.2 6.97,5.84 2.58,2.07 4.98,4.22 4.98,7.54 0,4.21 -3.68,6.79 -8.15,6.79 -4.32,0 -7.25,-3.03 -7.25,-6.23 0,-1.78 1.5,-1.96 1.86,-1.96 0.82,0 1.84,0.6 1.84,1.85 0,0.62 -0.25,1.84 -2.06,1.84 1.08,2.47 3.45,3.24 5.09,3.24 3.49,0 5.3,-2.71 5.3,-5.53 0,-3.04 -2.16,-5.44 -3.28,-6.69 l -8.39,-8.3 c -0.36,-0.31 -0.36,-0.39 -0.36,-1.36 h 14.36 z" /></g>    </g>
    <g
       transform="matrix(0.31256969,0,0,0.31256969,20.004771,468.10413)"
       id="g4980">
      <g
         style="font-style:normal;font-variant:normal;font-weight:normal;font-stretch:normal;letter-spacing:normal;word-spacing:normal;text-anchor:start;fill:none;stroke:#000000;stroke-linecap:butt;stroke-linejoin:miter;stroke-miterlimit:10.43299961;stroke-opacity:1;stroke-dasharray:none;stroke-dashoffset:0"
         id="g4982"
         transform="matrix(1.0629921,0,0,-1.0629921,-186.02362,789.27165)"
         xml:space="preserve"
         stroke-miterlimit="10.433"
         font-style="normal"
         font-variant="normal"
         font-weight="normal"
         font-stretch="normal"
         font-size-adjust="none"
         letter-spacing="normal"
         word-spacing="normal"><path
           style="fill:#000000;stroke-width:0"
           inkscape:connector-curvature="0"
           d="m 465.79,426.12 h 4.68 c 0.99,0 1.49,0 1.49,1 0,0.55 -0.5,0.55 -1.39,0.55 h -4.39 c 1.79,7.08 2.04,8.08 2.04,8.37 0,0.85 -0.59,1.35 -1.43,1.35 -0.16,0 -1.55,-0.05 -2,-1.8 l -1.94,-7.92 h -4.69 c -1,0 -1.5,0 -1.5,-0.94 0,-0.61 0.41,-0.61 1.41,-0.61 h 4.37 c -3.58,-14.14 -3.78,-14.98 -3.78,-15.89 0,-2.69 1.89,-4.58 4.58,-4.58 5.08,0 7.92,7.27 7.92,7.67 0,0.5 -0.39,0.5 -0.59,0.5 -0.46,0 -0.5,-0.15 -0.75,-0.7 -2.14,-5.17 -4.78,-6.37 -6.47,-6.37 -1.05,0 -1.55,0.65 -1.55,2.29 0,1.19 0.09,1.55 0.3,2.39 z"
           id="path4984" /><path
           style="fill:#000000;stroke-width:0"
           inkscape:connector-curvature="0"
           d="m 483.04,410.4 0.25,0 0.25,-0.02 0.24,-0.03 0.24,-0.04 0.23,-0.05 0.23,-0.06 0.22,-0.07 0.21,-0.08 0.21,-0.1 0.2,-0.1 0.2,-0.12 0.19,-0.12 0.18,-0.14 0.17,-0.15 0.17,-0.16 0.16,-0.17 0.15,-0.18 0.14,-0.19 0.14,-0.2 0.13,-0.22 0.11,-0.22 0.11,-0.24 0.1,-0.24 0.09,-0.26 0.08,-0.27 0.07,-0.28 0.06,-0.29 0.05,-0.3 0.04,-0.31 0.02,-0.32 0.02,-0.33 0.01,-0.35 c 0,-4.33 -2.52,-5.61 -4.53,-5.61 -1.39,0 -4.47,0.38 -5.93,2.44 1.63,0.06 2.02,1.22 2.02,1.95 0,1.11 -0.84,1.91 -1.92,1.91 -0.97,0 -1.96,-0.59 -1.96,-2.02 0,-3.28 3.63,-5.4 7.85,-5.4 4.84,0 8.19,3.25 8.19,6.73 0,2.72 -2.22,5.44 -6.07,6.24 3.66,1.33 4.99,3.93 4.99,6.06 0,2.75 -3.17,4.81 -7.03,4.81 -3.88,0 -6.83,-1.89 -6.83,-4.67 0,-1.19 0.76,-1.84 1.81,-1.84 1.08,0 1.77,0.79 1.77,1.76 0,1.02 -0.69,1.75 -1.77,1.81 1.22,1.55 3.61,1.93 4.91,1.93 1.56,0 3.76,-0.77 3.76,-3.8 0,-1.47 -0.48,-3.06 -1.39,-4.14 -1.15,-1.33 -2.12,-1.41 -3.87,-1.5 -0.88,-0.08 -0.94,-0.08 -1.11,-0.11 -0.08,0 -0.36,-0.06 -0.36,-0.45 0,-0.49 0.31,-0.49 0.9,-0.49 z"
           id="path4986" /></g>    </g>
    <g
       transform="matrix(0.31256969,0,0,0.31256969,29.192098,436.00035)"
       id="g5048">
      <g
         style="font-style:normal;font-variant:normal;font-weight:normal;font-stretch:normal;letter-spacing:normal;word-spacing:normal;text-anchor:start;fill:none;stroke:#000000;stroke-linecap:butt;stroke-linejoin:miter;stroke-miterlimit:10.43299961;stroke-opacity:1;stroke-dasharray:none;stroke-dashoffset:0"
         word-spacing="normal"
         letter-spacing="normal"
         font-size-adjust="none"
         font-stretch="normal"
         font-weight="normal"
         font-variant="normal"
         font-style="normal"
         stroke-miterlimit="10.433"
         xml:space="preserve"
         transform="matrix(1.0629921,0,0,-1.0629921,-186.02362,789.27165)"
         id="g5050"><path
           style="fill:#000000;stroke-width:0"
           inkscape:connector-curvature="0"
           id="path5052"
           d="m 465.79,426.12 h 4.68 c 0.99,0 1.49,0 1.49,1 0,0.55 -0.5,0.55 -1.39,0.55 h -4.39 c 1.79,7.08 2.04,8.08 2.04,8.37 0,0.85 -0.59,1.35 -1.43,1.35 -0.16,0 -1.55,-0.05 -2,-1.8 l -1.94,-7.92 h -4.69 c -1,0 -1.5,0 -1.5,-0.94 0,-0.61 0.41,-0.61 1.41,-0.61 h 4.37 c -3.58,-14.14 -3.78,-14.98 -3.78,-15.89 0,-2.69 1.89,-4.58 4.58,-4.58 5.08,0 7.92,7.27 7.92,7.67 0,0.5 -0.39,0.5 -0.59,0.5 -0.46,0 -0.5,-0.15 -0.75,-0.7 -2.14,-5.17 -4.78,-6.37 -6.47,-6.37 -1.05,0 -1.55,0.65 -1.55,2.29 0,1.19 0.09,1.55 0.3,2.39 z" /><path
           style="fill:#000000;stroke-width:0"
           inkscape:connector-curvature="0"
           id="path5054"
           d="m 491.96,404.48 v 1.25 h -3.88 v 15.55 c 0,0.72 0,0.97 -0.76,0.97 -0.43,0 -0.57,0 -0.91,-0.49 l -11.53,-16.03 v -1.25 h 10.25 l 0.23,1.25 h -9.2 l 9.2,12.75 v -12.75 l -0.23,-1.25 v -2.86 c 0,-1.19 0,-1.61 -2.83,-1.61 h -0.94 v -1.25 c 1.74,0.06 3.97,0.14 5.22,0.14 1.3,0 3.52,-0.08 5.27,-0.14 v 1.25 h -0.94 c -2.83,0 -2.83,0.42 -2.83,1.61 v 2.86 z" /></g>    </g>
    <g
       transform="matrix(0.31256969,0,0,0.31256969,42.768928,407.28995)"
       id="g5124">
      <g
         style="font-style:normal;font-variant:normal;font-weight:normal;font-stretch:normal;letter-spacing:normal;word-spacing:normal;text-anchor:start;fill:none;stroke:#000000;stroke-linecap:butt;stroke-linejoin:miter;stroke-miterlimit:10.43299961;stroke-opacity:1;stroke-dasharray:none;stroke-dashoffset:0"
         id="g5126"
         transform="matrix(1.0629921,0,0,-1.0629921,-186.02362,789.27165)"
         xml:space="preserve"
         stroke-miterlimit="10.433"
         font-style="normal"
         font-variant="normal"
         font-weight="normal"
         font-stretch="normal"
         font-size-adjust="none"
         letter-spacing="normal"
         word-spacing="normal"><path
           style="fill:#000000;stroke-width:0"
           inkscape:connector-curvature="0"
           d="m 465.79,426.12 h 4.68 c 0.99,0 1.49,0 1.49,1 0,0.55 -0.5,0.55 -1.39,0.55 h -4.39 c 1.79,7.08 2.04,8.08 2.04,8.37 0,0.85 -0.59,1.35 -1.43,1.35 -0.16,0 -1.55,-0.05 -2,-1.8 l -1.94,-7.92 h -4.69 c -1,0 -1.5,0 -1.5,-0.94 0,-0.61 0.41,-0.61 1.41,-0.61 h 4.37 c -3.58,-14.14 -3.78,-14.98 -3.78,-15.89 0,-2.69 1.89,-4.58 4.58,-4.58 5.08,0 7.92,7.27 7.92,7.67 0,0.5 -0.39,0.5 -0.59,0.5 -0.46,0 -0.5,-0.15 -0.75,-0.7 -2.14,-5.17 -4.78,-6.37 -6.47,-6.37 -1.05,0 -1.55,0.65 -1.55,2.29 0,1.19 0.09,1.55 0.3,2.39 z"
           id="path5128" /><path
           style="fill:#000000;stroke-width:0"
           inkscape:connector-curvature="0"
           d="m 478.93,418.2 0.16,-0.04 0.16,-0.04 0.15,-0.04 0.15,-0.03 0.15,-0.03 0.14,-0.03 0.14,-0.03 0.14,-0.02 0.13,-0.03 0.13,-0.02 0.12,-0.02 0.12,-0.01 0.12,-0.02 0.11,-0.01 0.11,-0.02 0.1,-0.01 0.11,-0.01 0.09,-0.01 0.1,0 0.09,-0.01 0.09,-0.01 0.08,0 0.09,0 0.07,-0.01 0.08,0 0.07,0 0.07,0 0.07,0 0.06,0 0.06,0 0.06,0 0.05,0 c 4.59,0 7.31,3.14 7.31,3.67 0,0.37 -0.23,0.48 -0.4,0.48 -0.08,0 -0.14,0 -0.28,-0.11 -0.85,-0.31 -2.69,-1.01 -5.27,-1.01 -0.97,0 -2.83,0.08 -5.09,0.95 -0.35,0.17 -0.41,0.17 -0.46,0.17 -0.45,0 -0.45,-0.39 -0.45,-0.94 v -10.28 c 0,-0.59 0,-1.01 0.56,-1.01 0.32,0 0.35,0.06 0.71,0.48 1.5,1.92 3.62,2.21 4.84,2.21 2.08,0 3.03,-1.68 3.2,-1.96 0.63,-1.15 0.83,-2.47 0.83,-4.5 0,-1.04 0,-3.09 -1.05,-4.62 -0.86,-1.27 -2.36,-2.1 -4.06,-2.1 -2.26,0 -4.61,1.25 -5.48,3.55 1.33,-0.09 1.98,0.77 1.98,1.7 0,1.5 -1.28,1.78 -1.73,1.78 -0.07,0 -1.75,0 -1.75,-1.87 0,-3.14 2.86,-6.28 7.04,-6.28 4.46,0 8.36,3.31 8.36,7.7 0,3.94 -3,7.56 -7.31,7.56 -1.53,0 -3.34,-0.37 -4.87,-1.7 z"
           id="path5130" /></g>    </g>
    <g
       transform="matrix(0.31256969,0,0,0.31256969,57.099519,361.82672)"
       id="g5208">
      <g
         style="font-style:normal;font-variant:normal;font-weight:normal;font-stretch:normal;letter-spacing:normal;word-spacing:normal;text-anchor:start;fill:none;stroke:#000000;stroke-linecap:butt;stroke-linejoin:miter;stroke-miterlimit:10.43299961;stroke-opacity:1;stroke-dasharray:none;stroke-dashoffset:0"
         word-spacing="normal"
         letter-spacing="normal"
         font-size-adjust="none"
         font-stretch="normal"
         font-weight="normal"
         font-variant="normal"
         font-style="normal"
         stroke-miterlimit="10.433"
         xml:space="preserve"
         transform="matrix(1.0629921,0,0,-1.0629921,-186.02362,789.27165)"
         id="g5210"><path
           style="fill:#000000;stroke-width:0"
           inkscape:connector-curvature="0"
           id="path5212"
           d="m 465.79,426.12 h 4.68 c 0.99,0 1.49,0 1.49,1 0,0.55 -0.5,0.55 -1.39,0.55 h -4.39 c 1.79,7.08 2.04,8.08 2.04,8.37 0,0.85 -0.59,1.35 -1.43,1.35 -0.16,0 -1.55,-0.05 -2,-1.8 l -1.94,-7.92 h -4.69 c -1,0 -1.5,0 -1.5,-0.94 0,-0.61 0.41,-0.61 1.41,-0.61 h 4.37 c -3.58,-14.14 -3.78,-14.98 -3.78,-15.89 0,-2.69 1.89,-4.58 4.58,-4.58 5.08,0 7.92,7.27 7.92,7.67 0,0.5 -0.39,0.5 -0.59,0.5 -0.46,0 -0.5,-0.15 -0.75,-0.7 -2.14,-5.17 -4.78,-6.37 -6.47,-6.37 -1.05,0 -1.55,0.65 -1.55,2.29 0,1.19 0.09,1.55 0.3,2.39 z" /><path
           style="fill:#000000;stroke-width:0"
           inkscape:connector-curvature="0"
           id="path5214"
           d="m 478.75,410.15 0.01,0.53 0.01,0.53 0.01,0.52 0.03,0.51 0.04,0.51 0.05,0.49 0.06,0.49 0.08,0.48 0.09,0.47 0.11,0.46 0.13,0.46 0.14,0.44 0.08,0.22 0.09,0.21 0.09,0.22 0.1,0.21 0.1,0.21 0.11,0.2 0.11,0.2 0.13,0.2 c 1.18,1.9 3.06,3.18 5.29,3.18 1.05,0 2.44,-0.28 3.14,-1.22 -0.87,-0.06 -1.61,-0.66 -1.61,-1.67 0,-0.88 0.6,-1.64 1.65,-1.64 1.04,0 1.67,0.7 1.67,1.7 0,2.03 -1.47,3.84 -4.92,3.84 -5.02,0 -10.15,-4.61 -10.15,-12.09 0,-9.03 4.25,-11.75 8.1,-11.75 4.25,0 7.94,3.25 7.94,7.81 0,4.42 -3.52,7.7 -7.6,7.7 l -0.17,-0.98 c 1.61,0 2.69,-0.63 3.55,-1.91 0.84,-1.32 0.87,-2.79 0.87,-4.81 0,-1.98 0,-3.45 -0.94,-4.81 -0.84,-1.22 -1.95,-1.88 -3.65,-1.88 h 0 c -1.75,0 -3.11,1 -3.85,2.55 -0.51,1.03 -0.79,2.78 -0.79,4.88 0,3.37 2.03,5.98 4.81,5.98 l 0.17,0.98 c -2.78,0 -4.31,-1.84 -5.08,-3.42 z" /></g>    </g>
    <g
       transform="matrix(0.31256969,0,0,0.31256969,84.895538,338.50193)"
       id="g5300">
      <g
         style="font-style:normal;font-variant:normal;font-weight:normal;font-stretch:normal;letter-spacing:normal;word-spacing:normal;text-anchor:start;fill:none;stroke:#000000;stroke-linecap:butt;stroke-linejoin:miter;stroke-miterlimit:10.43299961;stroke-opacity:1;stroke-dasharray:none;stroke-dashoffset:0"
         id="g5302"
         transform="matrix(1.0629921,0,0,-1.0629921,-186.02362,789.27165)"
         xml:space="preserve"
         stroke-miterlimit="10.433"
         font-style="normal"
         font-variant="normal"
         font-weight="normal"
         font-stretch="normal"
         font-size-adjust="none"
         letter-spacing="normal"
         word-spacing="normal"><path
           style="fill:#000000;stroke-width:0"
           inkscape:connector-curvature="0"
           d="m 465.79,426.12 h 4.68 c 0.99,0 1.49,0 1.49,1 0,0.55 -0.5,0.55 -1.39,0.55 h -4.39 c 1.79,7.08 2.04,8.08 2.04,8.37 0,0.85 -0.59,1.35 -1.43,1.35 -0.16,0 -1.55,-0.05 -2,-1.8 l -1.94,-7.92 h -4.69 c -1,0 -1.5,0 -1.5,-0.94 0,-0.61 0.41,-0.61 1.41,-0.61 h 4.37 c -3.58,-14.14 -3.78,-14.98 -3.78,-15.89 0,-2.69 1.89,-4.58 4.58,-4.58 5.08,0 7.92,7.27 7.92,7.67 0,0.5 -0.39,0.5 -0.59,0.5 -0.46,0 -0.5,-0.15 -0.75,-0.7 -2.14,-5.17 -4.78,-6.37 -6.47,-6.37 -1.05,0 -1.55,0.65 -1.55,2.29 0,1.19 0.09,1.55 0.3,2.39 z"
           id="path5304" /><path
           style="fill:#000000;stroke-width:0"
           inkscape:connector-curvature="0"
           d="m 492.16,419.81 0.03,0.04 0.03,0.03 0.03,0.04 0.02,0.03 0.03,0.03 0.02,0.04 0.02,0.03 0.02,0.03 0.02,0.03 0.01,0.03 0.02,0.03 0.01,0.02 0.01,0.04 0.01,0.03 0.01,0.03 0.01,0.03 0.01,0.04 0.01,0.03 0,0.04 0.01,0.04 0,0.04 0,0.05 0.01,0.05 0,0.05 0,0.05 0,0.06 0,0.06 0,0.07 0,0.07 0,0.03 0,0.04 0,0.04 0,0.04 0,0.04 0,0.04 h -9.12 c -1.39,0 -1.78,0.03 -3.03,0.14 -1.81,0.14 -1.88,0.39 -1.99,0.98 h -1.18 l -1.22,-7.46 h 1.18 c 0.07,0.53 0.43,2.82 0.97,3.17 0.28,0.22 3.11,0.22 3.63,0.22 h 7.59 c -1.11,-1.47 -2.89,-3.63 -3.61,-4.61 -4.58,-5.99 -4.98,-11.53 -4.98,-13.58 0,-0.39 0,-2 1.62,-2 1.68,0 1.68,1.58 1.68,2.03 v 1.39 c 0,6.77 1.4,9.86 2.9,11.73 z"
           id="path5306" /></g>    </g>
    <path
       transform="translate(-20.065226,148.43549)"
       sodipodi:type="arc"
       style="stroke-width:3;stroke-miterlimit:4;stroke-dasharray:none"
       id="path5355"
       sodipodi:cx="133.32327"
       sodipodi:cy="390.99792"
       sodipodi:rx="3.2320795"
       sodipodi:ry="3.2320795"
       d="m 136.55535,390.99792 c 0,1.78503 -1.44705,3.23208 -3.23208,3.23208 -1.78503,0 -3.23208,-1.44705 -3.23208,-3.23208 0,-1.78502 1.44705,-3.23207 3.23208,-3.23207 1.78503,0 3.23208,1.44705 3.23208,3.23207 z" />
    <path
       d="m 136.55535,390.99792 c 0,1.78503 -1.44705,3.23208 -3.23208,3.23208 -1.78503,0 -3.23208,-1.44705 -3.23208,-3.23208 0,-1.78502 1.44705,-3.23207 3.23208,-3.23207 1.78503,0 3.23208,1.44705 3.23208,3.23207 z"
       sodipodi:ry="3.2320795"
       sodipodi:rx="3.2320795"
       sodipodi:cy="390.99792"
       sodipodi:cx="133.32327"
       id="path5357"
       style="stroke-width:3;stroke-miterlimit:4;stroke-dasharray:none"
       sodipodi:type="arc"
       transform="translate(-27.874523,182.63638)" />
    <path
       transform="translate(-3.9023061,120.44814)"
       sodipodi:type="arc"
       style="stroke-width:3;stroke-miterlimit:4;stroke-dasharray:none"
       id="path5359"
       sodipodi:cx="133.32327"
       sodipodi:cy="390.99792"
       sodipodi:rx="3.2320795"
       sodipodi:ry="3.2320795"
       d="m 136.55535,390.99792 c 0,1.78503 -1.44705,3.23208 -3.23208,3.23208 -1.78503,0 -3.23208,-1.44705 -3.23208,-3.23208 0,-1.78502 1.44705,-3.23207 3.23208,-3.23207 1.78503,0 3.23208,1.44705 3.23208,3.23207 z" />
    <path
       d="m 136.55535,390.99792 c 0,1.78503 -1.44705,3.23208 -3.23208,3.23208 -1.78503,0 -3.23208,-1.44705 -3.23208,-3.23208 0,-1.78502 1.44705,-3.23207 3.23208,-3.23207 1.78503,0 3.23208,1.44705 3.23208,3.23207 z"
       sodipodi:ry="3.2320795"
       sodipodi:rx="3.2320795"
       sodipodi:cy="390.99792"
       sodipodi:cx="133.32327"
       id="path5361"
       style="stroke-width:3;stroke-miterlimit:4;stroke-dasharray:none"
       sodipodi:type="arc"
       transform="translate(24.379471,93.731023)" />
    <path
       transform="translate(51.907121,70.083959)"
       sodipodi:type="arc"
       style="stroke-width:3;stroke-miterlimit:4;stroke-dasharray:none"
       id="path5363"
       sodipodi:cx="133.32327"
       sodipodi:cy="390.99792"
       sodipodi:rx="3.2320795"
       sodipodi:ry="3.2320795"
       d="m 136.55535,390.99792 c 0,1.78503 -1.44705,3.23208 -3.23208,3.23208 -1.78503,0 -3.23208,-1.44705 -3.23208,-3.23208 0,-1.78502 1.44705,-3.23207 3.23208,-3.23207 1.78503,0 3.23208,1.44705 3.23208,3.23207 z" />
    <g
       transform="translate(-42.014149,-9.4531848)"
       id="g3266">
      <path
         style="fill:none;stroke:#000080;stroke-width:1px;stroke-linecap:butt;stroke-linejoin:miter;stroke-opacity:1;marker-end:url(#Arrow1LendH)"
         d="m 97.857143,470.21932 c 65.714287,4.28572 87.857147,25.71429 97.142857,34.28572 9.28571,8.57143 27.85714,39.28571 49.28571,58.57143 21.42858,19.28571 21.42858,19.28571 21.42858,19.28571"
         id="path4199"
         inkscape:connector-curvature="0" />
      <g
         style="fill:#000080"
         id="g4790"
         transform="matrix(0.31256969,0,0,0.31256969,-7.9030044,362.79641)">
        <g
           word-spacing="normal"
           letter-spacing="normal"
           font-size-adjust="none"
           font-stretch="normal"
           font-weight="normal"
           font-variant="normal"
           font-style="normal"
           stroke-miterlimit="10.433"
           xml:space="preserve"
           transform="matrix(1.0629921,0,0,-1.0629921,-186.02362,789.27165)"
           id="g4792"
           style="font-style:normal;font-variant:normal;font-weight:normal;font-stretch:normal;letter-spacing:normal;word-spacing:normal;text-anchor:start;fill:#000080;stroke:#000000;stroke-linecap:butt;stroke-linejoin:miter;stroke-miterlimit:10.43299961;stroke-opacity:1;stroke-dasharray:none;stroke-dashoffset:0"><path
             id="path4794"
             d="m 461.85,410.04 5.28,5.13 c 7.76,6.87 10.76,9.56 10.76,14.54 0,5.69 -4.48,9.68 -10.56,9.68 -5.64,0 -9.33,-4.6 -9.33,-9.03 0,-2.79 2.5,-2.79 2.64,-2.79 0.86,0 2.6,0.6 2.6,2.64 0,1.3 -0.89,2.6 -2.64,2.6 -0.39,0 -0.5,0 -0.64,-0.05 1.14,3.24 3.83,5.08 6.72,5.08 4.53,0 6.68,-4.05 6.68,-8.13 0,-3.98 -2.5,-7.92 -5.23,-11.01 l -9.56,-10.66 C 458,407.5 458,407.4 458,406.2 h 18.49 l 1.4,8.67 h -1.25 c -0.25,-1.5 -0.59,-3.69 -1.09,-4.44 -0.36,-0.39 -3.64,-0.39 -4.73,-0.39 z"
             inkscape:connector-curvature="0"
             style="fill:#000080;stroke-width:0" /></g>      </g>
      <path
         transform="translate(63.025543,114.33481)"
         sodipodi:type="arc"
         style="fill:#000080;stroke-width:3;stroke-miterlimit:4;stroke-dasharray:none"
         id="path5369"
         sodipodi:cx="133.32327"
         sodipodi:cy="390.99792"
         sodipodi:rx="3.2320795"
         sodipodi:ry="3.2320795"
         d="m 136.55535,390.99792 c 0,1.78503 -1.44705,3.23208 -3.23208,3.23208 -1.78503,0 -3.23208,-1.44705 -3.23208,-3.23208 0,-1.78502 1.44705,-3.23207 3.23208,-3.23207 1.78503,0 3.23208,1.44705 3.23208,3.23207 z" />
      <path
         d="m 136.55535,390.99792 c 0,1.78503 -1.44705,3.23208 -3.23208,3.23208 -1.78503,0 -3.23208,-1.44705 -3.23208,-3.23208 0,-1.78502 1.44705,-3.23207 3.23208,-3.23207 1.78503,0 3.23208,1.44705 3.23208,3.23207 z"
         sodipodi:ry="3.2320795"
         sodipodi:rx="3.2320795"
         sodipodi:cy="390.99792"
         sodipodi:cx="133.32327"
         id="path5371"
         style="fill:#000080;stroke-width:3;stroke-miterlimit:4;stroke-dasharray:none"
         sodipodi:type="arc"
         transform="translate(21.81653,89.690204)" />
      <path
         transform="translate(-28.280702,79.589956)"
         sodipodi:type="arc"
         style="fill:#000080;stroke-width:3;stroke-miterlimit:4;stroke-dasharray:none"
         id="path5373"
         sodipodi:cx="133.32327"
         sodipodi:cy="390.99792"
         sodipodi:rx="3.2320795"
         sodipodi:ry="3.2320795"
         d="m 136.55535,390.99792 c 0,1.78503 -1.44705,3.23208 -3.23208,3.23208 -1.78503,0 -3.23208,-1.44705 -3.23208,-3.23208 0,-1.78502 1.44705,-3.23207 3.23208,-3.23207 1.78503,0 3.23208,1.44705 3.23208,3.23207 z" />
      <path
         d="m 136.55535,390.99792 c 0,1.78503 -1.44705,3.23208 -3.23208,3.23208 -1.78503,0 -3.23208,-1.44705 -3.23208,-3.23208 0,-1.78502 1.44705,-3.23207 3.23208,-3.23207 1.78503,0 3.23208,1.44705 3.23208,3.23207 z"
         sodipodi:ry="3.2320795"
         sodipodi:rx="3.2320795"
         sodipodi:cy="390.99792"
         sodipodi:cx="133.32327"
         id="path5375"
         style="fill:#000080;stroke-width:3;stroke-miterlimit:4;stroke-dasharray:none"
         sodipodi:type="arc"
         transform="translate(88.478169,147.86763)" />
      <g
         style="fill:#000080"
         transform="matrix(0.31256969,0,0,0.31256969,9.4694228,350.2721)"
         id="g5385">
        <g
           style="font-style:normal;font-variant:normal;font-weight:normal;font-stretch:normal;letter-spacing:normal;word-spacing:normal;text-anchor:start;fill:#000080;stroke:#000000;stroke-linecap:butt;stroke-linejoin:miter;stroke-miterlimit:10.43299961;stroke-opacity:1;stroke-dasharray:none;stroke-dashoffset:0"
           id="g5387"
           transform="matrix(1.0629921,0,0,-1.0629921,-186.02362,789.27165)"
           xml:space="preserve"
           stroke-miterlimit="10.433"
           font-style="normal"
           font-variant="normal"
           font-weight="normal"
           font-stretch="normal"
           font-size-adjust="none"
           letter-spacing="normal"
           word-spacing="normal"><path
             style="fill:#000080;stroke-width:0"
             inkscape:connector-curvature="0"
             d="m 465.79,426.12 h 4.68 c 0.99,0 1.49,0 1.49,1 0,0.55 -0.5,0.55 -1.39,0.55 h -4.39 c 1.79,7.08 2.04,8.08 2.04,8.37 0,0.85 -0.59,1.35 -1.43,1.35 -0.16,0 -1.55,-0.05 -2,-1.8 l -1.94,-7.92 h -4.69 c -1,0 -1.5,0 -1.5,-0.94 0,-0.61 0.41,-0.61 1.41,-0.61 h 4.37 c -3.58,-14.14 -3.78,-14.98 -3.78,-15.89 0,-2.69 1.89,-4.58 4.58,-4.58 5.08,0 7.92,7.27 7.92,7.67 0,0.5 -0.39,0.5 -0.59,0.5 -0.46,0 -0.5,-0.15 -0.75,-0.7 -2.14,-5.17 -4.78,-6.37 -6.47,-6.37 -1.05,0 -1.55,0.65 -1.55,2.29 0,1.19 0.09,1.55 0.3,2.39 z"
             id="path5389" /><path
             style="fill:#000080;stroke-width:0"
             inkscape:connector-curvature="0"
             d="m 485.19,420.92 0,0.04 0,0.04 0,0.05 0,0.04 0,0.03 0,0.04 0,0.04 0,0.03 -0.01,0.04 0,0.03 0,0.03 0,0.03 0,0.03 -0.01,0.03 0,0.03 0,0.02 -0.01,0.03 0,0.02 -0.01,0.03 0,0.02 -0.02,0.04 -0.01,0.04 -0.02,0.03 -0.02,0.03 -0.02,0.03 -0.02,0.03 -0.03,0.02 -0.03,0.02 -0.03,0.02 -0.04,0.01 -0.04,0.01 -0.05,0.02 -0.02,0 -0.02,0 -0.03,0.01 -0.03,0 -0.02,0.01 -0.03,0 -0.03,0 -0.03,0 -0.03,0 -0.04,0.01 -0.03,0 -0.04,0 -0.03,0 -0.04,0 -0.04,0 -0.04,0 -0.04,0 -0.05,0 -0.04,0 -0.05,0 c -2.23,-2.2 -5.39,-2.23 -6.82,-2.23 v -1.25 c 0.84,0 3.14,0 5.04,0.97 v -17.77 c 0,-1.16 0,-1.61 -3.48,-1.61 h -1.31 v -1.25 c 0.62,0.03 4.9,0.14 6.2,0.14 1.08,0 5.47,-0.11 6.23,-0.14 v 1.25 h -1.32 c -3.49,0 -3.49,0.45 -3.49,1.61 z"
             id="path5391" /></g>      </g>
      <g
         style="fill:#000080"
         id="g5401"
         transform="matrix(0.31256969,0,0,0.31256969,61.990714,359.56433)">
        <g
           id="g5403"
           transform="matrix(1.0629921,0,0,-1.0629921,-186.02362,789.27165)"
           xml:space="preserve"
           stroke-miterlimit="10.433"
           font-style="normal"
           font-variant="normal"
           font-weight="normal"
           font-stretch="normal"
           font-size-adjust="none"
           letter-spacing="normal"
           word-spacing="normal"
           style="font-style:normal;font-variant:normal;font-weight:normal;font-stretch:normal;letter-spacing:normal;word-spacing:normal;text-anchor:start;fill:#000080;stroke:#000000;stroke-linecap:butt;stroke-linejoin:miter;stroke-miterlimit:10.43299961;stroke-opacity:1;stroke-dasharray:none;stroke-dashoffset:0"><path
             d="m 465.79,426.12 h 4.68 c 0.99,0 1.49,0 1.49,1 0,0.55 -0.5,0.55 -1.39,0.55 h -4.39 c 1.79,7.08 2.04,8.08 2.04,8.37 0,0.85 -0.59,1.35 -1.43,1.35 -0.16,0 -1.55,-0.05 -2,-1.8 l -1.94,-7.92 h -4.69 c -1,0 -1.5,0 -1.5,-0.94 0,-0.61 0.41,-0.61 1.41,-0.61 h 4.37 c -3.58,-14.14 -3.78,-14.98 -3.78,-15.89 0,-2.69 1.89,-4.58 4.58,-4.58 5.08,0 7.92,7.27 7.92,7.67 0,0.5 -0.39,0.5 -0.59,0.5 -0.46,0 -0.5,-0.15 -0.75,-0.7 -2.14,-5.17 -4.78,-6.37 -6.47,-6.37 -1.05,0 -1.55,0.65 -1.55,2.29 0,1.19 0.09,1.55 0.3,2.39 z"
             id="path5405"
             inkscape:connector-curvature="0"
             style="fill:#000080;stroke-width:0" /><path
             d="m 491.11,405.11 h -1.18 c -0.1,-0.77 -0.46,-2.83 -0.91,-3.18 -0.27,-0.2 -2.95,-0.2 -3.44,-0.2 h -6.42 c 3.66,3.23 4.88,4.2 6.97,5.84 2.58,2.07 4.98,4.22 4.98,7.54 0,4.21 -3.68,6.79 -8.15,6.79 -4.32,0 -7.25,-3.03 -7.25,-6.23 0,-1.78 1.5,-1.96 1.86,-1.96 0.82,0 1.84,0.6 1.84,1.85 0,0.62 -0.25,1.84 -2.06,1.84 1.08,2.47 3.45,3.24 5.09,3.24 3.49,0 5.3,-2.71 5.3,-5.53 0,-3.04 -2.16,-5.44 -3.28,-6.69 l -8.39,-8.3 c -0.36,-0.31 -0.36,-0.39 -0.36,-1.36 h 14.36 z"
             id="path5407"
             inkscape:connector-curvature="0"
             style="fill:#000080;stroke-width:0" /></g>      </g>
      <g
         style="fill:#000080"
         transform="matrix(0.31256969,0,0,0.31256969,113.62297,401.06956)"
         id="g5409">
        <g
           style="font-style:normal;font-variant:normal;font-weight:normal;font-stretch:normal;letter-spacing:normal;word-spacing:normal;text-anchor:start;fill:#000080;stroke:#000000;stroke-linecap:butt;stroke-linejoin:miter;stroke-miterlimit:10.43299961;stroke-opacity:1;stroke-dasharray:none;stroke-dashoffset:0"
           id="g5411"
           transform="matrix(1.0629921,0,0,-1.0629921,-186.02362,789.27165)"
           xml:space="preserve"
           stroke-miterlimit="10.433"
           font-style="normal"
           font-variant="normal"
           font-weight="normal"
           font-stretch="normal"
           font-size-adjust="none"
           letter-spacing="normal"
           word-spacing="normal"><path
             style="fill:#000080;stroke-width:0"
             inkscape:connector-curvature="0"
             d="m 465.79,426.12 h 4.68 c 0.99,0 1.49,0 1.49,1 0,0.55 -0.5,0.55 -1.39,0.55 h -4.39 c 1.79,7.08 2.04,8.08 2.04,8.37 0,0.85 -0.59,1.35 -1.43,1.35 -0.16,0 -1.55,-0.05 -2,-1.8 l -1.94,-7.92 h -4.69 c -1,0 -1.5,0 -1.5,-0.94 0,-0.61 0.41,-0.61 1.41,-0.61 h 4.37 c -3.58,-14.14 -3.78,-14.98 -3.78,-15.89 0,-2.69 1.89,-4.58 4.58,-4.58 5.08,0 7.92,7.27 7.92,7.67 0,0.5 -0.39,0.5 -0.59,0.5 -0.46,0 -0.5,-0.15 -0.75,-0.7 -2.14,-5.17 -4.78,-6.37 -6.47,-6.37 -1.05,0 -1.55,0.65 -1.55,2.29 0,1.19 0.09,1.55 0.3,2.39 z"
             id="path5413" /><path
             style="fill:#000080;stroke-width:0"
             inkscape:connector-curvature="0"
             d="m 483.04,410.4 0.25,0 0.25,-0.02 0.24,-0.03 0.24,-0.04 0.23,-0.05 0.23,-0.06 0.22,-0.07 0.21,-0.08 0.21,-0.1 0.2,-0.1 0.2,-0.12 0.19,-0.12 0.18,-0.14 0.17,-0.15 0.17,-0.16 0.16,-0.17 0.15,-0.18 0.14,-0.19 0.14,-0.2 0.13,-0.22 0.11,-0.22 0.11,-0.24 0.1,-0.24 0.09,-0.26 0.08,-0.27 0.07,-0.28 0.06,-0.29 0.05,-0.3 0.04,-0.31 0.02,-0.32 0.02,-0.33 0.01,-0.35 c 0,-4.33 -2.52,-5.61 -4.53,-5.61 -1.39,0 -4.47,0.38 -5.93,2.44 1.63,0.06 2.02,1.22 2.02,1.95 0,1.11 -0.84,1.91 -1.92,1.91 -0.97,0 -1.96,-0.59 -1.96,-2.02 0,-3.28 3.63,-5.4 7.85,-5.4 4.84,0 8.19,3.25 8.19,6.73 0,2.72 -2.22,5.44 -6.07,6.24 3.66,1.33 4.99,3.93 4.99,6.06 0,2.75 -3.17,4.81 -7.03,4.81 -3.88,0 -6.83,-1.89 -6.83,-4.67 0,-1.19 0.76,-1.84 1.81,-1.84 1.08,0 1.77,0.79 1.77,1.76 0,1.02 -0.69,1.75 -1.77,1.81 1.22,1.55 3.61,1.93 4.91,1.93 1.56,0 3.76,-0.77 3.76,-3.8 0,-1.47 -0.48,-3.06 -1.39,-4.14 -1.15,-1.33 -2.12,-1.41 -3.87,-1.5 -0.88,-0.08 -0.94,-0.08 -1.11,-0.11 -0.08,0 -0.36,-0.06 -0.36,-0.45 0,-0.49 0.31,-0.49 0.9,-0.49 z"
             id="path5415" /></g>      </g>
      <g
         style="fill:#000080"
         transform="matrix(0.31256969,0,0,0.31256969,123.40022,446.83048)"
         id="g5425">
        <g
           style="font-style:normal;font-variant:normal;font-weight:normal;font-stretch:normal;letter-spacing:normal;word-spacing:normal;text-anchor:start;fill:#000080;stroke:#000000;stroke-linecap:butt;stroke-linejoin:miter;stroke-miterlimit:10.43299961;stroke-opacity:1;stroke-dasharray:none;stroke-dashoffset:0"
           word-spacing="normal"
           letter-spacing="normal"
           font-size-adjust="none"
           font-stretch="normal"
           font-weight="normal"
           font-variant="normal"
           font-style="normal"
           stroke-miterlimit="10.433"
           xml:space="preserve"
           transform="matrix(1.0629921,0,0,-1.0629921,-186.02362,789.27165)"
           id="g5427"><path
             style="fill:#000080;stroke-width:0"
             inkscape:connector-curvature="0"
             id="path5429"
             d="m 465.79,426.12 h 4.68 c 0.99,0 1.49,0 1.49,1 0,0.55 -0.5,0.55 -1.39,0.55 h -4.39 c 1.79,7.08 2.04,8.08 2.04,8.37 0,0.85 -0.59,1.35 -1.43,1.35 -0.16,0 -1.55,-0.05 -2,-1.8 l -1.94,-7.92 h -4.69 c -1,0 -1.5,0 -1.5,-0.94 0,-0.61 0.41,-0.61 1.41,-0.61 h 4.37 c -3.58,-14.14 -3.78,-14.98 -3.78,-15.89 0,-2.69 1.89,-4.58 4.58,-4.58 5.08,0 7.92,7.27 7.92,7.67 0,0.5 -0.39,0.5 -0.59,0.5 -0.46,0 -0.5,-0.15 -0.75,-0.7 -2.14,-5.17 -4.78,-6.37 -6.47,-6.37 -1.05,0 -1.55,0.65 -1.55,2.29 0,1.19 0.09,1.55 0.3,2.39 z" /><path
             style="fill:#000080;stroke-width:0"
             inkscape:connector-curvature="0"
             id="path5431"
             d="m 491.96,404.48 v 1.25 h -3.88 v 15.55 c 0,0.72 0,0.97 -0.76,0.97 -0.43,0 -0.57,0 -0.91,-0.49 l -11.53,-16.03 v -1.25 h 10.25 l 0.23,1.25 h -9.2 l 9.2,12.75 v -12.75 l -0.23,-1.25 v -2.86 c 0,-1.19 0,-1.61 -2.83,-1.61 h -0.94 v -1.25 c 1.74,0.06 3.97,0.14 5.22,0.14 1.3,0 3.52,-0.08 5.27,-0.14 v 1.25 h -0.94 c -2.83,0 -2.83,0.42 -2.83,1.61 v 2.86 z" /></g>      </g>
    </g>
    <g
       transform="translate(-13.303131,510.32187)"
       id="g3676">
      <g
         style="font-style:normal;font-variant:normal;font-weight:normal;font-stretch:normal;letter-spacing:normal;word-spacing:normal;text-anchor:start;fill:none;stroke:#000000;stroke-linecap:butt;stroke-linejoin:miter;stroke-miterlimit:10.43299961;stroke-opacity:1;stroke-dasharray:none;stroke-dashoffset:0"
         id="g3678"
         transform="matrix(0.25852177,0,0,-0.25852177,-45.24131,137.18913)"
         xml:space="preserve"
         stroke-miterlimit="10.433"
         font-style="normal"
         font-variant="normal"
         font-weight="normal"
         font-stretch="normal"
         font-size-adjust="none"
         letter-spacing="normal"
         word-spacing="normal"><path
           style="fill:#000000;stroke-width:0"
           inkscape:connector-curvature="0"
           d="m 477.54,440.98 -0.04,0.06 -0.03,0.06 -0.03,0.05 -0.02,0.05 -0.03,0.05 -0.03,0.05 -0.03,0.05 -0.02,0.04 -0.03,0.04 -0.03,0.04 -0.02,0.04 -0.03,0.03 -0.03,0.04 -0.03,0.03 -0.03,0.03 -0.03,0.03 -0.03,0.02 -0.04,0.03 -0.04,0.02 -0.03,0.02 -0.05,0.02 -0.04,0.01 -0.05,0.02 -0.04,0.01 -0.06,0.01 -0.05,0.01 -0.06,0.01 -0.06,0.01 -0.07,0 -0.07,0.01 -0.07,0 -0.04,0 -0.04,0 c -0.85,0 -0.94,-0.25 -1.28,-0.89 l -0.32,-4.09 13.41,-26.91 h -26.86 l 13.45,26.91 0.32,4.09 -16.85,-33.78 c -0.25,-0.45 -0.25,-0.55 -0.25,-0.59 0,-0.41 0.3,-0.41 1.1,-0.41 h 34.58 c 0.79,0 1.09,0 1.09,0.41 0,0.04 0,0.14 -0.25,0.59 z"
           id="path3680" /><path
           style="fill:#000000;stroke-width:0"
           inkscape:connector-curvature="0"
           d="m 507.3,426.12 h 4.69 c 0.99,0 1.49,0 1.49,1 0,0.55 -0.5,0.55 -1.39,0.55 h -4.39 c 1.79,7.08 2.04,8.08 2.04,8.37 0,0.85 -0.59,1.35 -1.44,1.35 -0.15,0 -1.54,-0.05 -2,-1.8 l -1.93,-7.92 h -4.69 c -1,0 -1.5,0 -1.5,-0.94 0,-0.61 0.41,-0.61 1.41,-0.61 h 4.37 c -3.58,-14.14 -3.78,-14.98 -3.78,-15.89 0,-2.69 1.89,-4.58 4.58,-4.58 5.08,0 7.92,7.27 7.92,7.67 0,0.5 -0.39,0.5 -0.59,0.5 -0.46,0 -0.5,-0.15 -0.75,-0.7 -2.14,-5.17 -4.79,-6.37 -6.47,-6.37 -1.05,0 -1.55,0.65 -1.55,2.29 0,1.19 0.09,1.55 0.3,2.39 z"
           id="path3682" /><path
           style="fill:#000000;stroke-width:0"
           inkscape:connector-curvature="0"
           d="m 563.07,422.5 0.14,0 0.15,0 0.14,0 0.08,0.01 0.07,0 0.07,0.01 0.07,0.01 0.07,0.01 0.07,0.01 0.07,0.01 0.07,0.02 0.06,0.02 0.06,0.02 0.06,0.02 0.06,0.03 0.06,0.03 0.05,0.04 0.05,0.03 0.05,0.05 0.04,0.04 0.04,0.05 0.02,0.03 0.02,0.03 0.01,0.02 0.02,0.03 0.01,0.03 0.02,0.04 0.01,0.03 0.01,0.04 0.01,0.03 0.01,0.04 0.01,0.04 0,0.04 0.01,0.04 0,0.04 0,0.04 0,0.05 c 0,1 -0.95,1 -1.64,1 h -29.84 c -0.71,0 -1.64,0 -1.64,-1 0,-0.98 0.93,-0.98 1.68,-0.98 z"
           id="path3684" /><path
           style="fill:#000000;stroke-width:0"
           inkscape:connector-curvature="0"
           d="m 563.12,412.82 0.07,0 0.06,0 0.14,0.01 0.14,0 0.07,0 0.07,0.01 0.07,0.01 0.07,0 0.06,0.01 0.07,0.02 0.07,0.01 0.06,0.02 0.07,0.02 0.06,0.02 0.06,0.02 0.06,0.03 0.05,0.03 0.05,0.04 0.05,0.04 0.05,0.04 0.04,0.05 0.02,0.02 0.02,0.03 0.02,0.02 0.02,0.03 0.01,0.03 0.02,0.03 0.01,0.03 0.02,0.03 0.01,0.04 0.01,0.03 0.01,0.04 0.01,0.04 0.01,0.04 0,0.04 0.01,0.04 0,0.04 0,0.05 0,0.04 c 0,1 -0.95,1 -1.69,1 h -29.75 c -0.75,0 -1.68,0 -1.68,-1 0,-1 0.93,-1 1.64,-1 z"
           id="path3686" /><path
           style="fill:#000000;stroke-width:0"
           inkscape:connector-curvature="0"
           d="m 604.44,422.14 -0.01,0.74 -0.01,0.75 -0.02,0.75 -0.03,0.74 -0.04,0.75 -0.06,0.74 -0.08,0.74 -0.1,0.73 -0.11,0.73 -0.14,0.73 -0.16,0.72 -0.19,0.72 -0.22,0.72 -0.24,0.7 -0.28,0.7 -0.15,0.35 -0.16,0.34 c -2.28,4.8 -6.38,5.6 -8.47,5.6 -2.99,0 -6.63,-1.3 -8.67,-5.94 -1.6,-3.44 -1.85,-7.33 -1.85,-11.31 0,-3.74 0.21,-8.22 2.25,-12 2.14,-4.03 5.78,-5.03 8.22,-5.03 v 1.09 c -1.94,0 -4.89,1.25 -5.78,6.03 -0.55,2.98 -0.55,7.56 -0.55,10.52 0,3.18 0,6.46 0.41,9.15 0.94,5.94 4.67,6.38 5.92,6.38 1.64,0 4.94,-0.89 5.88,-5.83 0.5,-2.78 0.5,-6.58 0.5,-9.7 0,-3.75 0,-7.13 -0.55,-10.32 -0.75,-4.73 -3.59,-6.23 -5.83,-6.23 h 0 v -1.09 c 2.69,0 6.47,1.04 8.67,5.78 1.6,3.43 1.85,7.31 1.85,11.25 z"
           id="path3688" /></g>    </g>
    <path
       inkscape:connector-curvature="0"
       id="path3796"
       d="m 322.60649,597.96519 c 4.28571,-65.71429 25.71429,-87.85714 34.28571,-97.14285 8.57144,-9.28571 39.28571,-27.85715 58.57144,-49.28571 19.28572,-21.42858 19.28572,-21.42858 19.28572,-21.42858"
       style="fill:none;stroke:#000000;stroke-width:1px;stroke-linecap:butt;stroke-linejoin:miter;stroke-opacity:1;marker-end:url(#Arrow1LendHs)" />
    <g
       id="g3798"
       transform="matrix(0.31256969,0,0,0.31256969,217.44527,491.3934)">
      <g
         id="g3800"
         transform="matrix(1.0629921,0,0,-1.0629921,-186.02362,789.27165)"
         xml:space="preserve"
         stroke-miterlimit="10.433"
         font-style="normal"
         font-variant="normal"
         font-weight="normal"
         font-stretch="normal"
         font-size-adjust="none"
         letter-spacing="normal"
         word-spacing="normal"
         style="font-style:normal;font-variant:normal;font-weight:normal;font-stretch:normal;letter-spacing:normal;word-spacing:normal;text-anchor:start;fill:none;stroke:#000000;stroke-linecap:butt;stroke-linejoin:miter;stroke-miterlimit:10.43299961;stroke-opacity:1;stroke-dasharray:none;stroke-dashoffset:0"><path
           d="m 470.16,438.09 0,0.05 0,0.06 0,0.05 0,0.05 0,0.05 0,0.05 0,0.04 0,0.05 0,0.04 0,0.04 -0.01,0.04 0,0.04 0,0.04 0,0.03 0,0.04 -0.01,0.03 -0.01,0.07 0,0.06 -0.02,0.05 -0.01,0.05 -0.02,0.05 -0.02,0.04 -0.02,0.04 -0.02,0.03 -0.03,0.03 -0.03,0.03 -0.04,0.03 -0.04,0.02 -0.04,0.02 -0.03,0.01 -0.02,0.01 -0.03,0 -0.02,0.01 -0.03,0.01 -0.03,0 -0.03,0.01 -0.03,0 -0.04,0.01 -0.03,0 -0.04,0 -0.03,0.01 -0.04,0 -0.04,0 -0.05,0 -0.04,0 -0.04,0 -0.05,0.01 -0.05,0 -0.05,0 -0.05,0 -0.05,0 c -3.09,-3.19 -7.47,-3.19 -9.06,-3.19 v -1.55 c 1,0 3.93,0 6.51,1.3 v -25.81 c 0,-1.8 -0.14,-2.39 -4.62,-2.39 h -1.6 v -1.55 c 1.75,0.16 6.08,0.16 8.07,0.16 2,0 6.32,0 8.07,-0.16 v 1.55 h -1.59 c -4.48,0 -4.64,0.54 -4.64,2.39 z"
           id="path3802"
           inkscape:connector-curvature="0"
           style="fill:#000000;stroke-width:0" /></g>    </g>
    <g
       id="g3804"
       transform="matrix(0.31256969,0,0,0.31256969,262.85983,412.04455)">
      <g
         word-spacing="normal"
         letter-spacing="normal"
         font-size-adjust="none"
         font-stretch="normal"
         font-weight="normal"
         font-variant="normal"
         font-style="normal"
         stroke-miterlimit="10.433"
         xml:space="preserve"
         transform="matrix(1.0629921,0,0,-1.0629921,-186.02362,789.27165)"
         id="g3806"
         style="font-style:normal;font-variant:normal;font-weight:normal;font-stretch:normal;letter-spacing:normal;word-spacing:normal;text-anchor:start;fill:none;stroke:#000000;stroke-linecap:butt;stroke-linejoin:miter;stroke-miterlimit:10.43299961;stroke-opacity:1;stroke-dasharray:none;stroke-dashoffset:0"><path
           id="path3808"
           d="m 465.79,426.12 h 4.68 c 0.99,0 1.49,0 1.49,1 0,0.55 -0.5,0.55 -1.39,0.55 h -4.39 c 1.79,7.08 2.04,8.08 2.04,8.37 0,0.85 -0.59,1.35 -1.43,1.35 -0.16,0 -1.55,-0.05 -2,-1.8 l -1.94,-7.92 h -4.69 c -1,0 -1.5,0 -1.5,-0.94 0,-0.61 0.41,-0.61 1.41,-0.61 h 4.37 c -3.58,-14.14 -3.78,-14.98 -3.78,-15.89 0,-2.69 1.89,-4.58 4.58,-4.58 5.08,0 7.92,7.27 7.92,7.67 0,0.5 -0.39,0.5 -0.59,0.5 -0.46,0 -0.5,-0.15 -0.75,-0.7 -2.14,-5.17 -4.78,-6.37 -6.47,-6.37 -1.05,0 -1.55,0.65 -1.55,2.29 0,1.19 0.09,1.55 0.3,2.39 z"
           inkscape:connector-curvature="0"
           style="fill:#000000;stroke-width:0" /><path
           id="path3810"
           d="m 483.04,410.4 0.25,0 0.25,-0.02 0.24,-0.03 0.24,-0.04 0.23,-0.05 0.23,-0.06 0.22,-0.07 0.21,-0.08 0.21,-0.1 0.2,-0.1 0.2,-0.12 0.19,-0.12 0.18,-0.14 0.17,-0.15 0.17,-0.16 0.16,-0.17 0.15,-0.18 0.14,-0.19 0.14,-0.2 0.13,-0.22 0.11,-0.22 0.11,-0.24 0.1,-0.24 0.09,-0.26 0.08,-0.27 0.07,-0.28 0.06,-0.29 0.05,-0.3 0.04,-0.31 0.02,-0.32 0.02,-0.33 0.01,-0.35 c 0,-4.33 -2.52,-5.61 -4.53,-5.61 -1.39,0 -4.47,0.38 -5.93,2.44 1.63,0.06 2.02,1.22 2.02,1.95 0,1.11 -0.84,1.91 -1.92,1.91 -0.97,0 -1.96,-0.59 -1.96,-2.02 0,-3.28 3.63,-5.4 7.85,-5.4 4.84,0 8.19,3.25 8.19,6.73 0,2.72 -2.22,5.44 -6.07,6.24 3.66,1.33 4.99,3.93 4.99,6.06 0,2.75 -3.17,4.81 -7.03,4.81 -3.88,0 -6.83,-1.89 -6.83,-4.67 0,-1.19 0.76,-1.84 1.81,-1.84 1.08,0 1.77,0.79 1.77,1.76 0,1.02 -0.69,1.75 -1.77,1.81 1.22,1.55 3.61,1.93 4.91,1.93 1.56,0 3.76,-0.77 3.76,-3.8 0,-1.47 -0.48,-3.06 -1.39,-4.14 -1.15,-1.33 -2.12,-1.41 -3.87,-1.5 -0.88,-0.08 -0.94,-0.08 -1.11,-0.11 -0.08,0 -0.36,-0.06 -0.36,-0.45 0,-0.49 0.31,-0.49 0.9,-0.49 z"
           inkscape:connector-curvature="0"
           style="fill:#000000;stroke-width:0" /></g>    </g>
    <g
       id="g3812"
       transform="matrix(0.31256969,0,0,0.31256969,267.02857,371.74745)">
      <g
         id="g3814"
         transform="matrix(1.0629921,0,0,-1.0629921,-186.02362,789.27165)"
         xml:space="preserve"
         stroke-miterlimit="10.433"
         font-style="normal"
         font-variant="normal"
         font-weight="normal"
         font-stretch="normal"
         font-size-adjust="none"
         letter-spacing="normal"
         word-spacing="normal"
         style="font-style:normal;font-variant:normal;font-weight:normal;font-stretch:normal;letter-spacing:normal;word-spacing:normal;text-anchor:start;fill:none;stroke:#000000;stroke-linecap:butt;stroke-linejoin:miter;stroke-miterlimit:10.43299961;stroke-opacity:1;stroke-dasharray:none;stroke-dashoffset:0"><path
           d="m 465.79,426.12 h 4.68 c 0.99,0 1.49,0 1.49,1 0,0.55 -0.5,0.55 -1.39,0.55 h -4.39 c 1.79,7.08 2.04,8.08 2.04,8.37 0,0.85 -0.59,1.35 -1.43,1.35 -0.16,0 -1.55,-0.05 -2,-1.8 l -1.94,-7.92 h -4.69 c -1,0 -1.5,0 -1.5,-0.94 0,-0.61 0.41,-0.61 1.41,-0.61 h 4.37 c -3.58,-14.14 -3.78,-14.98 -3.78,-15.89 0,-2.69 1.89,-4.58 4.58,-4.58 5.08,0 7.92,7.27 7.92,7.67 0,0.5 -0.39,0.5 -0.59,0.5 -0.46,0 -0.5,-0.15 -0.75,-0.7 -2.14,-5.17 -4.78,-6.37 -6.47,-6.37 -1.05,0 -1.55,0.65 -1.55,2.29 0,1.19 0.09,1.55 0.3,2.39 z"
           id="path3816"
           inkscape:connector-curvature="0"
           style="fill:#000000;stroke-width:0" /><path
           d="m 491.96,404.48 v 1.25 h -3.88 v 15.55 c 0,0.72 0,0.97 -0.76,0.97 -0.43,0 -0.57,0 -0.91,-0.49 l -11.53,-16.03 v -1.25 h 10.25 l 0.23,1.25 h -9.2 l 9.2,12.75 v -12.75 l -0.23,-1.25 v -2.86 c 0,-1.19 0,-1.61 -2.83,-1.61 h -0.94 v -1.25 c 1.74,0.06 3.97,0.14 5.22,0.14 1.3,0 3.52,-0.08 5.27,-0.14 v 1.25 h -0.94 c -2.83,0 -2.83,0.42 -2.83,1.61 v 2.86 z"
           id="path3818"
           inkscape:connector-curvature="0"
           style="fill:#000000;stroke-width:0" /></g>    </g>
    <g
       id="g3820"
       transform="matrix(0.31256969,0,0,0.31256969,302.01064,336.99986)">
      <g
         word-spacing="normal"
         letter-spacing="normal"
         font-size-adjust="none"
         font-stretch="normal"
         font-weight="normal"
         font-variant="normal"
         font-style="normal"
         stroke-miterlimit="10.433"
         xml:space="preserve"
         transform="matrix(1.0629921,0,0,-1.0629921,-186.02362,789.27165)"
         id="g3822"
         style="font-style:normal;font-variant:normal;font-weight:normal;font-stretch:normal;letter-spacing:normal;word-spacing:normal;text-anchor:start;fill:none;stroke:#000000;stroke-linecap:butt;stroke-linejoin:miter;stroke-miterlimit:10.43299961;stroke-opacity:1;stroke-dasharray:none;stroke-dashoffset:0"><path
           id="path3824"
           d="m 465.79,426.12 h 4.68 c 0.99,0 1.49,0 1.49,1 0,0.55 -0.5,0.55 -1.39,0.55 h -4.39 c 1.79,7.08 2.04,8.08 2.04,8.37 0,0.85 -0.59,1.35 -1.43,1.35 -0.16,0 -1.55,-0.05 -2,-1.8 l -1.94,-7.92 h -4.69 c -1,0 -1.5,0 -1.5,-0.94 0,-0.61 0.41,-0.61 1.41,-0.61 h 4.37 c -3.58,-14.14 -3.78,-14.98 -3.78,-15.89 0,-2.69 1.89,-4.58 4.58,-4.58 5.08,0 7.92,7.27 7.92,7.67 0,0.5 -0.39,0.5 -0.59,0.5 -0.46,0 -0.5,-0.15 -0.75,-0.7 -2.14,-5.17 -4.78,-6.37 -6.47,-6.37 -1.05,0 -1.55,0.65 -1.55,2.29 0,1.19 0.09,1.55 0.3,2.39 z"
           inkscape:connector-curvature="0"
           style="fill:#000000;stroke-width:0" /><path
           id="path3826"
           d="m 478.93,418.2 0.16,-0.04 0.16,-0.04 0.15,-0.04 0.15,-0.03 0.15,-0.03 0.14,-0.03 0.14,-0.03 0.14,-0.02 0.13,-0.03 0.13,-0.02 0.12,-0.02 0.12,-0.01 0.12,-0.02 0.11,-0.01 0.11,-0.02 0.1,-0.01 0.11,-0.01 0.09,-0.01 0.1,0 0.09,-0.01 0.09,-0.01 0.08,0 0.09,0 0.07,-0.01 0.08,0 0.07,0 0.07,0 0.07,0 0.06,0 0.06,0 0.06,0 0.05,0 c 4.59,0 7.31,3.14 7.31,3.67 0,0.37 -0.23,0.48 -0.4,0.48 -0.08,0 -0.14,0 -0.28,-0.11 -0.85,-0.31 -2.69,-1.01 -5.27,-1.01 -0.97,0 -2.83,0.08 -5.09,0.95 -0.35,0.17 -0.41,0.17 -0.46,0.17 -0.45,0 -0.45,-0.39 -0.45,-0.94 v -10.28 c 0,-0.59 0,-1.01 0.56,-1.01 0.32,0 0.35,0.06 0.71,0.48 1.5,1.92 3.62,2.21 4.84,2.21 2.08,0 3.03,-1.68 3.2,-1.96 0.63,-1.15 0.83,-2.47 0.83,-4.5 0,-1.04 0,-3.09 -1.05,-4.62 -0.86,-1.27 -2.36,-2.1 -4.06,-2.1 -2.26,0 -4.61,1.25 -5.48,3.55 1.33,-0.09 1.98,0.77 1.98,1.7 0,1.5 -1.28,1.78 -1.73,1.78 -0.07,0 -1.75,0 -1.75,-1.87 0,-3.14 2.86,-6.28 7.04,-6.28 4.46,0 8.36,3.31 8.36,7.7 0,3.94 -3,7.56 -7.31,7.56 -1.53,0 -3.34,-0.37 -4.87,-1.7 z"
           inkscape:connector-curvature="0"
           style="fill:#000000;stroke-width:0" /></g>    </g>
    <path
       d="m 136.55535,390.99792 c 0,1.78503 -1.44705,3.23208 -3.23208,3.23208 -1.78503,0 -3.23208,-1.44705 -3.23208,-3.23208 0,-1.78502 1.44705,-3.23207 3.23208,-3.23207 1.78503,0 3.23208,1.44705 3.23208,3.23207 z"
       sodipodi:ry="3.2320795"
       sodipodi:rx="3.2320795"
       sodipodi:cy="390.99792"
       sodipodi:cx="133.32327"
       id="path3844"
       style="stroke-width:3;stroke-miterlimit:4;stroke-dasharray:none"
       sodipodi:type="arc"
       transform="translate(199.93477,148.43549)" />
    <path
       transform="translate(192.12548,182.63638)"
       sodipodi:type="arc"
       style="stroke-width:3;stroke-miterlimit:4;stroke-dasharray:none"
       id="path3846"
       sodipodi:cx="133.32327"
       sodipodi:cy="390.99792"
       sodipodi:rx="3.2320795"
       sodipodi:ry="3.2320795"
       d="m 136.55535,390.99792 c 0,1.78503 -1.44705,3.23208 -3.23208,3.23208 -1.78503,0 -3.23208,-1.44705 -3.23208,-3.23208 0,-1.78502 1.44705,-3.23207 3.23208,-3.23207 1.78503,0 3.23208,1.44705 3.23208,3.23207 z" />
    <path
       d="m 136.55535,390.99792 c 0,1.78503 -1.44705,3.23208 -3.23208,3.23208 -1.78503,0 -3.23208,-1.44705 -3.23208,-3.23208 0,-1.78502 1.44705,-3.23207 3.23208,-3.23207 1.78503,0 3.23208,1.44705 3.23208,3.23207 z"
       sodipodi:ry="3.2320795"
       sodipodi:rx="3.2320795"
       sodipodi:cy="390.99792"
       sodipodi:cx="133.32327"
       id="path3848"
       style="stroke-width:3;stroke-miterlimit:4;stroke-dasharray:none"
       sodipodi:type="arc"
       transform="translate(216.09769,120.44814)" />
    <path
       transform="translate(244.37947,93.731023)"
       sodipodi:type="arc"
       style="stroke-width:3;stroke-miterlimit:4;stroke-dasharray:none"
       id="path3850"
       sodipodi:cx="133.32327"
       sodipodi:cy="390.99792"
       sodipodi:rx="3.2320795"
       sodipodi:ry="3.2320795"
       d="m 136.55535,390.99792 c 0,1.78503 -1.44705,3.23208 -3.23208,3.23208 -1.78503,0 -3.23208,-1.44705 -3.23208,-3.23208 0,-1.78502 1.44705,-3.23207 3.23208,-3.23207 1.78503,0 3.23208,1.44705 3.23208,3.23207 z" />
    <path
       d="m 136.55535,390.99792 c 0,1.78503 -1.44705,3.23208 -3.23208,3.23208 -1.78503,0 -3.23208,-1.44705 -3.23208,-3.23208 0,-1.78502 1.44705,-3.23207 3.23208,-3.23207 1.78503,0 3.23208,1.44705 3.23208,3.23207 z"
       sodipodi:ry="3.2320795"
       sodipodi:rx="3.2320795"
       sodipodi:cy="390.99792"
       sodipodi:cx="133.32327"
       id="path3852"
       style="stroke-width:3;stroke-miterlimit:4;stroke-dasharray:none"
       sodipodi:type="arc"
       transform="translate(271.90712,70.083959)" />
    <path
       style="fill:none;stroke:#000080;stroke-width:1px;stroke-linecap:butt;stroke-linejoin:miter;stroke-opacity:1;marker-end:url(#Arrow1LendH)"
       d="m 275.84299,460.76614 c 65.71429,4.28572 87.85715,25.71429 97.14286,34.28572 9.28571,8.57143 27.85714,39.28571 49.28571,58.57143 21.42858,19.28571 21.42858,19.28571 21.42858,19.28571"
       id="path3856"
       inkscape:connector-curvature="0" />
    <g
       style="font-style:normal;font-variant:normal;font-weight:normal;font-stretch:normal;letter-spacing:normal;word-spacing:normal;text-anchor:start;fill:#000080;stroke:#000000;stroke-linecap:butt;stroke-linejoin:miter;stroke-miterlimit:10.43299961;stroke-opacity:1;stroke-dasharray:none;stroke-dashoffset:0"
       id="g3860"
       transform="matrix(0.33225911,0,0,-0.33225911,111.9375,600.04562)"
       xml:space="preserve"
       stroke-miterlimit="10.433"
       font-style="normal"
       font-variant="normal"
       font-weight="normal"
       font-stretch="normal"
       font-size-adjust="none"
       letter-spacing="normal"
       word-spacing="normal"><path
         style="fill:#000080;stroke-width:0"
         inkscape:connector-curvature="0"
         d="m 461.85,410.04 5.28,5.13 c 7.76,6.87 10.76,9.56 10.76,14.54 0,5.69 -4.48,9.68 -10.56,9.68 -5.64,0 -9.33,-4.6 -9.33,-9.03 0,-2.79 2.5,-2.79 2.64,-2.79 0.86,0 2.6,0.6 2.6,2.64 0,1.3 -0.89,2.6 -2.64,2.6 -0.39,0 -0.5,0 -0.64,-0.05 1.14,3.24 3.83,5.08 6.72,5.08 4.53,0 6.68,-4.05 6.68,-8.13 0,-3.98 -2.5,-7.92 -5.23,-11.01 l -9.56,-10.66 C 458,407.5 458,407.4 458,406.2 h 18.49 l 1.4,8.67 h -1.25 c -0.25,-1.5 -0.59,-3.69 -1.09,-4.44 -0.36,-0.39 -3.64,-0.39 -4.73,-0.39 z"
         id="path3862" /></g>    <path
       transform="translate(241.01139,104.88163)"
       sodipodi:type="arc"
       style="fill:#000080;stroke-width:3;stroke-miterlimit:4;stroke-dasharray:none"
       id="path3864"
       sodipodi:cx="133.32327"
       sodipodi:cy="390.99792"
       sodipodi:rx="3.2320795"
       sodipodi:ry="3.2320795"
       d="m 136.55535,390.99792 c 0,1.78503 -1.44705,3.23208 -3.23208,3.23208 -1.78503,0 -3.23208,-1.44705 -3.23208,-3.23208 0,-1.78502 1.44705,-3.23207 3.23208,-3.23207 1.78503,0 3.23208,1.44705 3.23208,3.23207 z" />
    <path
       d="m 136.55535,390.99792 c 0,1.78503 -1.44705,3.23208 -3.23208,3.23208 -1.78503,0 -3.23208,-1.44705 -3.23208,-3.23208 0,-1.78502 1.44705,-3.23207 3.23208,-3.23207 1.78503,0 3.23208,1.44705 3.23208,3.23207 z"
       sodipodi:ry="3.2320795"
       sodipodi:rx="3.2320795"
       sodipodi:cy="390.99792"
       sodipodi:cx="133.32327"
       id="path3866"
       style="fill:#000080;stroke-width:3;stroke-miterlimit:4;stroke-dasharray:none"
       sodipodi:type="arc"
       transform="translate(199.80238,80.237019)" />
    <path
       transform="translate(149.70515,70.136771)"
       sodipodi:type="arc"
       style="fill:#000080;stroke-width:3;stroke-miterlimit:4;stroke-dasharray:none"
       id="path3868"
       sodipodi:cx="133.32327"
       sodipodi:cy="390.99792"
       sodipodi:rx="3.2320795"
       sodipodi:ry="3.2320795"
       d="m 136.55535,390.99792 c 0,1.78503 -1.44705,3.23208 -3.23208,3.23208 -1.78503,0 -3.23208,-1.44705 -3.23208,-3.23208 0,-1.78502 1.44705,-3.23207 3.23208,-3.23207 1.78503,0 3.23208,1.44705 3.23208,3.23207 z" />
    <path
       d="m 136.55535,390.99792 c 0,1.78503 -1.44705,3.23208 -3.23208,3.23208 -1.78503,0 -3.23208,-1.44705 -3.23208,-3.23208 0,-1.78502 1.44705,-3.23207 3.23208,-3.23207 1.78503,0 3.23208,1.44705 3.23208,3.23207 z"
       sodipodi:ry="3.2320795"
       sodipodi:rx="3.2320795"
       sodipodi:cy="390.99792"
       sodipodi:cx="133.32327"
       id="path3870"
       style="fill:#000080;stroke-width:3;stroke-miterlimit:4;stroke-dasharray:none"
       sodipodi:type="arc"
       transform="translate(266.46402,138.41445)" />
    <g
       word-spacing="normal"
       letter-spacing="normal"
       font-size-adjust="none"
       font-stretch="normal"
       font-weight="normal"
       font-variant="normal"
       font-style="normal"
       stroke-miterlimit="10.433"
       xml:space="preserve"
       transform="matrix(0.33225911,0,0,-0.33225911,129.30992,587.52131)"
       id="g3874"
       style="font-style:normal;font-variant:normal;font-weight:normal;font-stretch:normal;letter-spacing:normal;word-spacing:normal;text-anchor:start;fill:#000080;stroke:#000000;stroke-linecap:butt;stroke-linejoin:miter;stroke-miterlimit:10.43299961;stroke-opacity:1;stroke-dasharray:none;stroke-dashoffset:0"><path
         id="path3876"
         d="m 465.79,426.12 h 4.68 c 0.99,0 1.49,0 1.49,1 0,0.55 -0.5,0.55 -1.39,0.55 h -4.39 c 1.79,7.08 2.04,8.08 2.04,8.37 0,0.85 -0.59,1.35 -1.43,1.35 -0.16,0 -1.55,-0.05 -2,-1.8 l -1.94,-7.92 h -4.69 c -1,0 -1.5,0 -1.5,-0.94 0,-0.61 0.41,-0.61 1.41,-0.61 h 4.37 c -3.58,-14.14 -3.78,-14.98 -3.78,-15.89 0,-2.69 1.89,-4.58 4.58,-4.58 5.08,0 7.92,7.27 7.92,7.67 0,0.5 -0.39,0.5 -0.59,0.5 -0.46,0 -0.5,-0.15 -0.75,-0.7 -2.14,-5.17 -4.78,-6.37 -6.47,-6.37 -1.05,0 -1.55,0.65 -1.55,2.29 0,1.19 0.09,1.55 0.3,2.39 z"
         inkscape:connector-curvature="0"
         style="fill:#000080;stroke-width:0" /><path
         id="path3878"
         d="m 485.19,420.92 0,0.04 0,0.04 0,0.05 0,0.04 0,0.03 0,0.04 0,0.04 0,0.03 -0.01,0.04 0,0.03 0,0.03 0,0.03 0,0.03 -0.01,0.03 0,0.03 0,0.02 -0.01,0.03 0,0.02 -0.01,0.03 0,0.02 -0.02,0.04 -0.01,0.04 -0.02,0.03 -0.02,0.03 -0.02,0.03 -0.02,0.03 -0.03,0.02 -0.03,0.02 -0.03,0.02 -0.04,0.01 -0.04,0.01 -0.05,0.02 -0.02,0 -0.02,0 -0.03,0.01 -0.03,0 -0.02,0.01 -0.03,0 -0.03,0 -0.03,0 -0.03,0 -0.04,0.01 -0.03,0 -0.04,0 -0.03,0 -0.04,0 -0.04,0 -0.04,0 -0.04,0 -0.05,0 -0.04,0 -0.05,0 c -2.23,-2.2 -5.39,-2.23 -6.82,-2.23 v -1.25 c 0.84,0 3.14,0 5.04,0.97 v -17.77 c 0,-1.16 0,-1.61 -3.48,-1.61 h -1.31 v -1.25 c 0.62,0.03 4.9,0.14 6.2,0.14 1.08,0 5.47,-0.11 6.23,-0.14 v 1.25 h -1.32 c -3.49,0 -3.49,0.45 -3.49,1.61 z"
         inkscape:connector-curvature="0"
         style="fill:#000080;stroke-width:0" /></g>    <g
       style="font-style:normal;font-variant:normal;font-weight:normal;font-stretch:normal;letter-spacing:normal;word-spacing:normal;text-anchor:start;fill:#000080;stroke:#000000;stroke-linecap:butt;stroke-linejoin:miter;stroke-miterlimit:10.43299961;stroke-opacity:1;stroke-dasharray:none;stroke-dashoffset:0"
       word-spacing="normal"
       letter-spacing="normal"
       font-size-adjust="none"
       font-stretch="normal"
       font-weight="normal"
       font-variant="normal"
       font-style="normal"
       stroke-miterlimit="10.433"
       xml:space="preserve"
       transform="matrix(0.33225911,0,0,-0.33225911,181.83121,596.81354)"
       id="g3882"><path
         style="fill:#000080;stroke-width:0"
         inkscape:connector-curvature="0"
         id="path3884"
         d="m 465.79,426.12 h 4.68 c 0.99,0 1.49,0 1.49,1 0,0.55 -0.5,0.55 -1.39,0.55 h -4.39 c 1.79,7.08 2.04,8.08 2.04,8.37 0,0.85 -0.59,1.35 -1.43,1.35 -0.16,0 -1.55,-0.05 -2,-1.8 l -1.94,-7.92 h -4.69 c -1,0 -1.5,0 -1.5,-0.94 0,-0.61 0.41,-0.61 1.41,-0.61 h 4.37 c -3.58,-14.14 -3.78,-14.98 -3.78,-15.89 0,-2.69 1.89,-4.58 4.58,-4.58 5.08,0 7.92,7.27 7.92,7.67 0,0.5 -0.39,0.5 -0.59,0.5 -0.46,0 -0.5,-0.15 -0.75,-0.7 -2.14,-5.17 -4.78,-6.37 -6.47,-6.37 -1.05,0 -1.55,0.65 -1.55,2.29 0,1.19 0.09,1.55 0.3,2.39 z" /><path
         style="fill:#000080;stroke-width:0"
         inkscape:connector-curvature="0"
         id="path3886"
         d="m 491.11,405.11 h -1.18 c -0.1,-0.77 -0.46,-2.83 -0.91,-3.18 -0.27,-0.2 -2.95,-0.2 -3.44,-0.2 h -6.42 c 3.66,3.23 4.88,4.2 6.97,5.84 2.58,2.07 4.98,4.22 4.98,7.54 0,4.21 -3.68,6.79 -8.15,6.79 -4.32,0 -7.25,-3.03 -7.25,-6.23 0,-1.78 1.5,-1.96 1.86,-1.96 0.82,0 1.84,0.6 1.84,1.85 0,0.62 -0.25,1.84 -2.06,1.84 1.08,2.47 3.45,3.24 5.09,3.24 3.49,0 5.3,-2.71 5.3,-5.53 0,-3.04 -2.16,-5.44 -3.28,-6.69 l -8.39,-8.3 c -0.36,-0.31 -0.36,-0.39 -0.36,-1.36 h 14.36 z" /></g>    <g
       word-spacing="normal"
       letter-spacing="normal"
       font-size-adjust="none"
       font-stretch="normal"
       font-weight="normal"
       font-variant="normal"
       font-style="normal"
       stroke-miterlimit="10.433"
       xml:space="preserve"
       transform="matrix(0.33225911,0,0,-0.33225911,243.81293,636.59386)"
       id="g3890"
       style="font-style:normal;font-variant:normal;font-weight:normal;font-stretch:normal;letter-spacing:normal;word-spacing:normal;text-anchor:start;fill:#000080;stroke:#000000;stroke-linecap:butt;stroke-linejoin:miter;stroke-miterlimit:10.43299961;stroke-opacity:1;stroke-dasharray:none;stroke-dashoffset:0"><path
         id="path3892"
         d="m 465.79,426.12 h 4.68 c 0.99,0 1.49,0 1.49,1 0,0.55 -0.5,0.55 -1.39,0.55 h -4.39 c 1.79,7.08 2.04,8.08 2.04,8.37 0,0.85 -0.59,1.35 -1.43,1.35 -0.16,0 -1.55,-0.05 -2,-1.8 l -1.94,-7.92 h -4.69 c -1,0 -1.5,0 -1.5,-0.94 0,-0.61 0.41,-0.61 1.41,-0.61 h 4.37 c -3.58,-14.14 -3.78,-14.98 -3.78,-15.89 0,-2.69 1.89,-4.58 4.58,-4.58 5.08,0 7.92,7.27 7.92,7.67 0,0.5 -0.39,0.5 -0.59,0.5 -0.46,0 -0.5,-0.15 -0.75,-0.7 -2.14,-5.17 -4.78,-6.37 -6.47,-6.37 -1.05,0 -1.55,0.65 -1.55,2.29 0,1.19 0.09,1.55 0.3,2.39 z"
         inkscape:connector-curvature="0"
         style="fill:#000080;stroke-width:0" /><path
         id="path3894"
         d="m 483.04,410.4 0.25,0 0.25,-0.02 0.24,-0.03 0.24,-0.04 0.23,-0.05 0.23,-0.06 0.22,-0.07 0.21,-0.08 0.21,-0.1 0.2,-0.1 0.2,-0.12 0.19,-0.12 0.18,-0.14 0.17,-0.15 0.17,-0.16 0.16,-0.17 0.15,-0.18 0.14,-0.19 0.14,-0.2 0.13,-0.22 0.11,-0.22 0.11,-0.24 0.1,-0.24 0.09,-0.26 0.08,-0.27 0.07,-0.28 0.06,-0.29 0.05,-0.3 0.04,-0.31 0.02,-0.32 0.02,-0.33 0.01,-0.35 c 0,-4.33 -2.52,-5.61 -4.53,-5.61 -1.39,0 -4.47,0.38 -5.93,2.44 1.63,0.06 2.02,1.22 2.02,1.95 0,1.11 -0.84,1.91 -1.92,1.91 -0.97,0 -1.96,-0.59 -1.96,-2.02 0,-3.28 3.63,-5.4 7.85,-5.4 4.84,0 8.19,3.25 8.19,6.73 0,2.72 -2.22,5.44 -6.07,6.24 3.66,1.33 4.99,3.93 4.99,6.06 0,2.75 -3.17,4.81 -7.03,4.81 -3.88,0 -6.83,-1.89 -6.83,-4.67 0,-1.19 0.76,-1.84 1.81,-1.84 1.08,0 1.77,0.79 1.77,1.76 0,1.02 -0.69,1.75 -1.77,1.81 1.22,1.55 3.61,1.93 4.91,1.93 1.56,0 3.76,-0.77 3.76,-3.8 0,-1.47 -0.48,-3.06 -1.39,-4.14 -1.15,-1.33 -2.12,-1.41 -3.87,-1.5 -0.88,-0.08 -0.94,-0.08 -1.11,-0.11 -0.08,0 -0.36,-0.06 -0.36,-0.45 0,-0.49 0.31,-0.49 0.9,-0.49 z"
         inkscape:connector-curvature="0"
         style="fill:#000080;stroke-width:0" /></g>    <g
       id="g3898"
       transform="matrix(0.33225911,0,0,-0.33225911,243.24072,684.07969)"
       xml:space="preserve"
       stroke-miterlimit="10.433"
       font-style="normal"
       font-variant="normal"
       font-weight="normal"
       font-stretch="normal"
       font-size-adjust="none"
       letter-spacing="normal"
       word-spacing="normal"
       style="font-style:normal;font-variant:normal;font-weight:normal;font-stretch:normal;letter-spacing:normal;word-spacing:normal;text-anchor:start;fill:#000080;stroke:#000000;stroke-linecap:butt;stroke-linejoin:miter;stroke-miterlimit:10.43299961;stroke-opacity:1;stroke-dasharray:none;stroke-dashoffset:0"><path
         d="m 465.79,426.12 h 4.68 c 0.99,0 1.49,0 1.49,1 0,0.55 -0.5,0.55 -1.39,0.55 h -4.39 c 1.79,7.08 2.04,8.08 2.04,8.37 0,0.85 -0.59,1.35 -1.43,1.35 -0.16,0 -1.55,-0.05 -2,-1.8 l -1.94,-7.92 h -4.69 c -1,0 -1.5,0 -1.5,-0.94 0,-0.61 0.41,-0.61 1.41,-0.61 h 4.37 c -3.58,-14.14 -3.78,-14.98 -3.78,-15.89 0,-2.69 1.89,-4.58 4.58,-4.58 5.08,0 7.92,7.27 7.92,7.67 0,0.5 -0.39,0.5 -0.59,0.5 -0.46,0 -0.5,-0.15 -0.75,-0.7 -2.14,-5.17 -4.78,-6.37 -6.47,-6.37 -1.05,0 -1.55,0.65 -1.55,2.29 0,1.19 0.09,1.55 0.3,2.39 z"
         id="path3900"
         inkscape:connector-curvature="0"
         style="fill:#000080;stroke-width:0" /><path
         d="m 491.96,404.48 v 1.25 h -3.88 v 15.55 c 0,0.72 0,0.97 -0.76,0.97 -0.43,0 -0.57,0 -0.91,-0.49 l -11.53,-16.03 v -1.25 h 10.25 l 0.23,1.25 h -9.2 l 9.2,12.75 v -12.75 l -0.23,-1.25 v -2.86 c 0,-1.19 0,-1.61 -2.83,-1.61 h -0.94 v -1.25 c 1.74,0.06 3.97,0.14 5.22,0.14 1.3,0 3.52,-0.08 5.27,-0.14 v 1.25 h -0.94 c -2.83,0 -2.83,0.42 -2.83,1.61 v 2.86 z"
         id="path3902"
         inkscape:connector-curvature="0"
         style="fill:#000080;stroke-width:0" /></g>    <g
       id="g4397"
       transform="translate(3.3563338,432.96706)">
      <g
         id="g4399"
         transform="matrix(0.26131263,0,0,-0.26131263,-45.72971,300.72393)"
         xml:space="preserve"
         stroke-miterlimit="10.433"
         font-style="normal"
         font-variant="normal"
         font-weight="normal"
         font-stretch="normal"
         font-size-adjust="none"
         letter-spacing="normal"
         word-spacing="normal"
         style="font-style:normal;font-variant:normal;font-weight:normal;font-stretch:normal;letter-spacing:normal;word-spacing:normal;text-anchor:start;fill:none;stroke:#000000;stroke-linecap:butt;stroke-linejoin:miter;stroke-miterlimit:10.43299961;stroke-opacity:1;stroke-dasharray:none;stroke-dashoffset:0"><path
           d="m 472.91,425.53 -6.37,1.54 c -3.1,0.75 -5.04,3.44 -5.04,6.33 0,3.49 2.69,6.53 6.58,6.53 8.31,0 9.41,-8.17 9.71,-10.42 0.04,-0.3 0.04,-0.59 0.6,-0.59 0.65,0 0.65,0.25 0.65,1.2 v 10 c 0,0.86 0,1.2 -0.55,1.2 -0.35,0 -0.41,-0.04 -0.75,-0.65 L 476,437.84 c -1.5,1.44 -3.54,3.48 -7.98,3.48 -5.53,0 -9.7,-4.39 -9.7,-9.67 0,-4.12 2.64,-7.76 6.51,-9.11 0.55,-0.2 3.1,-0.79 6.58,-1.64 1.34,-0.36 2.84,-0.7 4.23,-2.54 1.05,-1.3 1.55,-2.94 1.55,-4.58 0,-3.55 -2.48,-7.13 -6.67,-7.13 -1.45,0 -5.23,0.25 -7.88,2.69 -2.89,2.69 -3.04,5.87 -3.09,7.67 -0.05,0.5 -0.44,0.5 -0.59,0.5 -0.64,0 -0.64,-0.36 -0.64,-1.25 v -9.97 c 0,-0.84 0,-1.18 0.54,-1.18 0.35,0 0.39,0.09 0.74,0.64 0,0.04 0.15,0.2 1.79,2.84 1.55,-1.69 4.74,-3.48 9.18,-3.48 5.82,0 9.81,4.87 9.81,10.35 0,4.99 -3.28,9.07 -7.47,10.07 z"
           id="path4401"
           inkscape:connector-curvature="0"
           style="fill:#000000;stroke-width:0" /><path
           d="m 491.8,424.93 v 3.28 l -7.17,-0.54 v -1.55 c 3.55,0 3.89,-0.3 3.89,-2.48 v -23.32 c 0,-2.25 -0.55,-2.25 -3.89,-2.25 v -1.54 c 1.7,0.06 4.28,0.15 5.58,0.15 1.34,0 3.89,-0.09 5.64,-0.15 v 1.54 c -3.35,0 -3.89,0 -3.89,2.25 v 8.36 0.46 l 0.7,0.65 c -0.7,1.05 -0.7,1.1 -0.7,2.08 h 0 V 423 c 1.43,2.53 3.89,3.98 6.42,3.98 3.64,0 6.69,-4.39 6.69,-10.02 0,-6.03 -3.5,-10.21 -7.19,-10.21 -1.99,0 -3.88,1 -5.22,3.04 l -0.7,-0.65 c 0.25,-0.8 2.34,-3.49 6.12,-3.49 5.94,0 11.11,4.88 11.11,11.31 0,6.33 -4.83,11.25 -10.4,11.25 -3.9,0 -5.99,-2.18 -6.99,-3.28 z"
           id="path4403"
           inkscape:connector-curvature="0"
           style="fill:#000000;stroke-width:0" /><path
           d="m 527.55,409.98 0.02,-0.19 0.03,-0.18 0.04,-0.19 0.04,-0.18 0.05,-0.19 0.05,-0.18 0.07,-0.18 0.06,-0.18 0.08,-0.18 0.08,-0.17 0.09,-0.18 0.09,-0.16 0.1,-0.16 0.11,-0.16 0.11,-0.16 0.12,-0.14 0.13,-0.14 0.13,-0.14 0.14,-0.13 0.14,-0.12 0.15,-0.12 0.16,-0.1 0.16,-0.1 0.17,-0.09 0.18,-0.08 0.18,-0.07 0.19,-0.06 0.19,-0.05 0.2,-0.04 0.2,-0.03 0.21,-0.02 0.22,-0.01 c 1.03,0 4.08,0.71 4.08,4.74 v 2.78 h -1.25 v -2.78 c 0,-2.89 -1.24,-3.19 -1.8,-3.19 -1.64,0 -1.84,2.23 -1.84,2.48 v 9.97 c 0,2.1 0,4.03 -1.78,5.88 -1.95,1.93 -4.44,2.73 -6.83,2.73 -4.09,0 -7.53,-2.33 -7.53,-5.62 0,-1.49 1,-2.35 2.29,-2.35 1.4,0 2.3,1 2.3,2.3 0,0.59 -0.25,2.23 -2.55,2.3 1.35,1.73 3.79,2.28 5.38,2.28 2.45,0 5.28,-1.94 5.28,-6.38 v -1.84 -1.05 -4.98 c 0,-4.74 -3.58,-6.42 -5.83,-6.42 -2.43,0 -4.48,1.75 -4.48,4.23 0,2.73 2.09,6.88 10.31,7.17 h 0 v 1.05 c -2.53,-0.14 -6.01,-0.3 -9.16,-1.8 -3.73,-1.69 -4.98,-4.28 -4.98,-6.47 0,-4.03 4.83,-5.28 7.97,-5.28 3.3,0 5.58,1.99 6.53,4.33 z"
           id="path4405"
           inkscape:connector-curvature="0"
           style="fill:#000000;stroke-width:0" /><path
           d="m 544.54,426.12 h 7.12 v 1.55 h -7.12 v 9.17 h -1.25 c -0.05,-4.08 -1.55,-9.42 -6.42,-9.61 v -1.11 h 4.23 v -13.75 c 0,-6.12 4.63,-6.72 6.42,-6.72 3.53,0 4.94,3.53 4.94,6.72 v 2.84 h -1.25 v -2.73 c 0,-3.69 -1.5,-5.58 -3.34,-5.58 -3.33,0 -3.33,4.53 -3.33,5.38 z"
           id="path4407"
           inkscape:connector-curvature="0"
           style="fill:#000000;stroke-width:0" /><path
           d="m 564.04,428.21 -6.97,-0.54 v -1.55 c 3.24,0 3.69,-0.3 3.69,-2.73 v -13.41 c 0,-2.23 -0.54,-2.23 -3.89,-2.23 v -1.55 c 1.6,0.05 4.28,0.16 5.48,0.16 1.75,0 3.49,-0.11 5.19,-0.16 v 1.55 c -3.29,0 -3.5,0.25 -3.5,2.18 z"
           id="path4409"
           inkscape:connector-curvature="0"
           style="fill:#000000;stroke-width:0" /><path
           d="m 564.25,436.89 -0.01,0.14 -0.01,0.15 -0.02,0.14 -0.02,0.14 -0.03,0.13 -0.04,0.13 -0.04,0.13 -0.05,0.12 -0.06,0.12 -0.06,0.12 -0.06,0.11 -0.07,0.1 -0.08,0.1 -0.08,0.1 -0.08,0.1 -0.09,0.08 -0.1,0.09 -0.09,0.08 -0.1,0.07 -0.11,0.07 -0.11,0.07 -0.11,0.06 -0.11,0.05 -0.12,0.05 -0.11,0.04 -0.12,0.04 -0.13,0.03 -0.12,0.03 -0.13,0.02 -0.13,0.01 -0.13,0.01 -0.13,0.01 c -1.54,0 -2.63,-1.35 -2.63,-2.64 0,-1.35 1.09,-2.64 2.63,-2.64 1.4,0 2.65,1.04 2.65,2.64 z"
           id="path4411"
           inkscape:connector-curvature="0"
           style="fill:#000000;stroke-width:0" /><path
           d="m 585.62,409.98 0.02,-0.19 0.03,-0.18 0.04,-0.19 0.04,-0.18 0.05,-0.19 0.05,-0.18 0.07,-0.18 0.06,-0.18 0.08,-0.18 0.08,-0.17 0.09,-0.18 0.09,-0.16 0.1,-0.16 0.11,-0.16 0.11,-0.16 0.12,-0.14 0.13,-0.14 0.13,-0.14 0.14,-0.13 0.14,-0.12 0.15,-0.12 0.16,-0.1 0.16,-0.1 0.17,-0.09 0.18,-0.08 0.18,-0.07 0.19,-0.06 0.19,-0.05 0.2,-0.04 0.2,-0.03 0.22,-0.02 0.21,-0.01 c 1.03,0 4.08,0.71 4.08,4.74 v 2.78 h -1.25 v -2.78 c 0,-2.89 -1.24,-3.19 -1.8,-3.19 -1.64,0 -1.84,2.23 -1.84,2.48 v 9.97 c 0,2.1 0,4.03 -1.78,5.88 -1.95,1.93 -4.44,2.73 -6.83,2.73 -4.09,0 -7.53,-2.33 -7.53,-5.62 0,-1.49 1,-2.35 2.29,-2.35 1.4,0 2.3,1 2.3,2.3 0,0.59 -0.25,2.23 -2.55,2.3 1.35,1.73 3.79,2.28 5.38,2.28 2.45,0 5.28,-1.94 5.28,-6.38 v -1.84 -1.05 -4.98 c 0,-4.74 -3.58,-6.42 -5.83,-6.42 -2.43,0 -4.48,1.75 -4.48,4.23 0,2.73 2.09,6.88 10.31,7.17 h 0 v 1.05 c -2.53,-0.14 -6.01,-0.3 -9.16,-1.8 -3.73,-1.69 -4.98,-4.28 -4.98,-6.47 0,-4.03 4.83,-5.28 7.97,-5.28 3.3,0 5.58,1.99 6.53,4.33 z"
           id="path4413"
           inkscape:connector-curvature="0"
           style="fill:#000000;stroke-width:0" /><path
           d="m 602.8,440.78 -7.18,-0.55 v -1.55 c 3.49,0 3.9,-0.34 3.9,-2.79 v -25.91 c 0,-2.23 -0.55,-2.23 -3.9,-2.23 v -1.55 c 1.65,0.05 4.29,0.16 5.54,0.16 1.25,0 3.68,-0.11 5.53,-0.16 v 1.55 c -3.35,0 -3.89,0 -3.89,2.23 z"
           id="path4415"
           inkscape:connector-curvature="0"
           style="fill:#000000;stroke-width:0" /><path
           d="m 627.14,423.23 0.02,-0.96 0.07,-0.94 0.11,-0.93 0.16,-0.91 0.2,-0.89 0.24,-0.87 0.28,-0.85 0.32,-0.83 0.36,-0.81 0.39,-0.78 0.43,-0.76 0.46,-0.74 0.49,-0.7 0.52,-0.68 0.55,-0.66 0.59,-0.62 0.6,-0.59 0.64,-0.56 0.66,-0.53 0.68,-0.5 0.7,-0.46 0.73,-0.43 0.75,-0.39 0.76,-0.35 0.78,-0.32 0.8,-0.28 0.81,-0.23 0.82,-0.2 0.84,-0.15 0.84,-0.11 0.86,-0.07 0.87,-0.02 c 8.12,0 13,6.92 13,12.7 0,0.5 0,0.84 -0.65,0.84 -0.54,0 -0.54,-0.29 -0.59,-0.79 -0.41,-7.13 -5.73,-11.21 -11.17,-11.21 -3.03,0 -12.8,1.69 -12.8,16.53 0,14.91 9.72,16.6 12.75,16.6 5.44,0 9.88,-4.53 10.86,-11.82 0.11,-0.68 0.11,-0.84 0.8,-0.84 0.8,0 0.8,0.16 0.8,1.2 v 11.8 c 0,0.86 0,1.2 -0.55,1.2 -0.19,0 -0.39,0 -0.8,-0.59 l -2.48,-3.69 c -1.85,1.8 -4.39,4.28 -9.17,4.28 -9.32,0 -17.33,-7.92 -17.33,-18.09 z"
           id="path4417"
           inkscape:connector-curvature="0"
           style="fill:#000000;stroke-width:0" /><path
           d="m 683.81,416.86 -0.02,0.59 -0.04,0.59 -0.07,0.58 -0.1,0.57 -0.12,0.56 -0.15,0.55 -0.18,0.54 -0.19,0.53 -0.23,0.51 -0.24,0.5 -0.27,0.49 -0.29,0.47 -0.31,0.46 -0.32,0.44 -0.35,0.43 -0.37,0.4 -0.38,0.39 -0.4,0.37 -0.42,0.35 -0.43,0.32 -0.45,0.31 -0.46,0.28 -0.47,0.26 -0.49,0.24 -0.5,0.21 -0.51,0.18 -0.52,0.16 -0.53,0.13 -0.54,0.11 -0.55,0.07 -0.55,0.05 -0.57,0.01 -0.04,-1.09 c 2.18,0 4.32,-1.1 5.62,-3.24 1.3,-2.14 1.3,-5.03 1.3,-6.92 0,-1.8 0,-4.48 -1.1,-6.67 -1.09,-2.25 -3.28,-3.69 -5.78,-3.69 h 0 c -2.14,0 -4.32,1.05 -5.67,3.33 -1.25,2.2 -1.25,5.23 -1.25,7.03 0,1.94 0,4.63 1.19,6.83 1.36,2.28 3.69,3.33 5.69,3.33 l 0.04,1.09 c -6.22,0 -11.06,-5.42 -11.06,-11.65 0,-6.43 5.19,-11.21 11.02,-11.21 6.03,0 11.06,4.88 11.06,11.21 z"
           id="path4419"
           inkscape:connector-curvature="0"
           style="fill:#000000;stroke-width:0" /><path
           d="m 690.78,423.34 v -13.36 c 0,-2.23 -0.55,-2.23 -3.89,-2.23 v -1.55 c 1.75,0.05 4.28,0.16 5.63,0.16 1.29,0 3.89,-0.11 5.57,-0.16 v 1.55 c -3.32,0 -3.87,0 -3.87,2.23 v 9.17 c 0,5.19 3.53,7.97 6.72,7.97 3.14,0 3.68,-2.69 3.68,-5.53 v -11.61 c 0,-2.23 -0.54,-2.23 -3.89,-2.23 v -1.55 c 1.75,0.05 4.3,0.16 5.65,0.16 1.29,0 3.87,-0.11 5.57,-0.16 v 1.55 c -2.59,0 -3.84,0 -3.89,1.5 v 9.51 c 0,4.28 0,5.83 -1.54,7.61 -0.69,0.86 -2.35,1.84 -5.22,1.84 -3.64,0 -5.99,-2.14 -7.38,-5.21 v 5.21 l -7.03,-0.54 v -1.55 c 3.49,0 3.89,-0.34 3.89,-2.78 z"
           id="path4421"
           inkscape:connector-curvature="0"
           style="fill:#000000;stroke-width:0" /><path
           d="m 732.09,426.12 v -16.14 c 0,-2.23 -0.54,-2.23 -3.87,-2.23 v -1.55 c 1.64,0.05 4.28,0.16 5.51,0.16 1.25,0 3.69,-0.11 5.54,-0.16 v 1.55 c -3.33,0 -3.88,0 -3.88,2.23 v 30.8 l -1.8,-0.3 c -0.2,0 -0.25,0.05 -0.45,0.14 -1.59,0.7 -3.64,0.7 -4.19,0.7 l -0.04,-1.09 c 0.45,0 1.79,0 3.18,-0.45 -0.43,-0.21 -1.23,-0.71 -1.23,-1.99 0,-0.9 0.39,-1.65 1.23,-1.95 v -8.17 h -10.65 v 5.64 c 0,4.62 3.78,6.92 7.47,6.92 l 0.04,1.09 c -5.22,0 -10.65,-2.79 -10.65,-7.96 v -5.69 h -3.94 v -1.55 h 3.94 v -16.14 c 0,-2.23 -0.55,-2.23 -3.89,-2.23 v -1.55 c 1.65,0.05 4.28,0.16 5.53,0.16 1.25,0 3.68,-0.11 5.53,-0.16 v 1.55 c -3.33,0 -3.89,0 -3.89,2.23 v 16.14 z"
           id="path4423"
           inkscape:connector-curvature="0"
           style="fill:#000000;stroke-width:0" /><path
           d="m 749.55,428.21 -6.97,-0.54 v -1.55 c 3.23,0 3.69,-0.3 3.69,-2.73 v -13.41 c 0,-2.23 -0.55,-2.23 -3.89,-2.23 v -1.55 c 1.59,0.05 4.28,0.16 5.48,0.16 1.75,0 3.48,-0.11 5.19,-0.16 v 1.55 c -3.3,0 -3.5,0.25 -3.5,2.18 z"
           id="path4425"
           inkscape:connector-curvature="0"
           style="fill:#000000;stroke-width:0" /><path
           d="m 749.75,436.89 0,0.14 -0.01,0.15 -0.02,0.14 -0.03,0.14 -0.03,0.13 -0.03,0.13 -0.05,0.13 -0.05,0.12 -0.05,0.12 -0.06,0.12 -0.07,0.11 -0.07,0.1 -0.07,0.1 -0.08,0.1 -0.09,0.1 -0.09,0.08 -0.09,0.09 -0.1,0.08 -0.1,0.07 -0.1,0.07 -0.11,0.07 -0.11,0.06 -0.12,0.05 -0.11,0.05 -0.12,0.04 -0.12,0.04 -0.12,0.03 -0.13,0.03 -0.12,0.02 -0.13,0.01 -0.13,0.01 -0.13,0.01 c -1.55,0 -2.64,-1.35 -2.64,-2.64 0,-1.35 1.09,-2.64 2.64,-2.64 1.39,0 2.64,1.04 2.64,2.64 z"
           id="path4427"
           inkscape:connector-curvature="0"
           style="fill:#000000;stroke-width:0" /><path
           d="m 760.36,417.06 0,0.38 0.01,0.36 0.02,0.36 0.02,0.35 0.02,0.34 0.03,0.34 0.04,0.32 0.04,0.32 0.05,0.31 0.05,0.3 0.05,0.29 0.06,0.29 0.14,0.55 0.15,0.51 0.17,0.49 0.18,0.46 0.19,0.43 0.21,0.4 0.22,0.38 0.24,0.35 0.24,0.32 0.25,0.3 0.25,0.28 0.27,0.26 0.27,0.23 0.27,0.21 0.28,0.19 0.28,0.16 0.28,0.15 0.29,0.13 0.28,0.12 0.28,0.09 0.28,0.08 0.28,0.06 0.27,0.05 0.26,0.03 0.26,0.02 0.25,0.01 c 0.44,0 3.58,-0.05 5.33,-1.85 -2.04,-0.15 -2.34,-1.64 -2.34,-2.29 0,-1.3 0.89,-2.3 2.3,-2.3 1.28,0 2.28,0.86 2.28,2.34 0,3.39 -3.78,5.33 -7.63,5.33 -6.22,0 -10.81,-5.37 -10.81,-11.55 0,-6.37 4.94,-11.31 10.72,-11.31 6.67,0 8.26,5.99 8.26,6.47 0,0.5 -0.5,0.5 -0.64,0.5 -0.45,0 -0.54,-0.19 -0.65,-0.5 -1.44,-4.62 -4.68,-5.22 -6.52,-5.22 -2.64,0 -7.03,2.14 -7.03,10.16 z"
           id="path4429"
           inkscape:connector-curvature="0"
           style="fill:#000000;stroke-width:0" /><path
           d="m 785.23,426.12 h 7.13 v 1.55 h -7.13 v 9.17 h -1.25 c -0.04,-4.08 -1.54,-9.42 -6.42,-9.61 v -1.11 h 4.24 v -13.75 c 0,-6.12 4.62,-6.72 6.42,-6.72 3.53,0 4.94,3.53 4.94,6.72 v 2.84 h -1.25 v -2.73 c 0,-3.69 -1.5,-5.58 -3.35,-5.58 -3.33,0 -3.33,4.53 -3.33,5.38 z"
           id="path4431"
           inkscape:connector-curvature="0"
           style="fill:#000000;stroke-width:0" /></g>    </g>
    <g
       id="g4729"
       transform="translate(235.61463,432.96706)">
      <g
         word-spacing="normal"
         letter-spacing="normal"
         font-size-adjust="none"
         font-stretch="normal"
         font-weight="normal"
         font-variant="normal"
         font-style="normal"
         stroke-miterlimit="10.433"
         xml:space="preserve"
         transform="matrix(0.26131263,0,0,-0.26131263,-45.72971,300.72393)"
         id="g4731"
         style="font-style:normal;font-variant:normal;font-weight:normal;font-stretch:normal;letter-spacing:normal;word-spacing:normal;text-anchor:start;fill:none;stroke:#000000;stroke-linecap:butt;stroke-linejoin:miter;stroke-miterlimit:10.43299961;stroke-opacity:1;stroke-dasharray:none;stroke-dashoffset:0"><path
           id="path4733"
           d="m 477.19,423.14 0.45,0.12 0.44,0.12 0.44,0.14 0.43,0.15 0.42,0.16 0.42,0.17 0.4,0.18 0.4,0.19 0.39,0.19 0.37,0.21 0.37,0.22 0.35,0.22 0.34,0.23 0.33,0.24 0.32,0.25 0.3,0.26 0.29,0.27 0.27,0.27 0.26,0.28 0.24,0.29 0.23,0.29 0.21,0.31 0.19,0.3 0.18,0.32 0.15,0.32 0.14,0.33 0.12,0.33 0.09,0.35 0.08,0.34 0.06,0.35 0.03,0.36 0.01,0.36 c 0,4.78 -5.67,8.97 -13,8.97 h -15.64 v -1.55 h 1.19 c 3.84,0 3.93,-0.54 3.93,-2.34 v -26.25 c 0,-1.8 -0.09,-2.34 -3.93,-2.34 h -1.19 v -1.55 c 1.78,0.16 5.33,0.16 7.27,0.16 1.93,0 5.48,0 7.28,-0.16 v 1.55 h -1.21 c -3.82,0 -3.93,0.54 -3.93,2.34 v 12.59 1.11 12.89 c 0,1.16 0,1.75 1.09,1.91 0.5,0.09 1.95,0.09 2.95,0.09 4.47,0 10.07,-0.2 10.07,-7.42 0,-3.44 -1.21,-7.47 -8.58,-7.47 h -5.53 v -1.11 h 5.73 c 0.8,0 2.89,0 4.63,-1.68 1.9,-1.8 1.9,-3.35 1.9,-6.68 0,-3.25 0,-5.23 2.03,-7.12 2.05,-1.8 4.78,-2.09 6.28,-2.09 3.89,0 4.74,4.07 4.74,5.48 0,0.3 0,0.84 -0.64,0.84 -0.55,0 -0.55,-0.45 -0.61,-0.79 -0.3,-3.55 -2.03,-4.44 -3.28,-4.44 -2.44,0 -2.85,2.55 -3.55,7.17 l -0.64,3.99 c -0.89,3.18 -3.34,4.84 -6.08,5.78 z"
           inkscape:connector-curvature="0"
           style="fill:#000000;stroke-width:0" /><path
           id="path4735"
           d="m 497.77,417.71 0.05,1.05 c 0.29,7.42 4.48,8.66 6.18,8.66 5.13,0 5.63,-6.72 5.63,-8.66 h -11.81 l -0.05,-1.05 h 13.91 c 1.09,0 1.23,0 1.23,1.05 0,4.92 -2.69,9.75 -8.91,9.75 -5.78,0 -10.37,-5.12 -10.37,-11.36 0,-6.67 5.23,-11.5 10.97,-11.5 6.08,0 8.31,5.53 8.31,6.47 0,0.5 -0.39,0.61 -0.64,0.61 -0.45,0 -0.55,-0.3 -0.66,-0.7 -1.73,-5.13 -6.22,-5.13 -6.72,-5.13 -2.5,0 -4.48,1.49 -5.62,3.33 -1.5,2.39 -1.5,5.69 -1.5,7.48 z"
           inkscape:connector-curvature="0"
           style="fill:#000000;stroke-width:0" /><path
           id="path4737"
           d="m 530.91,409.98 0.02,-0.19 0.03,-0.18 0.04,-0.19 0.04,-0.18 0.05,-0.19 0.05,-0.18 0.07,-0.18 0.06,-0.18 0.08,-0.18 0.08,-0.17 0.09,-0.18 0.09,-0.16 0.1,-0.16 0.11,-0.16 0.11,-0.16 0.12,-0.14 0.13,-0.14 0.13,-0.14 0.14,-0.13 0.14,-0.12 0.15,-0.12 0.16,-0.1 0.16,-0.1 0.17,-0.09 0.18,-0.08 0.18,-0.07 0.19,-0.06 0.19,-0.05 0.2,-0.04 0.2,-0.03 0.21,-0.02 0.22,-0.01 c 1.03,0 4.08,0.71 4.08,4.74 v 2.78 h -1.25 v -2.78 c 0,-2.89 -1.23,-3.19 -1.8,-3.19 -1.64,0 -1.84,2.23 -1.84,2.48 v 9.97 c 0,2.1 0,4.03 -1.78,5.88 -1.96,1.93 -4.44,2.73 -6.83,2.73 -4.1,0 -7.53,-2.33 -7.53,-5.62 0,-1.49 1,-2.35 2.3,-2.35 1.38,0 2.29,1 2.29,2.3 0,0.59 -0.25,2.23 -2.54,2.3 1.34,1.73 3.78,2.28 5.37,2.28 2.45,0 5.28,-1.94 5.28,-6.38 v -1.84 -1.05 -4.98 c 0,-4.74 -3.58,-6.42 -5.83,-6.42 -2.44,0 -4.48,1.75 -4.48,4.23 0,2.73 2.09,6.88 10.31,7.17 h 0 v 1.05 c -2.53,-0.14 -6.02,-0.3 -9.15,-1.8 -3.74,-1.69 -4.99,-4.28 -4.99,-6.47 0,-4.03 4.83,-5.28 7.97,-5.28 3.3,0 5.58,1.99 6.53,4.33 z"
           inkscape:connector-curvature="0"
           style="fill:#000000;stroke-width:0" /><path
           id="path4739"
           d="m 548.09,440.78 -7.18,-0.55 v -1.55 c 3.49,0 3.89,-0.34 3.89,-2.79 v -25.91 c 0,-2.23 -0.54,-2.23 -3.89,-2.23 v -1.55 c 1.64,0.05 4.29,0.16 5.54,0.16 1.25,0 3.68,-0.11 5.53,-0.16 v 1.55 c -3.35,0 -3.89,0 -3.89,2.23 z"
           inkscape:connector-curvature="0"
           style="fill:#000000;stroke-width:0" /><path
           id="path4741"
           d="m 572.55,423.23 0.02,-0.96 0.07,-0.94 0.11,-0.93 0.16,-0.91 0.2,-0.89 0.24,-0.87 0.28,-0.85 0.32,-0.83 0.36,-0.81 0.39,-0.78 0.43,-0.76 0.46,-0.74 0.49,-0.7 0.52,-0.68 0.55,-0.66 0.59,-0.62 0.6,-0.59 0.64,-0.56 0.66,-0.53 0.68,-0.5 0.7,-0.46 0.73,-0.43 0.75,-0.39 0.76,-0.35 0.78,-0.32 0.8,-0.28 0.81,-0.23 0.82,-0.2 0.84,-0.15 0.84,-0.11 0.86,-0.07 0.87,-0.02 c 8.12,0 13,6.92 13,12.7 0,0.5 0,0.84 -0.65,0.84 -0.54,0 -0.54,-0.29 -0.59,-0.79 -0.41,-7.13 -5.73,-11.21 -11.17,-11.21 -3.03,0 -12.8,1.69 -12.8,16.53 0,14.91 9.72,16.6 12.75,16.6 5.44,0 9.88,-4.53 10.86,-11.82 0.11,-0.68 0.11,-0.84 0.8,-0.84 0.8,0 0.8,0.16 0.8,1.2 v 11.8 c 0,0.86 0,1.2 -0.55,1.2 -0.19,0 -0.39,0 -0.8,-0.59 l -2.48,-3.69 c -1.85,1.8 -4.39,4.28 -9.17,4.28 -9.32,0 -17.33,-7.92 -17.33,-18.09 z"
           inkscape:connector-curvature="0"
           style="fill:#000000;stroke-width:0" /><path
           id="path4743"
           d="m 629.22,416.86 -0.02,0.59 -0.04,0.59 -0.07,0.58 -0.1,0.57 -0.12,0.56 -0.15,0.55 -0.18,0.54 -0.19,0.53 -0.23,0.51 -0.24,0.5 -0.27,0.49 -0.29,0.47 -0.31,0.46 -0.32,0.44 -0.35,0.43 -0.37,0.4 -0.38,0.39 -0.4,0.37 -0.42,0.35 -0.43,0.32 -0.45,0.31 -0.46,0.28 -0.47,0.26 -0.49,0.24 -0.5,0.21 -0.51,0.18 -0.52,0.16 -0.53,0.13 -0.54,0.11 -0.55,0.07 -0.55,0.05 -0.57,0.01 -0.04,-1.09 c 2.18,0 4.32,-1.1 5.62,-3.24 1.3,-2.14 1.3,-5.03 1.3,-6.92 0,-1.8 0,-4.48 -1.1,-6.67 -1.09,-2.25 -3.28,-3.69 -5.78,-3.69 h 0 c -2.14,0 -4.32,1.05 -5.67,3.33 -1.25,2.2 -1.25,5.23 -1.25,7.03 0,1.94 0,4.63 1.19,6.83 1.36,2.28 3.69,3.33 5.69,3.33 l 0.04,1.09 c -6.22,0 -11.06,-5.42 -11.06,-11.65 0,-6.43 5.19,-11.21 11.02,-11.21 6.03,0 11.06,4.88 11.06,11.21 z"
           inkscape:connector-curvature="0"
           style="fill:#000000;stroke-width:0" /><path
           id="path4745"
           d="m 636.19,423.34 v -13.36 c 0,-2.23 -0.54,-2.23 -3.89,-2.23 v -1.55 c 1.75,0.05 4.28,0.16 5.63,0.16 1.29,0 3.89,-0.11 5.57,-0.16 v 1.55 c -3.32,0 -3.87,0 -3.87,2.23 v 9.17 c 0,5.19 3.53,7.97 6.72,7.97 3.14,0 3.68,-2.69 3.68,-5.53 v -11.61 c 0,-2.23 -0.54,-2.23 -3.88,-2.23 v -1.55 c 1.75,0.05 4.29,0.16 5.63,0.16 1.3,0 3.88,-0.11 5.58,-0.16 v 1.55 c -2.59,0 -3.84,0 -3.89,1.5 v 9.51 c 0,4.28 0,5.83 -1.54,7.61 -0.69,0.86 -2.35,1.84 -5.22,1.84 -3.64,0 -5.99,-2.14 -7.38,-5.21 v 5.21 l -7.03,-0.54 v -1.55 c 3.48,0 3.89,-0.34 3.89,-2.78 z"
           inkscape:connector-curvature="0"
           style="fill:#000000;stroke-width:0" /><path
           id="path4747"
           d="m 677.5,426.12 v -16.14 c 0,-2.23 -0.54,-2.23 -3.87,-2.23 v -1.55 c 1.64,0.05 4.28,0.16 5.52,0.16 1.25,0 3.68,-0.11 5.53,-0.16 v 1.55 c -3.33,0 -3.88,0 -3.88,2.23 v 30.8 l -1.8,-0.3 c -0.2,0 -0.25,0.05 -0.45,0.14 -1.59,0.7 -3.64,0.7 -4.19,0.7 l -0.04,-1.09 c 0.45,0 1.79,0 3.18,-0.45 -0.43,-0.21 -1.23,-0.71 -1.23,-1.99 0,-0.9 0.39,-1.65 1.23,-1.95 v -8.17 h -10.65 v 5.64 c 0,4.62 3.78,6.92 7.47,6.92 l 0.04,1.09 c -5.21,0 -10.65,-2.79 -10.65,-7.96 v -5.69 h -3.94 v -1.55 h 3.94 v -16.14 c 0,-2.23 -0.55,-2.23 -3.89,-2.23 v -1.55 c 1.65,0.05 4.28,0.16 5.53,0.16 1.25,0 3.68,-0.11 5.53,-0.16 v 1.55 c -3.33,0 -3.89,0 -3.89,2.23 v 16.14 z"
           inkscape:connector-curvature="0"
           style="fill:#000000;stroke-width:0" /><path
           id="path4749"
           d="m 694.96,428.21 -6.97,-0.54 v -1.55 c 3.23,0 3.69,-0.3 3.69,-2.73 v -13.41 c 0,-2.23 -0.55,-2.23 -3.9,-2.23 v -1.55 c 1.6,0.05 4.29,0.16 5.49,0.16 1.75,0 3.48,-0.11 5.19,-0.16 v 1.55 c -3.3,0 -3.5,0.25 -3.5,2.18 z"
           inkscape:connector-curvature="0"
           style="fill:#000000;stroke-width:0" /><path
           id="path4751"
           d="m 695.16,436.89 0,0.14 -0.01,0.15 -0.02,0.14 -0.03,0.14 -0.03,0.13 -0.03,0.13 -0.05,0.13 -0.05,0.12 -0.05,0.12 -0.06,0.12 -0.07,0.11 -0.07,0.1 -0.07,0.1 -0.08,0.1 -0.09,0.1 -0.09,0.08 -0.09,0.09 -0.1,0.08 -0.1,0.07 -0.1,0.07 -0.11,0.07 -0.11,0.06 -0.12,0.05 -0.11,0.05 -0.12,0.04 -0.12,0.04 -0.12,0.03 -0.13,0.03 -0.12,0.02 -0.13,0.01 -0.13,0.01 -0.13,0.01 c -1.55,0 -2.64,-1.35 -2.64,-2.64 0,-1.35 1.09,-2.64 2.64,-2.64 1.39,0 2.64,1.04 2.64,2.64 z"
           inkscape:connector-curvature="0"
           style="fill:#000000;stroke-width:0" /><path
           id="path4753"
           d="m 705.77,417.06 0,0.38 0.01,0.36 0.02,0.36 0.02,0.35 0.02,0.34 0.03,0.34 0.04,0.32 0.04,0.32 0.05,0.31 0.05,0.3 0.05,0.29 0.07,0.29 0.13,0.55 0.15,0.51 0.17,0.49 0.18,0.46 0.2,0.43 0.2,0.4 0.22,0.38 0.24,0.35 0.24,0.32 0.25,0.3 0.25,0.28 0.27,0.26 0.27,0.23 0.27,0.21 0.28,0.19 0.28,0.16 0.28,0.15 0.29,0.13 0.28,0.12 0.28,0.09 0.28,0.08 0.28,0.06 0.27,0.05 0.26,0.03 0.26,0.02 0.25,0.01 c 0.44,0 3.58,-0.05 5.33,-1.85 -2.05,-0.15 -2.34,-1.64 -2.34,-2.29 0,-1.3 0.89,-2.3 2.29,-2.3 1.29,0 2.29,0.86 2.29,2.34 0,3.39 -3.79,5.33 -7.63,5.33 -6.22,0 -10.81,-5.37 -10.81,-11.55 0,-6.37 4.94,-11.31 10.72,-11.31 6.67,0 8.26,5.99 8.26,6.47 0,0.5 -0.5,0.5 -0.64,0.5 -0.45,0 -0.54,-0.19 -0.65,-0.5 -1.44,-4.62 -4.67,-5.22 -6.52,-5.22 -2.64,0 -7.03,2.14 -7.03,10.16 z"
           inkscape:connector-curvature="0"
           style="fill:#000000;stroke-width:0" /><path
           id="path4755"
           d="m 730.65,426.12 h 7.12 v 1.55 h -7.12 v 9.17 h -1.25 c -0.05,-4.08 -1.55,-9.42 -6.43,-9.61 v -1.11 h 4.24 v -13.75 c 0,-6.12 4.62,-6.72 6.42,-6.72 3.53,0 4.94,3.53 4.94,6.72 v 2.84 h -1.25 v -2.73 c 0,-3.69 -1.5,-5.58 -3.35,-5.58 -3.32,0 -3.32,4.53 -3.32,5.38 z"
           inkscape:connector-curvature="0"
           style="fill:#000000;stroke-width:0" /></g>    </g>
  </g>
</svg>
