<?xml version="1.0" encoding="UTF-8" standalone="no"?>
<!-- Created with Inkscape (http://www.inkscape.org/) -->

<svg
   xmlns:dc="http://purl.org/dc/elements/1.1/"
   xmlns:cc="http://creativecommons.org/ns#"
   xmlns:rdf="http://www.w3.org/1999/02/22-rdf-syntax-ns#"
   xmlns:svg="http://www.w3.org/2000/svg"
   xmlns="http://www.w3.org/2000/svg"
   xmlns:sodipodi="http://sodipodi.sourceforge.net/DTD/sodipodi-0.dtd"
   xmlns:inkscape="http://www.inkscape.org/namespaces/inkscape"
   width="901.32745"
   height="331.73813"
   id="svg2"
   version="1.1"
   inkscape:version="0.48.4 r9939"
   sodipodi:docname="spatial_conflict_parallel.svg">
  <sodipodi:namedview
     id="base"
     pagecolor="#ffffff"
     bordercolor="#666666"
     borderopacity="1.0"
     inkscape:pageopacity="0.0"
     inkscape:pageshadow="2"
     inkscape:zoom="1.0217572"
     inkscape:cx="462.13605"
     inkscape:cy="191.36573"
     inkscape:document-units="px"
     inkscape:current-layer="layer1"
     showgrid="false"
     inkscape:window-width="1600"
     inkscape:window-height="834"
     inkscape:window-x="0"
     inkscape:window-y="27"
     inkscape:window-maximized="1"
     fit-margin-top="0"
     fit-margin-left="0"
     fit-margin-right="0"
     fit-margin-bottom="0" />
  <defs
     id="defs4">
    <marker
       inkscape:stockid="Arrow1Lend"
       orient="auto"
       refY="0"
       refX="0"
       id="Arrow1Lend"
       style="overflow:visible">
      <path
         id="path3762"
         d="M 0,0 5,-5 -12.5,0 5,5 0,0 z"
         style="fill-rule:evenodd;stroke:#000000;stroke-width:1pt"
         transform="matrix(-0.8,0,0,-0.8,-10,0)"
         inkscape:connector-curvature="0" />
    </marker>
    <marker
       inkscape:stockid="Arrow1Lstart"
       orient="auto"
       refY="0"
       refX="0"
       id="Arrow1Lstart"
       style="overflow:visible">
      <path
         id="path3759"
         d="M 0,0 5,-5 -12.5,0 5,5 0,0 z"
         style="fill-rule:evenodd;stroke:#000000;stroke-width:1pt"
         transform="matrix(0.8,0,0,0.8,10,0)"
         inkscape:connector-curvature="0" />
    </marker>
    <marker
       inkscape:stockid="Arrow1Mend"
       orient="auto"
       refY="0"
       refX="0"
       id="Arrow1Mend"
       style="overflow:visible">
      <path
         id="path3768"
         d="M 0,0 5,-5 -12.5,0 5,5 0,0 z"
         style="fill-rule:evenodd;stroke:#000000;stroke-width:1pt"
         transform="matrix(-0.4,0,0,-0.4,-4,0)"
         inkscape:connector-curvature="0" />
    </marker>
    <marker
       inkscape:stockid="Arrow1Mstart"
       orient="auto"
       refY="0"
       refX="0"
       id="Arrow1Mstart"
       style="overflow:visible">
      <path
         id="path3765"
         d="M 0,0 5,-5 -12.5,0 5,5 0,0 z"
         style="fill-rule:evenodd;stroke:#000000;stroke-width:1pt"
         transform="matrix(0.4,0,0,0.4,4,0)"
         inkscape:connector-curvature="0" />
    </marker>
    <marker
       style="overflow:visible"
       id="Arrow1LendHs"
       refX="0"
       refY="0"
       orient="auto"
       inkscape:stockid="Arrow1LendHs">
      <path
         inkscape:connector-curvature="0"
         transform="matrix(-0.8,0,0,-0.8,-10,0)"
         style="fill:#000000;fill-rule:evenodd;stroke:#000000;stroke-width:1pt"
         d="M 0,0 5,-5 -12.5,0 5,5 0,0 z"
         id="path3384" />
    </marker>
  </defs>
  <metadata
     id="metadata7">
    <rdf:RDF>
      <cc:Work
         rdf:about="">
        <dc:format>image/svg+xml</dc:format>
        <dc:type
           rdf:resource="http://purl.org/dc/dcmitype/StillImage" />
        <dc:title></dc:title>
      </cc:Work>
    </rdf:RDF>
  </metadata>
  <g
     inkscape:label="Ebene 1"
     inkscape:groupmode="layer"
     id="layer1"
     transform="translate(316.8125,-303.84375)">
    <path
       style="fill:none;stroke:#000000;stroke-width:3;stroke-linecap:butt;stroke-linejoin:miter;stroke-miterlimit:4;stroke-opacity:1;stroke-dasharray:none;marker-start:none;marker-mid:none;marker-end:url(#Arrow1Mend)"
       d="m 60.609153,318.8493 97.984797,110.10663 255.56859,-2.02031 129.29953,-98.99495"
       id="path2985"
       inkscape:connector-curvature="0" />
    <path
       style="fill:none;stroke:#000000;stroke-width:3;stroke-linecap:butt;stroke-linejoin:miter;stroke-miterlimit:4;stroke-opacity:1;stroke-dasharray:none;marker-end:url(#Arrow1Mend)"
       d="m 141.42136,557.2453 79.80205,-106.06602 272.74118,0 86.87312,104.04571"
       id="path5691"
       inkscape:connector-curvature="0" />
    <path
       sodipodi:type="arc"
       style="stroke-width:3;stroke-miterlimit:4;stroke-dasharray:none"
       id="path5881"
       sodipodi:cx="221.72849"
       sodipodi:cy="413.4407"
       sodipodi:rx="6.5659914"
       sodipodi:ry="6.5659914"
       d="m 228.29448,413.4407 a 6.5659914,6.5659914 0 1 1 -13.13199,0 6.5659914,6.5659914 0 1 1 13.13199,0 z"
       transform="translate(0,14)" />
    <path
       d="m 228.29448,413.4407 a 6.5659914,6.5659914 0 1 1 -13.13199,0 6.5659914,6.5659914 0 1 1 13.13199,0 z"
       sodipodi:ry="6.5659914"
       sodipodi:rx="6.5659914"
       sodipodi:cy="413.4407"
       sodipodi:cx="221.72849"
       id="path5895"
       style="stroke-width:3;stroke-miterlimit:4;stroke-dasharray:none"
       sodipodi:type="arc"
       transform="translate(0,36.223356)" />
    <path
       transform="translate(192.93914,37.233509)"
       sodipodi:type="arc"
       style="stroke-width:3;stroke-miterlimit:4;stroke-dasharray:none"
       id="path5897"
       sodipodi:cx="221.72849"
       sodipodi:cy="413.4407"
       sodipodi:rx="6.5659914"
       sodipodi:ry="6.5659914"
       d="m 228.29448,413.4407 a 6.5659914,6.5659914 0 1 1 -13.13199,0 6.5659914,6.5659914 0 1 1 13.13199,0 z" />
    <path
       d="m 228.29448,413.4407 a 6.5659914,6.5659914 0 1 1 -13.13199,0 6.5659914,6.5659914 0 1 1 13.13199,0 z"
       sodipodi:ry="6.5659914"
       sodipodi:rx="6.5659914"
       sodipodi:cy="413.4407"
       sodipodi:cx="221.72849"
       id="path5899"
       style="stroke-width:3;stroke-miterlimit:4;stroke-dasharray:none"
       sodipodi:type="arc"
       transform="translate(191.92899,12.989848)" />
    <path
       transform="translate(139.92899,12.989848)"
       sodipodi:type="arc"
       style="stroke-width:3;stroke-miterlimit:4;stroke-dasharray:none"
       id="path8986"
       sodipodi:cx="221.72849"
       sodipodi:cy="413.4407"
       sodipodi:rx="6.5659914"
       sodipodi:ry="6.5659914"
       d="m 228.29448,413.4407 a 6.5659914,6.5659914 0 1 1 -13.13199,0 6.5659914,6.5659914 0 1 1 13.13199,0 z" />
    <path
       d="m 228.29448,413.4407 a 6.5659914,6.5659914 0 1 1 -13.13199,0 6.5659914,6.5659914 0 1 1 13.13199,0 z"
       sodipodi:ry="6.5659914"
       sodipodi:rx="6.5659914"
       sodipodi:cy="413.4407"
       sodipodi:cx="221.72849"
       id="path8988"
       style="stroke-width:3;stroke-miterlimit:4;stroke-dasharray:none"
       sodipodi:type="arc"
       transform="translate(63.92899,12.989848)" />
    <path
       transform="translate(-62.07101,12.989848)"
       sodipodi:type="arc"
       style="stroke-width:3;stroke-miterlimit:4;stroke-dasharray:none"
       id="path8990"
       sodipodi:cx="221.72849"
       sodipodi:cy="413.4407"
       sodipodi:rx="6.5659914"
       sodipodi:ry="6.5659914"
       d="m 228.29448,413.4407 a 6.5659914,6.5659914 0 1 1 -13.13199,0 6.5659914,6.5659914 0 1 1 13.13199,0 z" />
    <path
       d="m 228.29448,413.4407 a 6.5659914,6.5659914 0 1 1 -13.13199,0 6.5659914,6.5659914 0 1 1 13.13199,0 z"
       sodipodi:ry="6.5659914"
       sodipodi:rx="6.5659914"
       sodipodi:cy="413.4407"
       sodipodi:cx="221.72849"
       id="path8992"
       style="stroke-width:3;stroke-miterlimit:4;stroke-dasharray:none"
       sodipodi:type="arc"
       transform="translate(-102.07101,-27.010152)" />
    <path
       transform="translate(-144.07101,-75.010152)"
       sodipodi:type="arc"
       style="stroke-width:3;stroke-miterlimit:4;stroke-dasharray:none"
       id="path8994"
       sodipodi:cx="221.72849"
       sodipodi:cy="413.4407"
       sodipodi:rx="6.5659914"
       sodipodi:ry="6.5659914"
       d="m 228.29448,413.4407 a 6.5659914,6.5659914 0 1 1 -13.13199,0 6.5659914,6.5659914 0 1 1 13.13199,0 z" />
    <path
       d="m 228.29448,413.4407 a 6.5659914,6.5659914 0 1 1 -13.13199,0 6.5659914,6.5659914 0 1 1 13.13199,0 z"
       sodipodi:ry="6.5659914"
       sodipodi:rx="6.5659914"
       sodipodi:cy="413.4407"
       sodipodi:cx="221.72849"
       id="path8996"
       style="stroke-width:3;stroke-miterlimit:4;stroke-dasharray:none"
       sodipodi:type="arc"
       transform="translate(239.92899,-25.010152)" />
    <path
       transform="translate(269.92899,36.989848)"
       sodipodi:type="arc"
       style="stroke-width:3;stroke-miterlimit:4;stroke-dasharray:none"
       id="path8998"
       sodipodi:cx="221.72849"
       sodipodi:cy="413.4407"
       sodipodi:rx="6.5659914"
       sodipodi:ry="6.5659914"
       d="m 228.29448,413.4407 a 6.5659914,6.5659914 0 1 1 -13.13199,0 6.5659914,6.5659914 0 1 1 13.13199,0 z" />
    <path
       d="m 228.29448,413.4407 a 6.5659914,6.5659914 0 1 1 -13.13199,0 6.5659914,6.5659914 0 1 1 13.13199,0 z"
       sodipodi:ry="6.5659914"
       sodipodi:rx="6.5659914"
       sodipodi:cy="413.4407"
       sodipodi:cx="221.72849"
       id="path9000"
       style="stroke-width:3;stroke-miterlimit:4;stroke-dasharray:none"
       sodipodi:type="arc"
       transform="translate(95.92899,36.989848)" />
    <path
       transform="translate(-50.07101,104.98985)"
       sodipodi:type="arc"
       style="stroke-width:3;stroke-miterlimit:4;stroke-dasharray:none"
       id="path9002"
       sodipodi:cx="221.72849"
       sodipodi:cy="413.4407"
       sodipodi:rx="6.5659914"
       sodipodi:ry="6.5659914"
       d="m 228.29448,413.4407 a 6.5659914,6.5659914 0 1 1 -13.13199,0 6.5659914,6.5659914 0 1 1 13.13199,0 z" />
    <path
       d="m 228.29448,413.4407 a 6.5659914,6.5659914 0 1 1 -13.13199,0 6.5659914,6.5659914 0 1 1 13.13199,0 z"
       sodipodi:ry="6.5659914"
       sodipodi:rx="6.5659914"
       sodipodi:cy="413.4407"
       sodipodi:cx="221.72849"
       id="path9004"
       style="stroke-width:3;stroke-miterlimit:4;stroke-dasharray:none"
       sodipodi:type="arc"
       transform="translate(323.92899,100.98985)" />
    <rect
       style="fill:none;stroke:#ff0000;stroke-width:3;stroke-miterlimit:4;stroke-opacity:1;stroke-dasharray:12, 3;stroke-dashoffset:0"
       id="rect9006"
       width="242.43661"
       height="70.710678"
       x="197.6387"
       y="401.58612" />
    <path
       style="fill:none;stroke:#000000;stroke-width:3;stroke-linecap:butt;stroke-linejoin:miter;stroke-miterlimit:4;stroke-opacity:1;stroke-dasharray:none;marker-end:url(#Arrow1Mend)"
       d="m -300.61709,558.49731 c 8.19747,-96.69067 49.1849,-129.27121 65.57985,-142.93402 16.39499,-13.6628 75.14357,-40.98844 112.03227,-72.51799 36.888673,-31.52957 36.888673,-31.52957 36.888673,-31.52957"
       id="path3302"
       inkscape:connector-curvature="0" />
    <path
       inkscape:connector-curvature="0"
       id="path9986"
       d="m -316.69183,326.39128 c 96.69067,8.19747 129.27121,49.1849 142.93402,65.57985 13.6628,16.39499 40.98844,75.14357 72.51799,112.03227 31.529563,36.88868 31.529563,36.88868 31.529563,36.88868"
       style="fill:none;stroke:#000000;stroke-width:3;stroke-linecap:butt;stroke-linejoin:miter;stroke-miterlimit:4;stroke-opacity:1;stroke-dasharray:none;marker-end:url(#Arrow1Mend)" />
    <path
       d="m 228.29448,413.4407 c 0,3.6263 -2.9397,6.566 -6.56599,6.566 -3.6263,0 -6.566,-2.9397 -6.566,-6.566 0,-3.62629 2.9397,-6.56599 6.566,-6.56599 3.62629,0 6.56599,2.9397 6.56599,6.56599 z"
       sodipodi:ry="6.5659914"
       sodipodi:rx="6.5659914"
       sodipodi:cy="413.4407"
       sodipodi:cx="221.72849"
       id="path9988"
       style="stroke-width:3;stroke-miterlimit:4;stroke-dasharray:none"
       sodipodi:type="arc"
       transform="translate(-339.33516,-76.480614)" />
    <path
       transform="translate(-391.33516,-38.480614)"
       sodipodi:type="arc"
       style="stroke-width:3;stroke-miterlimit:4;stroke-dasharray:none"
       id="path9990"
       sodipodi:cx="221.72849"
       sodipodi:cy="413.4407"
       sodipodi:rx="6.5659914"
       sodipodi:ry="6.5659914"
       d="m 228.29448,413.4407 c 0,3.6263 -2.9397,6.566 -6.56599,6.566 -3.6263,0 -6.566,-2.9397 -6.566,-6.566 0,-3.62629 2.9397,-6.56599 6.566,-6.56599 3.62629,0 6.56599,2.9397 6.56599,6.56599 z" />
    <path
       d="m 228.29448,413.4407 c 0,3.6263 -2.9397,6.566 -6.56599,6.566 -3.6263,0 -6.566,-2.9397 -6.566,-6.566 0,-3.62629 2.9397,-6.56599 6.566,-6.56599 3.62629,0 6.56599,2.9397 6.56599,6.56599 z"
       sodipodi:ry="6.5659914"
       sodipodi:rx="6.5659914"
       sodipodi:cy="413.4407"
       sodipodi:cx="221.72849"
       id="path9992"
       style="stroke-width:3;stroke-miterlimit:4;stroke-dasharray:none"
       sodipodi:type="arc"
       transform="translate(-453.33516,-0.4806143)" />
    <path
       transform="translate(-501.33516,59.519386)"
       sodipodi:type="arc"
       style="stroke-width:3;stroke-miterlimit:4;stroke-dasharray:none"
       id="path9994"
       sodipodi:cx="221.72849"
       sodipodi:cy="413.4407"
       sodipodi:rx="6.5659914"
       sodipodi:ry="6.5659914"
       d="m 228.29448,413.4407 c 0,3.6263 -2.9397,6.566 -6.56599,6.566 -3.6263,0 -6.566,-2.9397 -6.566,-6.566 0,-3.62629 2.9397,-6.56599 6.566,-6.56599 3.62629,0 6.56599,2.9397 6.56599,6.56599 z" />
    <path
       d="m 228.29448,413.4407 c 0,3.6263 -2.9397,6.566 -6.56599,6.566 -3.6263,0 -6.566,-2.9397 -6.566,-6.566 0,-3.62629 2.9397,-6.56599 6.566,-6.56599 3.62629,0 6.56599,2.9397 6.56599,6.56599 z"
       sodipodi:ry="6.5659914"
       sodipodi:rx="6.5659914"
       sodipodi:cy="413.4407"
       sodipodi:cx="221.72849"
       id="path9996"
       style="stroke-width:3;stroke-miterlimit:4;stroke-dasharray:none"
       sodipodi:type="arc"
       transform="translate(-517.33516,117.51938)" />
    <path
       transform="translate(-513.33516,-84.480612)"
       sodipodi:type="arc"
       style="stroke-width:3;stroke-miterlimit:4;stroke-dasharray:none"
       id="path9998"
       sodipodi:cx="221.72849"
       sodipodi:cy="413.4407"
       sodipodi:rx="6.5659914"
       sodipodi:ry="6.5659914"
       d="m 228.29448,413.4407 c 0,3.6263 -2.9397,6.566 -6.56599,6.566 -3.6263,0 -6.566,-2.9397 -6.566,-6.566 0,-3.62629 2.9397,-6.56599 6.566,-6.56599 3.62629,0 6.56599,2.9397 6.56599,6.56599 z" />
    <path
       d="m 228.29448,413.4407 c 0,3.6263 -2.9397,6.566 -6.56599,6.566 -3.6263,0 -6.566,-2.9397 -6.566,-6.566 0,-3.62629 2.9397,-6.56599 6.566,-6.56599 3.62629,0 6.56599,2.9397 6.56599,6.56599 z"
       sodipodi:ry="6.5659914"
       sodipodi:rx="6.5659914"
       sodipodi:cy="413.4407"
       sodipodi:cx="221.72849"
       id="path10000"
       style="stroke-width:3;stroke-miterlimit:4;stroke-dasharray:none"
       sodipodi:type="arc"
       transform="translate(-455.33516,-68.480612)" />
    <path
       transform="translate(-409.33516,-38.480612)"
       sodipodi:type="arc"
       style="stroke-width:3;stroke-miterlimit:4;stroke-dasharray:none"
       id="path10002"
       sodipodi:cx="221.72849"
       sodipodi:cy="413.4407"
       sodipodi:rx="6.5659914"
       sodipodi:ry="6.5659914"
       d="m 228.29448,413.4407 c 0,3.6263 -2.9397,6.566 -6.56599,6.566 -3.6263,0 -6.566,-2.9397 -6.566,-6.566 0,-3.62629 2.9397,-6.56599 6.566,-6.56599 3.62629,0 6.56599,2.9397 6.56599,6.56599 z" />
    <path
       d="m 228.29448,413.4407 c 0,3.6263 -2.9397,6.566 -6.56599,6.566 -3.6263,0 -6.566,-2.9397 -6.566,-6.566 0,-3.62629 2.9397,-6.56599 6.566,-6.56599 3.62629,0 6.56599,2.9397 6.56599,6.56599 z"
       sodipodi:ry="6.5659914"
       sodipodi:rx="6.5659914"
       sodipodi:cy="413.4407"
       sodipodi:cx="221.72849"
       id="path10004"
       style="stroke-width:3;stroke-miterlimit:4;stroke-dasharray:none"
       sodipodi:type="arc"
       transform="translate(-381.33516,1.519388)" />
    <path
       transform="translate(-355.33516,45.519388)"
       sodipodi:type="arc"
       style="stroke-width:3;stroke-miterlimit:4;stroke-dasharray:none"
       id="path10006"
       sodipodi:cx="221.72849"
       sodipodi:cy="413.4407"
       sodipodi:rx="6.5659914"
       sodipodi:ry="6.5659914"
       d="m 228.29448,413.4407 c 0,3.6263 -2.9397,6.566 -6.56599,6.566 -3.6263,0 -6.566,-2.9397 -6.566,-6.566 0,-3.62629 2.9397,-6.56599 6.566,-6.56599 3.62629,0 6.56599,2.9397 6.56599,6.56599 z" />
    <path
       d="m 228.29448,413.4407 c 0,3.6263 -2.9397,6.566 -6.56599,6.566 -3.6263,0 -6.566,-2.9397 -6.566,-6.566 0,-3.62629 2.9397,-6.56599 6.566,-6.56599 3.62629,0 6.56599,2.9397 6.56599,6.56599 z"
       sodipodi:ry="6.5659914"
       sodipodi:rx="6.5659914"
       sodipodi:cy="413.4407"
       sodipodi:cx="221.72849"
       id="path10008"
       style="stroke-width:3;stroke-miterlimit:4;stroke-dasharray:none"
       sodipodi:type="arc"
       transform="translate(-327.33516,85.519388)" />
    <path
       sodipodi:type="arc"
       style="fill:none;stroke:#ff0000;stroke-width:3;stroke-miterlimit:4;stroke-opacity:1;stroke-dasharray:9, 3;stroke-dashoffset:0"
       id="path10010"
       sodipodi:cx="-311.03152"
       sodipodi:cy="68.46759"
       sodipodi:rx="30.441383"
       sodipodi:ry="30.441383"
       d="m -280.59014,68.46759 c 0,16.812312 -13.62907,30.441384 -30.44138,30.441384 -16.81232,0 -30.44139,-13.629072 -30.44139,-30.441384 0,-16.812311 13.62907,-30.441383 30.44139,-30.441383 16.81231,0 30.44138,13.629072 30.44138,30.441383 z"
       transform="translate(127.86182,312.37328)" />
    <g
       id="g10145"
       transform="matrix(2.4128645,0,0,2.4128645,-571.68429,42.660162)">
      <g
         id="content"
         transform="matrix(0.38804391,0,0,-0.38804391,-67.907685,402.91557)"
         xml:space="preserve"
         stroke-miterlimit="10.433"
         font-style="normal"
         font-variant="normal"
         font-weight="normal"
         font-stretch="normal"
         font-size-adjust="none"
         letter-spacing="normal"
         word-spacing="normal"
         style="font-style:normal;font-variant:normal;font-weight:normal;font-stretch:normal;letter-spacing:normal;word-spacing:normal;text-anchor:start;fill:none;stroke:#000000;stroke-linecap:butt;stroke-linejoin:miter;stroke-miterlimit:10.43299961;stroke-opacity:1;stroke-dasharray:none;stroke-dashoffset:0"><path
           d="m 466.83,421.95 -0.15,1.28 v 13.45 c 0,1.66 0.11,2 2.43,2 h 4.44 c 7.92,0 7.92,-5.28 7.92,-7.72 0,-2.34 0,-7.73 -7.92,-7.73 h -6.87 l 0.15,-1.28 h 8.42 c 5.97,0 11.36,4.03 11.36,9.01 0,4.88 -4.93,9.27 -11.76,9.27 h -17.58 v -1.55 h 1.19 c 3.84,0 3.93,-0.54 3.93,-2.34 v -26.25 c 0,-1.8 -0.09,-2.34 -3.93,-2.34 h -1.19 v -1.55 c 1.73,0.16 5.42,0.16 7.31,0.16 1.89,0 5.64,0 7.38,-0.16 v 1.55 h -1.19 c -3.84,0 -3.94,0.54 -3.94,2.34 z"
           id="path10148"
           inkscape:connector-curvature="0"
           style="fill:#000000;stroke-width:0" /><path
           d="m 511.5,416.86 -0.01,0.59 -0.04,0.59 -0.07,0.58 -0.1,0.57 -0.13,0.56 -0.15,0.55 -0.17,0.54 -0.2,0.53 -0.22,0.51 -0.25,0.5 -0.26,0.49 -0.29,0.47 -0.31,0.46 -0.33,0.44 -0.35,0.43 -0.36,0.4 -0.39,0.39 -0.4,0.37 -0.41,0.35 -0.44,0.32 -0.44,0.31 -0.46,0.28 -0.48,0.26 -0.49,0.24 -0.5,0.21 -0.51,0.18 -0.52,0.16 -0.53,0.13 -0.54,0.11 -0.54,0.07 -0.56,0.05 -0.56,0.01 -0.05,-1.09 c 2.19,0 4.33,-1.1 5.63,-3.24 1.29,-2.14 1.29,-5.03 1.29,-6.92 0,-1.8 0,-4.48 -1.09,-6.67 -1.09,-2.25 -3.28,-3.69 -5.78,-3.69 h 0 c -2.14,0 -4.33,1.05 -5.67,3.33 -1.25,2.2 -1.25,5.23 -1.25,7.03 0,1.94 0,4.63 1.18,6.83 1.36,2.28 3.69,3.33 5.69,3.33 l 0.05,1.09 c -6.22,0 -11.06,-5.42 -11.06,-11.65 0,-6.43 5.18,-11.21 11.01,-11.21 6.03,0 11.06,4.88 11.06,11.21 z"
           id="path10150"
           inkscape:connector-curvature="0"
           style="fill:#000000;stroke-width:0" /><path
           d="m 521.8,428.21 -6.96,-0.54 v -1.55 c 3.23,0 3.68,-0.3 3.68,-2.73 v -13.41 c 0,-2.23 -0.54,-2.23 -3.89,-2.23 v -1.55 c 1.6,0.05 4.28,0.16 5.49,0.16 1.75,0 3.48,-0.11 5.18,-0.16 v 1.55 c -3.29,0 -3.5,0.25 -3.5,2.18 z"
           id="path10152"
           inkscape:connector-curvature="0"
           style="fill:#000000;stroke-width:0" /><path
           d="m 522.01,436.89 -0.01,0.14 -0.01,0.15 -0.01,0.14 -0.03,0.14 -0.03,0.13 -0.04,0.13 -0.04,0.13 -0.05,0.12 -0.05,0.12 -0.06,0.12 -0.07,0.11 -0.07,0.1 -0.08,0.1 -0.08,0.1 -0.08,0.1 -0.09,0.08 -0.09,0.09 -0.1,0.08 -0.1,0.07 -0.11,0.07 -0.1,0.07 -0.11,0.06 -0.12,0.05 -0.11,0.05 -0.12,0.04 -0.12,0.04 -0.13,0.03 -0.12,0.03 -0.13,0.02 -0.12,0.01 -0.13,0.01 -0.13,0.01 c -1.55,0 -2.64,-1.35 -2.64,-2.64 0,-1.35 1.09,-2.64 2.64,-2.64 1.39,0 2.64,1.04 2.64,2.64 z"
           id="path10154"
           inkscape:connector-curvature="0"
           style="fill:#000000;stroke-width:0" /><path
           d="m 532.27,423.34 v -13.36 c 0,-2.23 -0.54,-2.23 -3.89,-2.23 v -1.55 c 1.75,0.05 4.28,0.16 5.63,0.16 1.29,0 3.89,-0.11 5.58,-0.16 v 1.55 c -3.33,0 -3.88,0 -3.88,2.23 v 9.17 c 0,5.19 3.53,7.97 6.72,7.97 3.14,0 3.69,-2.69 3.69,-5.53 v -11.61 c 0,-2.23 -0.55,-2.23 -3.89,-2.23 v -1.55 c 1.75,0.05 4.29,0.16 5.64,0.16 1.29,0 3.87,-0.11 5.58,-0.16 v 1.55 c -2.6,0 -3.85,0 -3.9,1.5 v 9.51 c 0,4.28 0,5.83 -1.54,7.61 -0.69,0.86 -2.35,1.84 -5.22,1.84 -3.64,0 -5.99,-2.14 -7.38,-5.21 v 5.21 l -7.03,-0.54 v -1.55 c 3.49,0 3.89,-0.34 3.89,-2.78 z"
           id="path10156"
           inkscape:connector-curvature="0"
           style="fill:#000000;stroke-width:0" /><path
           d="m 561.7,426.12 h 7.12 v 1.55 h -7.12 v 9.17 h -1.25 c -0.05,-4.08 -1.55,-9.42 -6.43,-9.61 v -1.11 h 4.24 v -13.75 c 0,-6.12 4.62,-6.72 6.42,-6.72 3.53,0 4.94,3.53 4.94,6.72 v 2.84 h -1.25 v -2.73 c 0,-3.69 -1.5,-5.58 -3.35,-5.58 -3.32,0 -3.32,4.53 -3.32,5.38 z"
           id="path10158"
           inkscape:connector-curvature="0"
           style="fill:#000000;stroke-width:0" /><path
           d="m 591.86,423.23 0.03,-0.96 0.07,-0.94 0.11,-0.93 0.16,-0.91 0.2,-0.89 0.24,-0.87 0.28,-0.85 0.32,-0.83 0.35,-0.81 0.4,-0.78 0.42,-0.76 0.46,-0.74 0.5,-0.7 0.52,-0.68 0.55,-0.66 0.58,-0.62 0.61,-0.59 0.64,-0.56 0.65,-0.53 0.69,-0.5 0.7,-0.46 0.73,-0.43 0.74,-0.39 0.76,-0.35 0.79,-0.32 0.79,-0.28 0.81,-0.23 0.83,-0.2 0.83,-0.15 0.85,-0.11 0.86,-0.07 0.86,-0.02 c 8.13,0 13,6.92 13,12.7 0,0.5 0,0.84 -0.64,0.84 -0.55,0 -0.55,-0.29 -0.59,-0.79 -0.41,-7.13 -5.74,-11.21 -11.18,-11.21 -3.03,0 -12.79,1.69 -12.79,16.53 0,14.91 9.72,16.6 12.75,16.6 5.44,0 9.87,-4.53 10.86,-11.82 0.11,-0.68 0.11,-0.84 0.8,-0.84 0.79,0 0.79,0.16 0.79,1.2 v 11.8 c 0,0.86 0,1.2 -0.54,1.2 -0.19,0 -0.4,0 -0.8,-0.59 l -2.49,-3.69 c -1.84,1.8 -4.39,4.28 -9.17,4.28 -9.31,0 -17.33,-7.92 -17.33,-18.09 z"
           id="path10160"
           inkscape:connector-curvature="0"
           style="fill:#000000;stroke-width:0" /><path
           d="m 648.53,416.86 -0.01,0.59 -0.04,0.59 -0.07,0.58 -0.1,0.57 -0.13,0.56 -0.14,0.55 -0.18,0.54 -0.2,0.53 -0.22,0.51 -0.25,0.5 -0.26,0.49 -0.29,0.47 -0.31,0.46 -0.33,0.44 -0.34,0.43 -0.37,0.4 -0.38,0.39 -0.41,0.37 -0.41,0.35 -0.43,0.32 -0.45,0.31 -0.46,0.28 -0.48,0.26 -0.48,0.24 -0.5,0.21 -0.51,0.18 -0.52,0.16 -0.54,0.13 -0.53,0.11 -0.55,0.07 -0.56,0.05 -0.56,0.01 -0.05,-1.09 c 2.19,0 4.33,-1.1 5.63,-3.24 1.3,-2.14 1.3,-5.03 1.3,-6.92 0,-1.8 0,-4.48 -1.1,-6.67 -1.09,-2.25 -3.28,-3.69 -5.78,-3.69 h 0 c -2.14,0 -4.33,1.05 -5.67,3.33 -1.25,2.2 -1.25,5.23 -1.25,7.03 0,1.94 0,4.63 1.18,6.83 1.37,2.28 3.69,3.33 5.69,3.33 l 0.05,1.09 c -6.22,0 -11.06,-5.42 -11.06,-11.65 0,-6.43 5.19,-11.21 11.01,-11.21 6.03,0 11.06,4.88 11.06,11.21 z"
           id="path10162"
           inkscape:connector-curvature="0"
           style="fill:#000000;stroke-width:0" /><path
           d="m 655.51,423.34 v -13.36 c 0,-2.23 -0.55,-2.23 -3.89,-2.23 v -1.55 c 1.75,0.05 4.28,0.16 5.62,0.16 1.3,0 3.89,-0.11 5.58,-0.16 v 1.55 c -3.33,0 -3.87,0 -3.87,2.23 v 9.17 c 0,5.19 3.53,7.97 6.71,7.97 3.14,0 3.69,-2.69 3.69,-5.53 v -11.61 c 0,-2.23 -0.55,-2.23 -3.89,-2.23 v -1.55 c 1.75,0.05 4.3,0.16 5.64,0.16 1.3,0 3.88,-0.11 5.58,-0.16 v 1.55 c -2.59,0 -3.84,0 -3.89,1.5 v 9.51 c 0,4.28 0,5.83 -1.55,7.61 -0.69,0.86 -2.34,1.84 -5.22,1.84 -3.64,0 -5.98,-2.14 -7.37,-5.21 v 5.21 l -7.03,-0.54 v -1.55 c 3.48,0 3.89,-0.34 3.89,-2.78 z"
           id="path10164"
           inkscape:connector-curvature="0"
           style="fill:#000000;stroke-width:0" /><path
           d="m 696.82,426.12 v -16.14 c 0,-2.23 -0.55,-2.23 -3.87,-2.23 v -1.55 c 1.64,0.05 4.28,0.16 5.51,0.16 1.25,0 3.69,-0.11 5.53,-0.16 v 1.55 c -3.33,0 -3.87,0 -3.87,2.23 v 30.8 l -1.8,-0.3 c -0.2,0 -0.25,0.05 -0.45,0.14 -1.6,0.7 -3.64,0.7 -4.19,0.7 l -0.05,-1.09 c 0.46,0 1.8,0 3.19,-0.45 -0.44,-0.21 -1.23,-0.71 -1.23,-1.99 0,-0.9 0.39,-1.65 1.23,-1.95 v -8.17 h -10.66 v 5.64 c 0,4.62 3.79,6.92 7.47,6.92 l 0.05,1.09 c -5.22,0 -10.66,-2.79 -10.66,-7.96 v -5.69 h -3.93 v -1.55 h 3.93 v -16.14 c 0,-2.23 -0.54,-2.23 -3.89,-2.23 v -1.55 c 1.66,0.05 4.28,0.16 5.53,0.16 1.25,0 3.69,-0.11 5.54,-0.16 v 1.55 c -3.33,0 -3.9,0 -3.9,2.23 v 16.14 z"
           id="path10166"
           inkscape:connector-curvature="0"
           style="fill:#000000;stroke-width:0" /><path
           d="m 714.27,428.21 -6.97,-0.54 v -1.55 c 3.24,0 3.69,-0.3 3.69,-2.73 v -13.41 c 0,-2.23 -0.54,-2.23 -3.89,-2.23 v -1.55 c 1.6,0.05 4.28,0.16 5.49,0.16 1.75,0 3.48,-0.11 5.18,-0.16 v 1.55 c -3.29,0 -3.5,0.25 -3.5,2.18 z"
           id="path10168"
           inkscape:connector-curvature="0"
           style="fill:#000000;stroke-width:0" /><path
           d="m 714.48,436.89 -0.01,0.14 -0.01,0.15 -0.02,0.14 -0.02,0.14 -0.03,0.13 -0.04,0.13 -0.04,0.13 -0.05,0.12 -0.05,0.12 -0.07,0.12 -0.06,0.11 -0.07,0.1 -0.08,0.1 -0.08,0.1 -0.08,0.1 -0.09,0.08 -0.1,0.09 -0.09,0.08 -0.1,0.07 -0.11,0.07 -0.1,0.07 -0.12,0.06 -0.11,0.05 -0.11,0.05 -0.12,0.04 -0.12,0.04 -0.13,0.03 -0.12,0.03 -0.13,0.02 -0.13,0.01 -0.12,0.01 -0.13,0.01 c -1.55,0 -2.64,-1.35 -2.64,-2.64 0,-1.35 1.09,-2.64 2.64,-2.64 1.39,0 2.64,1.04 2.64,2.64 z"
           id="path10170"
           inkscape:connector-curvature="0"
           style="fill:#000000;stroke-width:0" /><path
           d="m 725.09,417.06 0,0.38 0.01,0.36 0.01,0.36 0.02,0.35 0.03,0.34 0.03,0.34 0.04,0.32 0.04,0.32 0.04,0.31 0.05,0.3 0.06,0.29 0.06,0.29 0.14,0.55 0.15,0.51 0.16,0.49 0.19,0.46 0.19,0.43 0.21,0.4 0.22,0.38 0.23,0.35 0.24,0.32 0.25,0.3 0.26,0.28 0.26,0.26 0.27,0.23 0.28,0.21 0.28,0.19 0.28,0.16 0.28,0.15 0.28,0.13 0.29,0.12 0.28,0.09 0.28,0.08 0.27,0.06 0.27,0.05 0.27,0.03 0.26,0.02 0.25,0.01 c 0.44,0 3.58,-0.05 5.33,-1.85 -2.05,-0.15 -2.35,-1.64 -2.35,-2.29 0,-1.3 0.9,-2.3 2.3,-2.3 1.28,0 2.28,0.86 2.28,2.34 0,3.39 -3.78,5.33 -7.62,5.33 -6.22,0 -10.81,-5.37 -10.81,-11.55 0,-6.37 4.93,-11.31 10.71,-11.31 6.68,0 8.27,5.99 8.27,6.47 0,0.5 -0.5,0.5 -0.64,0.5 -0.45,0 -0.55,-0.19 -0.66,-0.5 -1.43,-4.62 -4.67,-5.22 -6.51,-5.22 -2.64,0 -7.03,2.14 -7.03,10.16 z"
           id="path10172"
           inkscape:connector-curvature="0"
           style="fill:#000000;stroke-width:0" /><path
           d="m 749.96,426.12 h 7.13 v 1.55 h -7.13 v 9.17 h -1.25 c -0.05,-4.08 -1.55,-9.42 -6.42,-9.61 v -1.11 h 4.23 v -13.75 c 0,-6.12 4.63,-6.72 6.43,-6.72 3.53,0 4.93,3.53 4.93,6.72 v 2.84 h -1.25 v -2.73 c 0,-3.69 -1.5,-5.58 -3.34,-5.58 -3.33,0 -3.33,4.53 -3.33,5.38 z"
           id="path10174"
           inkscape:connector-curvature="0"
           style="fill:#000000;stroke-width:0" /></g>    </g>
    <g
       id="g10334"
       transform="matrix(2.3722661,0,0,2.3722661,-82.863092,47.062505)">
      <g
         word-spacing="normal"
         letter-spacing="normal"
         font-size-adjust="none"
         font-stretch="normal"
         font-weight="normal"
         font-variant="normal"
         font-style="normal"
         stroke-miterlimit="10.433"
         xml:space="preserve"
         transform="matrix(0.38804391,0,0,-0.38804391,-67.907685,402.91557)"
         id="g10336"
         style="font-style:normal;font-variant:normal;font-weight:normal;font-stretch:normal;letter-spacing:normal;word-spacing:normal;text-anchor:start;fill:none;stroke:#000000;stroke-linecap:butt;stroke-linejoin:miter;stroke-miterlimit:10.43299961;stroke-opacity:1;stroke-dasharray:none;stroke-dashoffset:0"><path
           id="path10338"
           d="m 466.83,421.95 -0.15,1.28 v 13.45 c 0,1.66 0.11,2 2.43,2 h 4.44 c 7.92,0 7.92,-5.28 7.92,-7.72 0,-2.34 0,-7.73 -7.92,-7.73 h -6.87 l 0.15,-1.28 h 8.42 c 5.97,0 11.36,4.03 11.36,9.01 0,4.88 -4.93,9.27 -11.76,9.27 h -17.58 v -1.55 h 1.19 c 3.84,0 3.93,-0.54 3.93,-2.34 v -26.25 c 0,-1.8 -0.09,-2.34 -3.93,-2.34 h -1.19 v -1.55 c 1.73,0.16 5.42,0.16 7.31,0.16 1.89,0 5.64,0 7.38,-0.16 v 1.55 h -1.19 c -3.84,0 -3.94,0.54 -3.94,2.34 z"
           inkscape:connector-curvature="0"
           style="fill:#000000;stroke-width:0" /><path
           id="path10340"
           d="m 504.63,409.98 0.02,-0.19 0.03,-0.18 0.04,-0.19 0.04,-0.18 0.05,-0.19 0.05,-0.18 0.06,-0.18 0.07,-0.18 0.08,-0.18 0.08,-0.17 0.09,-0.18 0.09,-0.16 0.1,-0.16 0.11,-0.16 0.11,-0.16 0.12,-0.14 0.13,-0.14 0.13,-0.14 0.14,-0.13 0.14,-0.12 0.15,-0.12 0.16,-0.1 0.16,-0.1 0.17,-0.09 0.18,-0.08 0.18,-0.07 0.19,-0.06 0.19,-0.05 0.2,-0.04 0.2,-0.03 0.21,-0.02 0.22,-0.01 c 1.03,0 4.08,0.71 4.08,4.74 v 2.78 h -1.25 v -2.78 c 0,-2.89 -1.24,-3.19 -1.8,-3.19 -1.64,0 -1.84,2.23 -1.84,2.48 v 9.97 c 0,2.1 0,4.03 -1.78,5.88 -1.96,1.93 -4.44,2.73 -6.83,2.73 -4.1,0 -7.53,-2.33 -7.53,-5.62 0,-1.49 1,-2.35 2.29,-2.35 1.39,0 2.3,1 2.3,2.3 0,0.59 -0.25,2.23 -2.55,2.3 1.35,1.73 3.78,2.28 5.38,2.28 2.45,0 5.28,-1.94 5.28,-6.38 v -1.84 -1.05 -4.98 c 0,-4.74 -3.58,-6.42 -5.83,-6.42 -2.44,0 -4.48,1.75 -4.48,4.23 0,2.73 2.09,6.88 10.31,7.17 h 0 v 1.05 c -2.53,-0.14 -6.02,-0.3 -9.16,-1.8 -3.73,-1.69 -4.98,-4.28 -4.98,-6.47 0,-4.03 4.83,-5.28 7.97,-5.28 3.29,0 5.58,1.99 6.53,4.33 z"
           inkscape:connector-curvature="0"
           style="fill:#000000;stroke-width:0" /><path
           id="path10342"
           d="m 521.3,422.75 v 5.46 l -6.92,-0.54 v -1.55 c 3.49,0 3.89,-0.34 3.89,-2.78 v -13.36 c 0,-2.23 -0.54,-2.23 -3.89,-2.23 v -1.55 c 1.96,0.05 4.28,0.16 5.69,0.16 1.98,0 4.33,0 6.33,-0.16 v 1.55 h -1.05 c -3.69,0 -3.8,0.54 -3.8,2.34 v 7.67 c 0,4.92 2.1,9.36 5.9,9.36 0.34,0 0.43,0 0.54,-0.05 -0.15,-0.04 -1.15,-0.64 -1.15,-1.93 0,-1.41 1.04,-2.14 2.15,-2.14 0.89,0 2.14,0.59 2.14,2.18 0,1.6 -1.54,3.03 -3.68,3.03 -3.65,0 -5.44,-3.32 -6.15,-5.46 z"
           inkscape:connector-curvature="0"
           style="fill:#000000;stroke-width:0" /><path
           id="path10344"
           d="m 549.15,409.98 0.02,-0.19 0.03,-0.18 0.03,-0.19 0.04,-0.18 0.05,-0.19 0.06,-0.18 0.06,-0.18 0.07,-0.18 0.07,-0.18 0.09,-0.17 0.08,-0.18 0.1,-0.16 0.1,-0.16 0.1,-0.16 0.12,-0.16 0.12,-0.14 0.12,-0.14 0.13,-0.14 0.14,-0.13 0.15,-0.12 0.15,-0.12 0.15,-0.1 0.17,-0.1 0.17,-0.09 0.17,-0.08 0.18,-0.07 0.19,-0.06 0.19,-0.05 0.2,-0.04 0.21,-0.03 0.21,-0.02 0.21,-0.01 c 1.04,0 4.08,0.71 4.08,4.74 v 2.78 h -1.25 v -2.78 c 0,-2.89 -1.23,-3.19 -1.79,-3.19 -1.64,0 -1.85,2.23 -1.85,2.48 v 9.97 c 0,2.1 0,4.03 -1.78,5.88 -1.95,1.93 -4.44,2.73 -6.83,2.73 -4.09,0 -7.53,-2.33 -7.53,-5.62 0,-1.49 1,-2.35 2.3,-2.35 1.39,0 2.3,1 2.3,2.3 0,0.59 -0.25,2.23 -2.55,2.3 1.34,1.73 3.78,2.28 5.37,2.28 2.46,0 5.28,-1.94 5.28,-6.38 v -1.84 -1.05 -4.98 c 0,-4.74 -3.57,-6.42 -5.82,-6.42 -2.44,0 -4.49,1.75 -4.49,4.23 0,2.73 2.1,6.88 10.31,7.17 h 0 v 1.05 c -2.53,-0.14 -6.01,-0.3 -9.15,-1.8 -3.73,-1.69 -4.98,-4.28 -4.98,-6.47 0,-4.03 4.82,-5.28 7.96,-5.28 3.3,0 5.58,1.99 6.54,4.33 z"
           inkscape:connector-curvature="0"
           style="fill:#000000;stroke-width:0" /><path
           id="path10346"
           d="m 566.32,440.78 -7.17,-0.55 v -1.55 c 3.48,0 3.89,-0.34 3.89,-2.79 v -25.91 c 0,-2.23 -0.55,-2.23 -3.89,-2.23 v -1.55 c 1.64,0.05 4.28,0.16 5.53,0.16 1.25,0 3.69,-0.11 5.53,-0.16 v 1.55 c -3.34,0 -3.89,0 -3.89,2.23 z"
           inkscape:connector-curvature="0"
           style="fill:#000000;stroke-width:0" /><path
           id="path10348"
           d="m 580.12,440.78 -7.17,-0.55 v -1.55 c 3.48,0 3.89,-0.34 3.89,-2.79 v -25.91 c 0,-2.23 -0.55,-2.23 -3.89,-2.23 v -1.55 c 1.64,0.05 4.28,0.16 5.53,0.16 1.25,0 3.68,-0.11 5.53,-0.16 v 1.55 c -3.35,0 -3.89,0 -3.89,2.23 z"
           inkscape:connector-curvature="0"
           style="fill:#000000;stroke-width:0" /><path
           id="path10350"
           d="m 590.63,417.71 0.05,1.05 c 0.3,7.42 4.48,8.66 6.19,8.66 5.12,0 5.62,-6.72 5.62,-8.66 h -11.81 l -0.05,-1.05 h 13.91 c 1.09,0 1.23,0 1.23,1.05 0,4.92 -2.68,9.75 -8.9,9.75 -5.78,0 -10.38,-5.12 -10.38,-11.36 0,-6.67 5.24,-11.5 10.97,-11.5 6.08,0 8.31,5.53 8.31,6.47 0,0.5 -0.39,0.61 -0.64,0.61 -0.45,0 -0.54,-0.3 -0.65,-0.7 -1.74,-5.13 -6.22,-5.13 -6.72,-5.13 -2.5,0 -4.49,1.49 -5.63,3.33 -1.5,2.39 -1.5,5.69 -1.5,7.48 z"
           inkscape:connector-curvature="0"
           style="fill:#000000;stroke-width:0" /><path
           id="path10352"
           d="m 615.99,440.78 -7.17,-0.55 v -1.55 c 3.48,0 3.89,-0.34 3.89,-2.79 v -25.91 c 0,-2.23 -0.55,-2.23 -3.89,-2.23 v -1.55 c 1.64,0.05 4.28,0.16 5.53,0.16 1.25,0 3.69,-0.11 5.53,-0.16 v 1.55 c -3.34,0 -3.89,0 -3.89,2.23 z"
           inkscape:connector-curvature="0"
           style="fill:#000000;stroke-width:0" /><path
           id="path10354"
           d="m 640.46,423.23 0.02,-0.96 0.07,-0.94 0.11,-0.93 0.16,-0.91 0.2,-0.89 0.24,-0.87 0.28,-0.85 0.32,-0.83 0.36,-0.81 0.39,-0.78 0.43,-0.76 0.46,-0.74 0.49,-0.7 0.52,-0.68 0.56,-0.66 0.58,-0.62 0.61,-0.59 0.63,-0.56 0.66,-0.53 0.68,-0.5 0.71,-0.46 0.72,-0.43 0.75,-0.39 0.76,-0.35 0.78,-0.32 0.8,-0.28 0.81,-0.23 0.82,-0.2 0.84,-0.15 0.84,-0.11 0.86,-0.07 0.86,-0.02 c 8.13,0 13,6.92 13,12.7 0,0.5 0,0.84 -0.63,0.84 -0.55,0 -0.55,-0.29 -0.6,-0.79 -0.4,-7.13 -5.73,-11.21 -11.17,-11.21 -3.03,0 -12.8,1.69 -12.8,16.53 0,14.91 9.72,16.6 12.75,16.6 5.44,0 9.88,-4.53 10.86,-11.82 0.11,-0.68 0.11,-0.84 0.8,-0.84 0.79,0 0.79,0.16 0.79,1.2 v 11.8 c 0,0.86 0,1.2 -0.54,1.2 -0.19,0 -0.39,0 -0.8,-0.59 l -2.48,-3.69 c -1.85,1.8 -4.39,4.28 -9.18,4.28 -9.31,0 -17.32,-7.92 -17.32,-18.09 z"
           inkscape:connector-curvature="0"
           style="fill:#000000;stroke-width:0" /><path
           id="path10356"
           d="m 697.13,416.86 -0.02,0.59 -0.04,0.59 -0.07,0.58 -0.1,0.57 -0.12,0.56 -0.15,0.55 -0.18,0.54 -0.19,0.53 -0.23,0.51 -0.24,0.5 -0.27,0.49 -0.29,0.47 -0.3,0.46 -0.33,0.44 -0.35,0.43 -0.37,0.4 -0.38,0.39 -0.4,0.37 -0.42,0.35 -0.43,0.32 -0.45,0.31 -0.46,0.28 -0.47,0.26 -0.49,0.24 -0.5,0.21 -0.51,0.18 -0.52,0.16 -0.53,0.13 -0.54,0.11 -0.55,0.07 -0.55,0.05 -0.57,0.01 -0.04,-1.09 c 2.18,0 4.33,-1.1 5.62,-3.24 1.3,-2.14 1.3,-5.03 1.3,-6.92 0,-1.8 0,-4.48 -1.09,-6.67 -1.1,-2.25 -3.29,-3.69 -5.79,-3.69 h 0 c -2.14,0 -4.33,1.05 -5.67,3.33 -1.25,2.2 -1.25,5.23 -1.25,7.03 0,1.94 0,4.63 1.19,6.83 1.36,2.28 3.69,3.33 5.69,3.33 l 0.04,1.09 c -6.21,0 -11.06,-5.42 -11.06,-11.65 0,-6.43 5.19,-11.21 11.02,-11.21 6.03,0 11.06,4.88 11.06,11.21 z"
           inkscape:connector-curvature="0"
           style="fill:#000000;stroke-width:0" /><path
           id="path10358"
           d="m 704.1,423.34 v -13.36 c 0,-2.23 -0.55,-2.23 -3.89,-2.23 v -1.55 c 1.75,0.05 4.28,0.16 5.63,0.16 1.29,0 3.89,-0.11 5.57,-0.16 v 1.55 c -3.32,0 -3.87,0 -3.87,2.23 v 9.17 c 0,5.19 3.53,7.97 6.72,7.97 3.14,0 3.69,-2.69 3.69,-5.53 v -11.61 c 0,-2.23 -0.55,-2.23 -3.9,-2.23 v -1.55 c 1.75,0.05 4.3,0.16 5.65,0.16 1.29,0 3.87,-0.11 5.57,-0.16 v 1.55 c -2.59,0 -3.84,0 -3.89,1.5 v 9.51 c 0,4.28 0,5.83 -1.54,7.61 -0.69,0.86 -2.35,1.84 -5.22,1.84 -3.64,0 -5.99,-2.14 -7.38,-5.21 v 5.21 l -7.03,-0.54 v -1.55 c 3.49,0 3.89,-0.34 3.89,-2.78 z"
           inkscape:connector-curvature="0"
           style="fill:#000000;stroke-width:0" /><path
           id="path10360"
           d="m 745.41,426.12 v -16.14 c 0,-2.23 -0.54,-2.23 -3.87,-2.23 v -1.55 c 1.64,0.05 4.28,0.16 5.51,0.16 1.25,0 3.69,-0.11 5.54,-0.16 v 1.55 c -3.33,0 -3.88,0 -3.88,2.23 v 30.8 l -1.8,-0.3 c -0.2,0 -0.25,0.05 -0.45,0.14 -1.59,0.7 -3.64,0.7 -4.19,0.7 l -0.04,-1.09 c 0.45,0 1.79,0 3.18,-0.45 -0.43,-0.21 -1.23,-0.71 -1.23,-1.99 0,-0.9 0.39,-1.65 1.23,-1.95 v -8.17 h -10.65 v 5.64 c 0,4.62 3.78,6.92 7.47,6.92 l 0.04,1.09 c -5.22,0 -10.65,-2.79 -10.65,-7.96 v -5.69 h -3.94 v -1.55 h 3.94 v -16.14 c 0,-2.23 -0.55,-2.23 -3.89,-2.23 v -1.55 c 1.65,0.05 4.28,0.16 5.53,0.16 1.25,0 3.69,-0.11 5.53,-0.16 v 1.55 c -3.33,0 -3.89,0 -3.89,2.23 v 16.14 z"
           inkscape:connector-curvature="0"
           style="fill:#000000;stroke-width:0" /><path
           id="path10362"
           d="m 762.87,428.21 -6.97,-0.54 v -1.55 c 3.23,0 3.69,-0.3 3.69,-2.73 v -13.41 c 0,-2.23 -0.55,-2.23 -3.89,-2.23 v -1.55 c 1.59,0.05 4.28,0.16 5.48,0.16 1.75,0 3.48,-0.11 5.19,-0.16 v 1.55 c -3.3,0 -3.5,0.25 -3.5,2.18 z"
           inkscape:connector-curvature="0"
           style="fill:#000000;stroke-width:0" /><path
           id="path10364"
           d="m 763.07,436.89 0,0.14 -0.01,0.15 -0.02,0.14 -0.03,0.14 -0.03,0.13 -0.03,0.13 -0.05,0.13 -0.05,0.12 -0.05,0.12 -0.06,0.12 -0.07,0.11 -0.07,0.1 -0.07,0.1 -0.08,0.1 -0.09,0.1 -0.09,0.08 -0.09,0.09 -0.1,0.08 -0.1,0.07 -0.1,0.07 -0.11,0.07 -0.11,0.06 -0.12,0.05 -0.11,0.05 -0.12,0.04 -0.12,0.04 -0.12,0.03 -0.13,0.03 -0.12,0.02 -0.13,0.01 -0.13,0.01 -0.13,0.01 c -1.55,0 -2.64,-1.35 -2.64,-2.64 0,-1.35 1.09,-2.64 2.64,-2.64 1.39,0 2.64,1.04 2.64,2.64 z"
           inkscape:connector-curvature="0"
           style="fill:#000000;stroke-width:0" /><path
           id="path10366"
           d="m 773.68,417.06 0,0.38 0.01,0.36 0.02,0.36 0.02,0.35 0.02,0.34 0.03,0.34 0.04,0.32 0.04,0.32 0.05,0.31 0.05,0.3 0.05,0.29 0.07,0.29 0.13,0.55 0.15,0.51 0.17,0.49 0.18,0.46 0.2,0.43 0.2,0.4 0.22,0.38 0.24,0.35 0.24,0.32 0.25,0.3 0.25,0.28 0.27,0.26 0.27,0.23 0.27,0.21 0.28,0.19 0.28,0.16 0.28,0.15 0.29,0.13 0.28,0.12 0.28,0.09 0.28,0.08 0.28,0.06 0.27,0.05 0.26,0.03 0.26,0.02 0.25,0.01 c 0.44,0 3.58,-0.05 5.33,-1.85 -2.04,-0.15 -2.34,-1.64 -2.34,-2.29 0,-1.3 0.89,-2.3 2.3,-2.3 1.28,0 2.28,0.86 2.28,2.34 0,3.39 -3.78,5.33 -7.63,5.33 -6.22,0 -10.81,-5.37 -10.81,-11.55 0,-6.37 4.94,-11.31 10.72,-11.31 6.67,0 8.26,5.99 8.26,6.47 0,0.5 -0.5,0.5 -0.64,0.5 -0.45,0 -0.54,-0.19 -0.65,-0.5 -1.44,-4.62 -4.68,-5.22 -6.52,-5.22 -2.64,0 -7.03,2.14 -7.03,10.16 z"
           inkscape:connector-curvature="0"
           style="fill:#000000;stroke-width:0" /><path
           id="path10368"
           d="m 798.55,426.12 h 7.13 v 1.55 h -7.13 v 9.17 h -1.25 c -0.04,-4.08 -1.54,-9.42 -6.42,-9.61 v -1.11 h 4.24 v -13.75 c 0,-6.12 4.62,-6.72 6.42,-6.72 3.53,0 4.94,3.53 4.94,6.72 v 2.84 h -1.25 v -2.73 c 0,-3.69 -1.5,-5.58 -3.35,-5.58 -3.33,0 -3.33,4.53 -3.33,5.38 z"
           inkscape:connector-curvature="0"
           style="fill:#000000;stroke-width:0" /></g>    </g>
  </g>
</svg>
